<?xml version="1.0" encoding="UTF-8"?>
<!DOCTYPE svg PUBLIC "-//W3C//DTD SVG 1.1//EN" "http://www.w3.org/Graphics/SVG/1.1/DTD/svg11.dtd">
<svg xmlns="http://www.w3.org/2000/svg" version="1.1" width="1024px" height="1024px" style="shape-rendering:geometricPrecision; text-rendering:geometricPrecision; image-rendering:optimizeQuality; fill-rule:evenodd; clip-rule:evenodd" xmlns:xlink="http://www.w3.org/1999/xlink">
<g><path style="opacity:0.004" fill="#babbbc" d="M 599.5,266.5 C 600.833,267.167 600.833,267.167 599.5,266.5 Z"/></g>
<g><path style="opacity:0.995" fill="#c3c3c3" d="M 479.5,322.5 C 479.5,323.833 479.5,325.167 479.5,326.5C 478.637,325.537 477.97,325.537 477.5,326.5C 478.146,337.628 478.813,348.628 479.5,359.5C 480.167,359.5 480.833,359.5 481.5,359.5C 501.5,359.5 521.5,359.5 541.5,359.5C 541.333,348.162 541.5,336.828 542,325.5C 542.438,322.624 543.438,319.957 545,317.5C 557.375,305.292 569.541,292.959 581.5,280.5C 585.73,276.1 590.397,272.266 595.5,269C 601.316,267.591 606.483,268.758 611,272.5C 614.883,279.675 613.383,285.342 606.5,289.5C 607.614,287.647 606.948,287.147 604.5,288C 590.758,302.74 576.758,317.073 562.5,331C 563.833,332.333 563.833,333.667 562.5,335C 563.094,335.464 563.761,335.631 564.5,335.5C 564.885,349.212 564.385,362.879 563,376.5C 562.215,378.286 561.049,379.786 559.5,381C 560.167,381.667 560.833,381.667 561.5,381C 562.733,379.333 564.067,377.833 565.5,376.5C 565.16,378.679 564.16,380.512 562.5,382C 559.361,383.728 556.028,384.894 552.5,385.5C 536.381,385.072 520.214,385.072 504,385.5C 490.402,384.842 476.902,384.175 463.5,383.5C 460.833,382.833 459.167,381.167 458.5,378.5C 458.167,376.5 457.833,374.5 457.5,372.5C 458.222,372.918 458.722,373.584 459,374.5C 459.813,366.92 459.647,359.42 458.5,352C 459.288,348.924 459.788,345.758 460,342.5C 461.914,341.324 461.748,340.324 459.5,339.5C 459.906,335.902 459.406,332.235 458,328.5C 455.139,324.674 453.973,324.674 454.5,328.5C 450.833,325.5 447.5,322.167 444.5,318.5C 443.5,315.5 441.5,313.5 438.5,312.5C 436.833,311.167 435.167,309.833 433.5,308.5C 426.202,300.702 418.702,293.035 411,285.5C 408.202,280.443 408.702,275.609 412.5,271C 418.472,267.735 424.472,267.735 430.5,271C 446.278,285.777 461.778,300.944 477,316.5C 478.559,318.217 479.392,320.217 479.5,322.5 Z"/></g>
<g><path style="opacity:0.004" fill="#c7c8c8" d="M 433.5,308.5 C 432.833,309.167 432.833,309.167 433.5,308.5 Z"/></g>
<g><path style="opacity:0.933" fill="#cac9ca" d="M 438.5,312.5 C 441.5,313.5 443.5,315.5 444.5,318.5C 442.167,316.833 440.167,314.833 438.5,312.5 Z"/></g>
<g><path style="opacity:0.959" fill="#c2c3c3" d="M 606.5,289.5 C 593.509,303.324 580.342,316.991 567,330.5C 566.831,345.672 566.331,360.672 565.5,375.5C 565.829,361.99 565.496,348.656 564.5,335.5C 563.761,335.631 563.094,335.464 562.5,335C 563.833,333.667 563.833,332.333 562.5,331C 576.758,317.073 590.758,302.74 604.5,288C 606.948,287.147 607.614,287.647 606.5,289.5 Z"/></g>
<g><path style="opacity:0.85" fill="#cccccd" d="M 479.5,322.5 C 481.248,334.62 481.915,346.953 481.5,359.5C 480.833,359.5 480.167,359.5 479.5,359.5C 479.5,348.5 479.5,337.5 479.5,326.5C 479.5,325.167 479.5,323.833 479.5,322.5 Z"/></g>
<g><path style="opacity:0.99" fill="#bdbdbe" d="M 457.5,372.5 C 457.667,358.163 457.5,343.829 457,329.5C 456.329,328.748 455.496,328.414 454.5,328.5C 453.973,324.674 455.139,324.674 458,328.5C 459.406,332.235 459.906,335.902 459.5,339.5C 461.748,340.324 461.914,341.324 460,342.5C 459.788,345.758 459.288,348.924 458.5,352C 459.647,359.42 459.813,366.92 459,374.5C 458.722,373.584 458.222,372.918 457.5,372.5 Z"/></g>
<g><path style="opacity:0.99" fill="#b6b7b7" d="M 543.5,323.5 C 544.124,323.917 544.457,324.584 544.5,325.5C 543.713,335.806 543.213,346.14 543,356.5C 542.235,345.466 542.401,334.466 543.5,323.5 Z"/></g>
<g><path style="opacity:0.994" fill="#bababa" d="M 479.5,326.5 C 479.5,337.5 479.5,348.5 479.5,359.5C 478.813,348.628 478.146,337.628 477.5,326.5C 477.97,325.537 478.637,325.537 479.5,326.5 Z"/></g>
<g><path style="opacity:0.004" fill="#bcbdbd" d="M 262.5,360.5 C 261.833,359.167 261.833,359.167 262.5,360.5 Z"/></g>
<g><path style="opacity:0.413" fill="#c9c9c9" d="M 267.5,360.5 C 309.167,359.167 350.833,359.167 392.5,360.5C 350.822,361.804 309.155,361.804 267.5,360.5 Z"/></g>
<g><path style="opacity:0.165" fill="#c8c9c9" d="M 766.5,367.5 C 764.129,364.628 761.129,362.794 757.5,362C 714.5,361.333 671.5,361.333 628.5,362C 627.263,362.232 626.263,362.732 625.5,363.5C 623.784,363.629 622.117,363.962 620.5,364.5C 621.749,362.864 623.416,361.697 625.5,361C 623.405,360.444 623.238,359.944 625,359.5C 668.774,359.369 712.607,359.536 756.5,360C 761.452,360.464 764.785,362.964 766.5,367.5 Z"/></g>
<g><path style="opacity:0.994" fill="#bab9ba" d="M 564.5,335.5 C 565.496,348.656 565.829,361.99 565.5,375.5C 565.5,375.833 565.5,376.167 565.5,376.5C 564.067,377.833 562.733,379.333 561.5,381C 560.833,381.667 560.167,381.667 559.5,381C 561.049,379.786 562.215,378.286 563,376.5C 564.385,362.879 564.885,349.212 564.5,335.5 Z"/></g>
<g><path style="opacity:0.995" fill="#c3c3c4" d="M 409.5,370.5 C 410.833,373.833 413.167,376.167 416.5,377.5C 418.167,381.167 420.833,383.833 424.5,385.5C 438.833,399.5 453.167,413.5 467.5,427.5C 468.251,428.573 469.251,428.74 470.5,428C 473.118,425.894 475.118,423.394 476.5,420.5C 481.224,414.773 486.558,409.773 492.5,405.5C 491.537,406.363 491.537,407.03 492.5,407.5C 493.5,407 494.5,406.5 495.5,406C 506.215,406.147 516.549,405.314 526.5,403.5C 528.255,404.072 529.922,404.906 531.5,406C 539.03,413.865 546.864,421.365 555,428.5C 556.039,427.29 557.206,426.29 558.5,425.5C 557.797,427.716 556.464,429.549 554.5,431C 555.167,431.667 555.833,431.667 556.5,431C 562.2,424.446 568.533,418.946 575.5,414.5C 575.351,413.448 575.517,412.448 576,411.5C 592.011,394.989 608.511,378.989 625.5,363.5C 626.263,362.732 627.263,362.232 628.5,362C 671.5,361.333 714.5,361.333 757.5,362C 761.129,362.794 764.129,364.628 766.5,367.5C 767.793,368.842 768.626,370.509 769,372.5C 769.667,392.167 769.667,411.833 769,431.5C 764.615,442.393 757.448,451.059 747.5,457.5C 747.157,455.775 746.157,455.275 744.5,456C 742.382,459.947 739.715,463.447 736.5,466.5C 735.5,468.5 734.5,470.5 733.5,472.5C 720.5,486.167 707.167,499.5 693.5,512.5C 694.203,510.284 695.536,508.451 697.5,507C 697.167,506.833 696.833,506.667 696.5,506.5C 694.116,508.885 691.45,510.885 688.5,512.5C 686.366,516.468 683.366,519.635 679.5,522C 680.819,522.195 682.153,522.028 683.5,521.5C 683.027,522.906 682.027,523.573 680.5,523.5C 677.873,524.105 675.207,524.605 672.5,525C 652.167,525.667 631.833,525.667 611.5,525C 607.325,524.815 603.325,523.981 599.5,522.5C 597.5,522.5 596.5,521.5 596.5,519.5C 595.352,516.318 594.019,513.151 592.5,510C 593.607,506.846 594.607,503.68 595.5,500.5C 600.833,493.167 607.167,486.833 614.5,481.5C 613.913,482.767 613.913,483.767 614.5,484.5C 616.52,480.981 619.52,478.814 623.5,478C 622.72,476.927 622.887,475.76 624,474.5C 637.253,461.582 650.587,448.582 664,435.5C 664.688,434.668 664.521,434.002 663.5,433.5C 662.378,434.63 661.044,435.297 659.5,435.5C 663.559,430.438 668.226,426.105 673.5,422.5C 675.5,421.167 677.167,419.5 678.5,417.5C 678.369,416.761 678.536,416.094 679,415.5C 681.305,413.179 683.805,411.179 686.5,409.5C 687.167,409.5 687.833,409.5 688.5,409.5C 695.241,405.084 702.408,404.417 710,407.5C 710.502,411.241 710.502,414.908 710,418.5C 710.671,417.748 711.504,417.414 712.5,417.5C 702.167,428.5 691.5,439.167 680.5,449.5C 678.5,449.5 677.5,450.5 677.5,452.5C 661.669,468.831 645.669,484.998 629.5,501C 642.771,502.818 656.104,502.984 669.5,501.5C 674.474,496.861 679.474,492.195 684.5,487.5C 681.437,492.072 677.77,496.239 673.5,500C 673.833,500.167 674.167,500.333 674.5,500.5C 681.745,493.608 688.745,486.608 695.5,479.5C 694.767,478.913 693.767,478.913 692.5,479.5C 697.833,473.5 703.5,467.833 709.5,462.5C 707.78,465.731 705.447,468.564 702.5,471C 703.167,471.667 703.833,471.667 704.5,471C 708.333,467.167 712.167,463.333 716,459.5C 716.528,458.184 716.028,457.517 714.5,457.5C 714.833,456.5 715.5,455.833 716.5,455.5C 719.833,453.167 723.167,450.833 726.5,448.5C 732.506,442.827 738.506,437.16 744.5,431.5C 746.415,429.929 747.415,427.929 747.5,425.5C 747.667,412.163 747.5,398.829 747,385.5C 746.399,383.641 745.566,383.308 744.5,384.5C 744.167,384.5 743.833,384.5 743.5,384.5C 743.5,384.167 743.5,383.833 743.5,383.5C 706.664,382.17 669.664,382.17 632.5,383.5C 632.957,384.298 633.624,384.631 634.5,384.5C 636.167,384.5 637.833,384.5 639.5,384.5C 637.708,385.309 635.708,385.809 633.5,386C 599.167,420.333 564.833,454.667 530.5,489C 551.31,510.813 572.644,532.48 594.5,554C 601.24,555.089 607.907,555.923 614.5,556.5C 592.065,556.9 592.232,557.9 615,559.5C 616.683,558.824 616.85,557.824 615.5,556.5C 617.853,557.34 619.853,558.674 621.5,560.5C 620.233,559.913 619.233,559.913 618.5,560.5C 620.439,562.122 620.772,563.956 619.5,566C 621.787,567.427 622.12,569.261 620.5,571.5C 622.348,573.972 622.348,576.139 620.5,578C 621.214,584.766 621.214,591.1 620.5,597C 621.167,599 621.833,601 622.5,603C 621.833,603.333 621.167,603.667 620.5,604C 621.833,606.667 621.833,609.333 620.5,612C 622.106,614.864 622.606,618.031 622,621.5C 622.232,620.263 622.732,619.263 623.5,618.5C 623.412,623.013 621.912,627.013 619,630.5C 602.446,645.721 586.613,661.554 571.5,678C 565.559,683.968 559.225,689.468 552.5,694.5C 554.471,690.693 553.471,690.526 549.5,694C 546.731,694.863 543.898,695.363 541,695.5C 530.395,695.105 519.562,694.772 508.5,694.5C 506.5,694.667 504.5,694.833 502.5,695C 500.68,695.2 499.347,696.034 498.5,697.5C 492.112,697.244 485.778,697.578 479.5,698.5C 473.717,697.547 468.717,695.047 464.5,691C 454.632,680.964 444.632,671.131 434.5,661.5C 434.167,660.833 433.833,660.167 433.5,659.5C 432.5,657.5 431.5,655.5 430.5,653.5C 423.202,645.702 415.702,638.035 408,630.5C 406.667,628.5 405.333,626.5 404,624.5C 403.952,627.413 404.785,630.079 406.5,632.5C 402.48,629.137 399.98,624.804 399,619.5C 398.171,601.662 398.338,583.995 399.5,566.5C 399.333,582.837 399.5,599.17 400,615.5C 400.118,618.371 400.784,621.038 402,623.5C 401.899,613.365 401.733,603.199 401.5,593C 401.386,583.11 401.886,573.277 403,563.5C 403.652,561.277 405.152,560.11 407.5,560C 413.803,559.058 420.137,558.391 426.5,558C 427.056,557.617 427.389,557.117 427.5,556.5C 429.367,555.24 430.7,553.573 431.5,551.5C 443.5,539.167 455.5,526.833 467.5,514.5C 476.341,506.493 484.674,497.993 492.5,489C 487.342,483.009 482.009,477.175 476.5,471.5C 476.5,471.167 476.5,470.833 476.5,470.5C 476.938,470.565 477.272,470.399 477.5,470C 471.634,464.469 466.134,458.635 461,452.5C 438.833,431.667 417.333,410.167 396.5,388C 394.922,386.906 393.255,386.072 391.5,385.5C 391.5,384.5 391.5,383.5 391.5,382.5C 388.833,382.5 386.167,382.5 383.5,382.5C 348.832,382.333 314.165,382.5 279.5,383C 278.069,383.465 276.903,384.299 276,385.5C 275.501,390.489 275.334,395.489 275.5,400.5C 275.334,409.506 275.5,418.506 276,427.5C 281.638,435.807 288.972,443.14 298,449.5C 298.464,448.906 298.631,448.239 298.5,447.5C 316.634,465.466 334.967,483.299 353.5,501C 359.453,501.998 365.453,502.498 371.5,502.5C 378.268,502.105 384.934,501.938 391.5,502C 392.167,501.667 392.833,501.333 393.5,501C 389.296,496.964 385.296,492.798 381.5,488.5C 382.847,489.028 384.181,489.195 385.5,489C 378.306,481.14 370.806,473.64 363,466.5C 363.483,468.537 364.316,470.537 365.5,472.5C 363.833,471.167 362.167,469.833 360.5,468.5C 359.5,467.167 358.5,465.833 357.5,464.5C 359.028,464.483 359.528,463.816 359,462.5C 353.5,457 348,451.5 342.5,446C 341.184,445.472 340.517,445.972 340.5,447.5C 339.5,446.833 338.5,446.167 337.5,445.5C 334.833,442.167 331.833,439.167 328.5,436.5C 326.5,434.167 324.5,431.833 322.5,429.5C 325.394,430.882 327.894,432.882 330,435.5C 330.167,435.167 330.333,434.833 330.5,434.5C 325.182,428.681 319.682,423.015 314,417.5C 312.543,414.634 312.21,411.634 313,408.5C 322.61,402.878 331.11,405.045 338.5,415C 339.167,415.667 339.833,415.667 340.5,415C 339.177,414.184 338.511,413.017 338.5,411.5C 369.383,440.881 399.883,470.881 430,501.5C 433.048,509.546 431.548,516.546 425.5,522.5C 423.95,523.441 422.284,524.107 420.5,524.5C 420.209,523.351 419.376,522.684 418,522.5C 394.52,523.642 371.02,523.808 347.5,523C 344.823,522.751 342.49,521.751 340.5,520C 337.616,516.414 334.283,513.748 330.5,512C 334.578,516.749 339.245,520.749 344.5,524C 366.164,524.5 387.831,524.667 409.5,524.5C 389.007,525.497 368.34,525.831 347.5,525.5C 342.38,524.94 338.046,522.773 334.5,519C 317.934,502.935 301.934,486.435 286.5,469.5C 289.435,472.093 292.435,474.76 295.5,477.5C 295.833,477.333 296.167,477.167 296.5,477C 294.291,475.127 292.458,472.96 291,470.5C 284.962,463.961 278.462,457.961 271.5,452.5C 272.925,453.922 273.925,455.589 274.5,457.5C 269.167,452.5 263.833,447.5 258.5,442.5C 257.227,440.287 256.227,437.954 255.5,435.5C 257.009,436.859 257.676,436.359 257.5,434C 256.694,412.853 256.194,391.687 256,370.5C 254.548,390.779 254.048,411.113 254.5,431.5C 253.338,412.338 253.171,393.004 254,373.5C 254.648,367.695 257.481,363.361 262.5,360.5C 264.167,360.5 265.833,360.5 267.5,360.5C 309.155,361.804 350.822,361.804 392.5,360.5C 394.575,360.302 396.575,360.135 398.5,360C 398.167,360.333 397.833,360.667 397.5,361C 401.975,363.65 405.975,366.817 409.5,370.5 Z M 531.5,453.5 C 528.5,455.833 525.833,458.5 523.5,461.5C 520.167,464.167 517.167,467.167 514.5,470.5C 513.262,471.412 511.928,471.579 510.5,471C 506.905,466.896 502.905,463.396 498.5,460.5C 498.167,459.5 497.5,458.833 496.5,458.5C 492.873,454.861 489.539,450.861 486.5,446.5C 492.466,440.199 498.466,433.866 504.5,427.5C 509.739,425.78 514.739,426.28 519.5,429C 525.5,435 531.5,441 537.5,447C 535.294,449.037 533.294,451.203 531.5,453.5 Z M 512.5,507.5 C 513.833,509.5 515.5,511.167 517.5,512.5C 518.5,513.833 519.5,515.167 520.5,516.5C 519.453,517.078 519.62,517.744 521,518.5C 521.399,518.272 521.565,517.938 521.5,517.5C 524.5,519.833 527.167,522.5 529.5,525.5C 530.833,526.5 532.167,527.5 533.5,528.5C 534.5,529.833 535.5,531.167 536.5,532.5C 544.167,539.833 551.833,547.167 559.5,554.5C 527.167,555.833 494.833,555.833 462.5,554.5C 478.325,539.175 493.992,523.675 509.5,508C 510.448,507.517 511.448,507.351 512.5,507.5 Z M 423.5,580.5 C 482.167,580.5 540.833,580.5 599.5,580.5C 600.071,589.16 600.071,597.494 599.5,605.5C 540.875,606.492 482.208,606.825 423.5,606.5C 422.754,599.088 422.42,591.421 422.5,583.5C 422.557,582.391 422.89,581.391 423.5,580.5 Z M 439.5,630.5 C 485.853,630.709 532.02,630.709 578,630.5C 579.5,630.833 581,631.167 582.5,631.5C 580.758,633.563 579.091,635.563 577.5,637.5C 574.478,638.522 572.478,640.522 571.5,643.5C 570.167,644.167 569.167,645.167 568.5,646.5C 562.224,651.107 556.557,656.441 551.5,662.5C 547.833,665.5 544.5,668.833 541.5,672.5C 540.508,672.328 539.842,672.662 539.5,673.5C 519.8,673.797 500.133,673.464 480.5,672.5C 478.167,669.5 475.5,666.833 472.5,664.5C 470.833,662.167 468.833,660.167 466.5,658.5C 462.833,654.167 458.833,650.167 454.5,646.5C 452.167,643.5 449.5,640.833 446.5,638.5C 444.167,635.833 441.833,633.167 439.5,630.5 Z"/></g>
<g><path style="opacity:0.396" fill="#cececf" d="M 454.5,328.5 C 455.496,328.414 456.329,328.748 457,329.5C 457.5,343.829 457.667,358.163 457.5,372.5C 457.833,374.5 458.167,376.5 458.5,378.5C 457.778,378.082 457.278,377.416 457,376.5C 456.81,370.584 456.31,364.751 455.5,359C 456.503,351.684 456.836,344.184 456.5,336.5C 456.711,333.514 456.044,330.847 454.5,328.5 Z"/></g>
<g><path style="opacity:0.008" fill="#c7cac8" d="M 613.5,369.5 C 612.833,368.167 612.833,368.167 613.5,369.5 Z"/></g>
<g><path style="opacity:0.587" fill="#cbcbcb" d="M 409.5,370.5 C 412.167,372.5 414.5,374.833 416.5,377.5C 413.167,376.167 410.833,373.833 409.5,370.5 Z"/></g>
<g><path style="opacity:0.937" fill="#c9c9ca" d="M 620.5,364.5 C 612.446,373.555 603.779,381.889 594.5,389.5C 596.5,387.167 598.5,384.833 600.5,382.5C 605.167,378.5 609.5,374.167 613.5,369.5C 615.573,367.42 617.907,365.754 620.5,364.5 Z"/></g>
<g><path style="opacity:0.914" fill="#cbcbcb" d="M 416.5,377.5 C 419.5,379.833 422.167,382.5 424.5,385.5C 420.833,383.833 418.167,381.167 416.5,377.5 Z"/></g>
<g><path style="opacity:0.004" fill="#c8cbc9" d="M 600.5,382.5 C 599.833,381.167 599.833,381.167 600.5,382.5 Z"/></g>
<g><path style="opacity:0.977" fill="#b9b9b9" d="M 383.5,382.5 C 356.167,383.167 328.833,383.833 301.5,384.5C 294.833,384.5 288.167,384.5 281.5,384.5C 279.821,384.285 278.821,384.952 278.5,386.5C 277.505,398.322 277.172,410.322 277.5,422.5C 276.833,415.167 276.167,407.833 275.5,400.5C 275.334,395.489 275.501,390.489 276,385.5C 276.903,384.299 278.069,383.465 279.5,383C 314.165,382.5 348.832,382.333 383.5,382.5 Z"/></g>
<g><path style="opacity:0.987" fill="#b8b8b8" d="M 463.5,383.5 C 463.47,382.503 463.97,381.836 465,381.5C 495.804,382.322 526.637,382.822 557.5,383C 526.168,383.5 494.835,383.667 463.5,383.5 Z"/></g>
<g><path style="opacity:0.987" fill="#b8b8b8" d="M 743.5,383.5 C 732.654,383.172 721.987,383.506 711.5,384.5C 710.167,384.5 708.833,384.5 707.5,384.5C 683.167,383.167 658.833,383.167 634.5,384.5C 633.624,384.631 632.957,384.298 632.5,383.5C 669.664,382.17 706.664,382.17 743.5,383.5 Z"/></g>
<g><path style="opacity:0.946" fill="#bfbfbf" d="M 383.5,382.5 C 386.167,382.5 388.833,382.5 391.5,382.5C 391.5,383.5 391.5,384.5 391.5,385.5C 390.833,385.5 390.167,385.5 389.5,385.5C 360.007,384.523 330.673,384.19 301.5,384.5C 328.833,383.833 356.167,383.167 383.5,382.5 Z"/></g>
<g><path style="opacity:0.949" fill="#bfbfbf" d="M 634.5,384.5 C 658.833,383.167 683.167,383.167 707.5,384.5C 684.738,384.879 662.071,384.879 639.5,384.5C 637.833,384.5 636.167,384.5 634.5,384.5 Z"/></g>
<g><path style="opacity:0.953" fill="#bebdbe" d="M 711.5,384.5 C 721.987,383.506 732.654,383.172 743.5,383.5C 743.5,383.833 743.5,384.167 743.5,384.5C 742.833,384.5 742.167,384.5 741.5,384.5C 731.656,384.68 721.656,384.68 711.5,384.5 Z"/></g>
<g><path style="opacity:0.122" fill="#d1d1d3" d="M 281.5,384.5 C 280.71,385.401 279.71,386.068 278.5,386.5C 278.821,384.952 279.821,384.285 281.5,384.5 Z"/></g>
<g><path style="opacity:0.988" fill="#c0c0c1" d="M 625.5,363.5 C 608.511,378.989 592.011,394.989 576,411.5C 575.517,412.448 575.351,413.448 575.5,414.5C 568.533,418.946 562.2,424.446 556.5,431C 555.833,431.667 555.167,431.667 554.5,431C 556.464,429.549 557.797,427.716 558.5,425.5C 570.167,413.167 582.167,401.167 594.5,389.5C 603.779,381.889 612.446,373.555 620.5,364.5C 622.117,363.962 623.784,363.629 625.5,363.5 Z"/></g>
<g><path style="opacity:0.984" fill="#bcbcbd" d="M 255.5,435.5 C 254.766,434.292 254.433,432.959 254.5,431.5C 254.048,411.113 254.548,390.779 256,370.5C 256.194,391.687 256.694,412.853 257.5,434C 257.676,436.359 257.009,436.859 255.5,435.5 Z"/></g>
<g><path style="opacity:0.991" fill="#bfbebf" d="M 391.5,385.5 C 393.255,386.072 394.922,386.906 396.5,388C 417.333,410.167 438.833,431.667 461,452.5C 466.134,458.635 471.634,464.469 477.5,470C 477.272,470.399 476.938,470.565 476.5,470.5C 473.5,467.833 470.5,465.167 467.5,462.5C 460.5,454.833 453.167,447.5 445.5,440.5C 442.437,436.434 438.771,433.101 434.5,430.5C 434.631,429.761 434.464,429.094 434,428.5C 419.631,414.299 405.465,399.965 391.5,385.5 Z"/></g>
<g><path style="opacity:0.007" fill="#cbc9cb" d="M 507.5,401.5 C 508.251,400.427 509.251,400.26 510.5,401C 509.552,401.483 508.552,401.649 507.5,401.5 Z"/></g>
<g><path style="opacity:0.004" fill="#c8c9c8" d="M 515.5,400.5 C 516.833,401.167 516.833,401.167 515.5,400.5 Z"/></g>
<g><path style="opacity:0.004" fill="#c9c9c8" d="M 517.5,401.5 C 517.897,400.475 518.563,400.308 519.5,401C 518.906,401.464 518.239,401.631 517.5,401.5 Z"/></g>
<g><path style="opacity:0.004" fill="#cacaca" d="M 521.5,400.5 C 522.833,401.167 522.833,401.167 521.5,400.5 Z"/></g>
<g><path style="opacity:0.004" fill="#cacaca" d="M 523.5,400.5 C 524.833,401.167 524.833,401.167 523.5,400.5 Z"/></g>
<g><path style="opacity:0.963" fill="#c6c7c8" d="M 745.5,386.5 C 746.495,399.323 746.829,412.323 746.5,425.5C 745.145,428.855 742.811,431.189 739.5,432.5C 740.793,430.704 742.293,429.037 744,427.5C 745.138,424.713 745.638,422.047 745.5,419.5C 745.5,408.5 745.5,397.5 745.5,386.5 Z"/></g>
<g><path style="opacity:0.646" fill="#cecdce" d="M 708.5,403.5 C 702.365,403.177 696.365,403.844 690.5,405.5C 691.347,404.034 692.68,403.2 694.5,403C 699.352,402.185 704.019,402.352 708.5,403.5 Z"/></g>
<g><path style="opacity:0.984" fill="#bfbebe" d="M 328.5,403.5 C 331.539,406.54 334.873,409.206 338.5,411.5C 338.511,413.017 339.177,414.184 340.5,415C 339.833,415.667 339.167,415.667 338.5,415C 331.11,405.045 322.61,402.878 313,408.5C 312.21,411.634 312.543,414.634 314,417.5C 319.682,423.015 325.182,428.681 330.5,434.5C 330.333,434.833 330.167,435.167 330,435.5C 327.894,432.882 325.394,430.882 322.5,429.5C 321.833,426.833 320.167,425.167 317.5,424.5C 316.167,423.5 314.833,422.5 313.5,421.5C 312.4,420.395 311.733,419.062 311.5,417.5C 309.535,411.156 311.535,406.656 317.5,404C 321.152,403.501 324.818,403.335 328.5,403.5 Z"/></g>
<g><path style="opacity:0.607" fill="#cccccd" d="M 389.5,385.5 C 390.167,385.5 390.833,385.5 391.5,385.5C 405.465,399.965 419.631,414.299 434,428.5C 434.464,429.094 434.631,429.761 434.5,430.5C 426.167,422.5 417.833,414.5 409.5,406.5C 402.833,399.5 396.167,392.5 389.5,385.5 Z"/></g>
<g><path style="opacity:0.976" fill="#c4c3c4" d="M 526.5,403.5 C 516.549,405.314 506.215,406.147 495.5,406C 494.5,406.5 493.5,407 492.5,407.5C 491.537,407.03 491.537,406.363 492.5,405.5C 493.058,404.21 494.058,403.377 495.5,403C 506.008,402.175 516.342,402.341 526.5,403.5 Z"/></g>
<g><path style="opacity:0.984" fill="#c0bfbf" d="M 708.5,403.5 C 710.5,403.5 711.5,404.5 711.5,406.5C 712.324,409.764 712.658,413.098 712.5,416.5C 712.5,416.833 712.5,417.167 712.5,417.5C 711.504,417.414 710.671,417.748 710,418.5C 710.502,414.908 710.502,411.241 710,407.5C 702.408,404.417 695.241,405.084 688.5,409.5C 689.167,408.167 689.833,406.833 690.5,405.5C 696.365,403.844 702.365,403.177 708.5,403.5 Z"/></g>
<g><path style="opacity:0.979" fill="#c9caca" d="M 328.5,403.5 C 324.818,403.335 321.152,403.501 317.5,404C 311.535,406.656 309.535,411.156 311.5,417.5C 310.883,417.389 310.383,417.056 310,416.5C 307.998,410.315 309.831,405.815 315.5,403C 320.02,402.186 324.354,402.353 328.5,403.5 Z"/></g>
<g><path style="opacity:0.753" fill="#cbcbcb" d="M 328.5,403.5 C 332.704,405.033 336.037,407.7 338.5,411.5C 334.873,409.206 331.539,406.54 328.5,403.5 Z"/></g>
<g><path style="opacity:0.021" fill="#cfd0d1" d="M 741.5,384.5 C 742.167,384.5 742.833,384.5 743.5,384.5C 743.833,384.5 744.167,384.5 744.5,384.5C 745.338,384.842 745.672,385.508 745.5,386.5C 745.5,397.5 745.5,408.5 745.5,419.5C 744.822,410.098 744.155,400.598 743.5,391C 744.406,389.301 744.739,387.467 744.5,385.5C 743.209,385.737 742.209,385.404 741.5,384.5 Z"/></g>
<g><path style="opacity:0.004" fill="#c8c9c8" d="M 409.5,406.5 C 408.833,407.167 408.833,407.167 409.5,406.5 Z"/></g>
<g><path style="opacity:0.953" fill="#c9cac9" d="M 690.5,405.5 C 689.833,406.833 689.167,408.167 688.5,409.5C 687.833,409.5 687.167,409.5 686.5,409.5C 686.957,407.227 688.29,405.894 690.5,405.5 Z"/></g>
<g><path style="opacity:0.99" fill="#b7b7b8" d="M 744.5,384.5 C 745.566,383.308 746.399,383.641 747,385.5C 747.5,398.829 747.667,412.163 747.5,425.5C 747.167,425.5 746.833,425.5 746.5,425.5C 746.829,412.323 746.495,399.323 745.5,386.5C 745.672,385.508 745.338,384.842 744.5,384.5 Z"/></g>
<g><path style="opacity:0.901" fill="#c8c9c9" d="M 711.5,406.5 C 714.784,409.605 715.117,412.939 712.5,416.5C 712.658,413.098 712.324,409.764 711.5,406.5 Z"/></g>
<g><path style="opacity:0.363" fill="#d0d1d2" d="M 278.5,386.5 C 278.69,400.158 278.69,413.824 278.5,427.5C 277.549,426.081 277.216,424.415 277.5,422.5C 277.172,410.322 277.505,398.322 278.5,386.5 Z"/></g>
<g><path style="opacity:0.49" fill="#cbcaca" d="M 678.5,417.5 C 677.167,419.5 675.5,421.167 673.5,422.5C 674.167,419.833 675.833,418.167 678.5,417.5 Z"/></g>
<g><path style="opacity:0.004" fill="#c7caca" d="M 313.5,421.5 C 312.833,422.167 312.833,422.167 313.5,421.5 Z"/></g>
<g><path style="opacity:0.969" fill="#cac9ca" d="M 317.5,424.5 C 320.167,425.167 321.833,426.833 322.5,429.5C 320.5,428.167 318.833,426.5 317.5,424.5 Z"/></g>
<g><path style="opacity:0.969" fill="#cbcbcd" d="M 476.5,420.5 C 475.118,423.394 473.118,425.894 470.5,428C 469.251,428.74 468.251,428.573 467.5,427.5C 470.767,425.573 473.767,423.239 476.5,420.5 Z"/></g>
<g><path style="opacity:0.982" fill="#b8b8b8" d="M 504.5,427.5 C 501.887,426.905 501.887,426.071 504.5,425C 508.617,423.824 512.617,423.824 516.5,425C 513.167,425.333 509.833,425.667 506.5,426C 505.584,426.278 504.918,426.778 504.5,427.5 Z"/></g>
<g><path style="opacity:0.995" fill="#bdbdbe" d="M 746.5,425.5 C 746.833,425.5 747.167,425.5 747.5,425.5C 747.415,427.929 746.415,429.929 744.5,431.5C 738.506,437.16 732.506,442.827 726.5,448.5C 730.833,443.167 735.167,437.833 739.5,432.5C 742.811,431.189 745.145,428.855 746.5,425.5 Z"/></g>
<g><path style="opacity:0.986" fill="#c0c0c0" d="M 275.5,400.5 C 276.167,407.833 276.833,415.167 277.5,422.5C 277.216,424.415 277.549,426.081 278.5,427.5C 285.194,434.194 291.86,440.86 298.5,447.5C 298.631,448.239 298.464,448.906 298,449.5C 288.972,443.14 281.638,435.807 276,427.5C 275.5,418.506 275.334,409.506 275.5,400.5 Z"/></g>
<g><path style="opacity:0.004" fill="#c8c9cb" d="M 658.5,435.5 C 657.833,434.167 657.833,434.167 658.5,435.5 Z"/></g>
<g><path style="opacity:0.467" fill="#cbcbcb" d="M 434.5,430.5 C 438.771,433.101 442.437,436.434 445.5,440.5C 441.229,437.899 437.563,434.566 434.5,430.5 Z"/></g>
<g><path style="opacity:0.004" fill="#c7cbca" d="M 328.5,436.5 C 327.833,437.167 327.833,437.167 328.5,436.5 Z"/></g>
<g><path style="opacity:0.949" fill="#c8c8c8" d="M 658.5,435.5 C 658.833,435.5 659.167,435.5 659.5,435.5C 652.76,443.745 645.427,451.578 637.5,459C 636.906,459.464 636.239,459.631 635.5,459.5C 643.167,451.5 650.833,443.5 658.5,435.5 Z"/></g>
<g><path style="opacity:0.031" fill="#cccccc" d="M 445.5,440.5 C 453.167,447.5 460.5,454.833 467.5,462.5C 466.761,462.631 466.094,462.464 465.5,462C 458.239,455.244 451.572,448.078 445.5,440.5 Z"/></g>
<g><path style="opacity:0.004" fill="#c0c0c1" d="M 258.5,442.5 C 257.833,443.167 257.833,443.167 258.5,442.5 Z"/></g>
<g><path style="opacity:0.004" fill="#cacbcc" d="M 337.5,445.5 C 336.833,446.167 336.833,446.167 337.5,445.5 Z"/></g>
<g><path style="opacity:0.996" fill="#bab9b9" d="M 271.5,452.5 C 266.638,448.822 262.805,444.488 260,439.5C 264.436,443.428 268.269,447.761 271.5,452.5 Z"/></g>
<g><path style="opacity:0.945" fill="#cccbcc" d="M 340.5,447.5 C 344.5,449.5 347.5,452.5 349.5,456.5C 346.167,453.833 343.167,450.833 340.5,447.5 Z"/></g>
<g><path style="opacity:0.949" fill="#cacaca" d="M 739.5,432.5 C 735.167,437.833 730.833,443.167 726.5,448.5C 723.167,450.833 719.833,453.167 716.5,455.5C 723.833,447.5 731.5,439.833 739.5,432.5 Z"/></g>
<g><path style="opacity:0.059" fill="#cdcecf" d="M 680.5,449.5 C 679.833,450.833 678.833,451.833 677.5,452.5C 677.5,450.5 678.5,449.5 680.5,449.5 Z"/></g>
<g><path style="opacity:0.996" fill="#bfbebf" d="M 271.5,452.5 C 278.462,457.961 284.962,463.961 291,470.5C 292.458,472.96 294.291,475.127 296.5,477C 296.167,477.167 295.833,477.333 295.5,477.5C 292.435,474.76 289.435,472.093 286.5,469.5C 282.167,465.833 278.167,461.833 274.5,457.5C 273.925,455.589 272.925,453.922 271.5,452.5 Z"/></g>
<g><path style="opacity:0.984" fill="#bcbbbc" d="M 357.5,464.5 C 355.833,460.833 353.167,458.167 349.5,456.5C 347.5,452.5 344.5,449.5 340.5,447.5C 340.517,445.972 341.184,445.472 342.5,446C 348,451.5 353.5,457 359,462.5C 359.528,463.816 359.028,464.483 357.5,464.5 Z"/></g>
<g><path style="opacity:0.004" fill="#c8cbc9" d="M 632.5,455.5 C 633.833,456.167 633.833,456.167 632.5,455.5 Z"/></g>
<g><path style="opacity:0.976" fill="#cbcccc" d="M 349.5,456.5 C 353.167,458.167 355.833,460.833 357.5,464.5C 354.5,462.167 351.833,459.5 349.5,456.5 Z"/></g>
<g><path style="opacity:1" fill="#c8c8c9" d="M 531.5,453.5 C 529.833,457.167 527.167,459.833 523.5,461.5C 525.833,458.5 528.5,455.833 531.5,453.5 Z"/></g>
<g><path style="opacity:0.982" fill="#bebebe" d="M 614.5,481.5 C 614.5,481.167 614.5,480.833 614.5,480.5C 621.167,475.833 626.833,470.167 631.5,463.5C 632.5,461.833 633.833,460.5 635.5,459.5C 636.239,459.631 636.906,459.464 637.5,459C 645.427,451.578 652.76,443.745 659.5,435.5C 661.044,435.297 662.378,434.63 663.5,433.5C 664.521,434.002 664.688,434.668 664,435.5C 650.587,448.582 637.253,461.582 624,474.5C 622.887,475.76 622.72,476.927 623.5,478C 619.52,478.814 616.52,480.981 614.5,484.5C 613.913,483.767 613.913,482.767 614.5,481.5 Z"/></g>
<g><path style="opacity:0.949" fill="#c9c9ca" d="M 714.5,457.5 C 713.833,460.167 712.167,461.833 709.5,462.5C 710.833,460.5 712.5,458.833 714.5,457.5 Z"/></g>
<g><path style="opacity:0.984" fill="#bebdbc" d="M 747.5,457.5 C 747.167,458.5 746.5,459.167 745.5,459.5C 742.767,462.239 739.767,464.573 736.5,466.5C 739.715,463.447 742.382,459.947 744.5,456C 746.157,455.275 747.157,455.775 747.5,457.5 Z"/></g>
<g><path style="opacity:0.99" fill="#bdbcbd" d="M 714.5,457.5 C 716.028,457.517 716.528,458.184 716,459.5C 712.167,463.333 708.333,467.167 704.5,471C 703.833,471.667 703.167,471.667 702.5,471C 705.447,468.564 707.78,465.731 709.5,462.5C 712.167,461.833 713.833,460.167 714.5,457.5 Z"/></g>
<g><path style="opacity:0.99" fill="#bebebe" d="M 531.5,453.5 C 533.646,453.696 533.812,454.696 532,456.5C 527.299,460.866 522.966,465.533 519,470.5C 516.579,472.594 513.912,474.26 511,475.5C 505.5,470 500,464.5 494.5,459C 495.094,458.536 495.761,458.369 496.5,458.5C 497.5,458.833 498.167,459.5 498.5,460.5C 502.256,465.427 506.756,469.427 512,472.5C 513.376,472.316 514.209,471.649 514.5,470.5C 518.5,468.5 521.5,465.5 523.5,461.5C 527.167,459.833 529.833,457.167 531.5,453.5 Z"/></g>
<g><path style="opacity:0.61" fill="#cccccc" d="M 498.5,460.5 C 502.905,463.396 506.905,466.896 510.5,471C 511.928,471.579 513.262,471.412 514.5,470.5C 514.209,471.649 513.376,472.316 512,472.5C 506.756,469.427 502.256,465.427 498.5,460.5 Z"/></g>
<g><path style="opacity:0.024" fill="#cccccd" d="M 467.5,462.5 C 470.5,465.167 473.5,467.833 476.5,470.5C 476.5,470.833 476.5,471.167 476.5,471.5C 472.5,469.5 469.5,466.5 467.5,462.5 Z"/></g>
<g><path style="opacity:0.996" fill="#c8c8c8" d="M 523.5,461.5 C 521.5,465.5 518.5,468.5 514.5,470.5C 517.167,467.167 520.167,464.167 523.5,461.5 Z"/></g>
<g><path style="opacity:0.008" fill="#c8cccb" d="M 360.5,468.5 C 359.833,469.167 359.833,469.167 360.5,468.5 Z"/></g>
<g><path style="opacity:0.078" fill="#c7c6c7" d="M 745.5,459.5 C 742.23,464.44 738.23,468.773 733.5,472.5C 734.5,470.5 735.5,468.5 736.5,466.5C 739.767,464.573 742.767,462.239 745.5,459.5 Z"/></g>
<g><path style="opacity:0.906" fill="#cbcbcb" d="M 365.5,472.5 C 369.167,474.167 371.833,476.833 373.5,480.5C 370.5,478.167 367.833,475.5 365.5,472.5 Z"/></g>
<g><path style="opacity:0.886" fill="#c8c7c8" d="M 631.5,463.5 C 626.833,470.167 621.167,475.833 614.5,480.5C 619.833,474.5 625.5,468.833 631.5,463.5 Z"/></g>
<g><path style="opacity:0.004" fill="#c9cac8" d="M 367.5,478.5 C 368.833,479.167 368.833,479.167 367.5,478.5 Z"/></g>
<g><path style="opacity:0.953" fill="#cdcbcc" d="M 373.5,480.5 C 377.167,482.167 379.833,484.833 381.5,488.5C 380.167,487.5 378.833,486.5 377.5,485.5C 376.167,483.833 374.833,482.167 373.5,480.5 Z"/></g>
<g><path style="opacity:0.937" fill="#c9c9c9" d="M 692.5,479.5 C 690.833,483.167 688.167,485.833 684.5,487.5C 686.833,484.5 689.5,481.833 692.5,479.5 Z"/></g>
<g><path style="opacity:0.004" fill="#c9cbca" d="M 377.5,485.5 C 376.833,486.167 376.833,486.167 377.5,485.5 Z"/></g>
<g><path style="opacity:0.988" fill="#bdbcbc" d="M 381.5,488.5 C 379.833,484.833 377.167,482.167 373.5,480.5C 371.833,476.833 369.167,474.167 365.5,472.5C 364.316,470.537 363.483,468.537 363,466.5C 370.806,473.64 378.306,481.14 385.5,489C 384.181,489.195 382.847,489.028 381.5,488.5 Z"/></g>
<g><path style="opacity:0.004" fill="#c8cbc8" d="M 376.5,486.5 C 375.833,487.167 375.833,487.167 376.5,486.5 Z"/></g>
<g><path style="opacity:0.004" fill="#cbccca" d="M 532.5,488.5 C 533.833,489.167 533.833,489.167 532.5,488.5 Z"/></g>
<g><path style="opacity:0.993" fill="#bdbdbd" d="M 684.5,487.5 C 688.167,485.833 690.833,483.167 692.5,479.5C 693.767,478.913 694.767,478.913 695.5,479.5C 688.745,486.608 681.745,493.608 674.5,500.5C 674.167,500.333 673.833,500.167 673.5,500C 677.77,496.239 681.437,492.072 684.5,487.5 Z"/></g>
<g><path style="opacity:0.008" fill="#c9ccc9" d="M 534.5,492.5 C 535.833,493.167 535.833,493.167 534.5,492.5 Z"/></g>
<g><path style="opacity:0.992" fill="#bcbcbd" d="M 352.5,503.5 C 353.274,502.853 354.274,502.52 355.5,502.5C 368.815,503.279 382.148,503.779 395.5,504C 391.247,504.2 387.08,504.7 383,505.5C 372.834,504.822 362.667,504.155 352.5,503.5 Z"/></g>
<g><path style="opacity:0.996" fill="#cccccd" d="M 595.5,500.5 C 594.607,503.68 593.607,506.846 592.5,510C 594.019,513.151 595.352,516.318 596.5,519.5C 595.5,518.833 594.5,518.167 593.5,517.5C 591.151,512.918 590.984,508.251 593,503.5C 593.377,502.058 594.21,501.058 595.5,500.5 Z"/></g>
<g><path style="opacity:0.993" fill="#bdbdbe" d="M 669.5,501.5 C 673.236,501.66 673.236,502.493 669.5,504C 662.783,504.204 656.117,504.704 649.5,505.5C 642.186,504.317 634.686,504.317 627,505.5C 623.768,502.886 624.101,500.552 628,498.5C 628.684,499.784 628.517,500.951 627.5,502C 628.5,502.333 629.5,502.667 630.5,503C 643.167,503.667 655.833,503.667 668.5,503C 669.056,502.617 669.389,502.117 669.5,501.5 Z"/></g>
<g><path style="opacity:0.886" fill="#cccccc" d="M 512.5,507.5 C 515.167,508.167 516.833,509.833 517.5,512.5C 515.5,511.167 513.833,509.5 512.5,507.5 Z"/></g>
<g><path style="opacity:0.004" fill="#c8c9c9" d="M 467.5,514.5 C 466.833,513.167 466.833,513.167 467.5,514.5 Z"/></g>
<g><path style="opacity:0.02" fill="#c9c9ca" d="M 693.5,512.5 C 690.769,516.234 687.436,519.234 683.5,521.5C 686.231,517.766 689.564,514.766 693.5,512.5 Z"/></g>
<g><path style="opacity:0.99" fill="#bcbbbc" d="M 693.5,512.5 C 689.564,514.766 686.231,517.766 683.5,521.5C 682.153,522.028 680.819,522.195 679.5,522C 683.366,519.635 686.366,516.468 688.5,512.5C 691.45,510.885 694.116,508.885 696.5,506.5C 696.833,506.667 697.167,506.833 697.5,507C 695.536,508.451 694.203,510.284 693.5,512.5 Z"/></g>
<g><path style="opacity:0.137" fill="#cdcccd" d="M 517.5,512.5 C 523.833,516.833 529.167,522.167 533.5,528.5C 532.167,527.5 530.833,526.5 529.5,525.5C 527.167,522.5 524.5,519.833 521.5,517.5C 521.5,516.833 521.167,516.5 520.5,516.5C 519.5,515.167 518.5,513.833 517.5,512.5 Z"/></g>
<g><path style="opacity:0.004" fill="#c9cacb" d="M 593.5,517.5 C 592.833,518.167 592.833,518.167 593.5,517.5 Z"/></g>
<g><path style="opacity:0.008" fill="#c3c4c2" d="M 335.5,522.5 C 336.833,523.167 336.833,523.167 335.5,522.5 Z"/></g>
<g><path style="opacity:0.004" fill="#c7cac9" d="M 425.5,522.5 C 426.833,523.167 426.833,523.167 425.5,522.5 Z"/></g>
<g><path style="opacity:0.971" fill="#bababa" d="M 420.5,524.5 C 416.833,524.5 413.167,524.5 409.5,524.5C 387.831,524.667 366.164,524.5 344.5,524C 339.245,520.749 334.578,516.749 330.5,512C 334.283,513.748 337.616,516.414 340.5,520C 342.49,521.751 344.823,522.751 347.5,523C 371.02,523.808 394.52,523.642 418,522.5C 419.376,522.684 420.209,523.351 420.5,524.5 Z"/></g>
<g><path style="opacity:0.373" fill="#cacbcb" d="M 599.5,522.5 C 603.325,523.981 607.325,524.815 611.5,525C 631.833,525.667 652.167,525.667 672.5,525C 675.207,524.605 677.873,524.105 680.5,523.5C 680.167,524.167 679.833,524.833 679.5,525.5C 653.822,526.981 628.155,526.814 602.5,525C 601.058,524.623 600.058,523.79 599.5,522.5 Z"/></g>
<g><path style="opacity:0.342" fill="#c9caca" d="M 409.5,524.5 C 413.167,524.5 416.833,524.5 420.5,524.5C 419.737,525.268 418.737,525.768 417.5,526C 393.996,526.83 370.663,526.663 347.5,525.5C 368.34,525.831 389.007,525.497 409.5,524.5 Z"/></g>
<g><path style="opacity:0.004" fill="#c3c4c5" d="M 679.5,525.5 C 680.833,526.167 680.833,526.167 679.5,525.5 Z"/></g>
<g><path style="opacity:0.008" fill="#cdcccd" d="M 533.5,528.5 C 543.113,536.445 552.113,545.111 560.5,554.5C 560.167,554.5 559.833,554.5 559.5,554.5C 551.833,547.167 544.167,539.833 536.5,532.5C 535.5,531.167 534.5,529.833 533.5,528.5 Z"/></g>
<g><path style="opacity:0.987" fill="#bdbdbd" d="M 560.5,555.5 C 560.5,555.167 560.5,554.833 560.5,554.5C 552.113,545.111 543.113,536.445 533.5,528.5C 529.167,522.167 523.833,516.833 517.5,512.5C 516.833,509.833 515.167,508.167 512.5,507.5C 512.351,506.448 512.517,505.448 513,504.5C 529.36,520.194 545.36,536.194 561,552.5C 561.74,553.749 561.573,554.749 560.5,555.5 Z"/></g>
<g><path style="opacity:0.153" fill="#d1d1d2" d="M 431.5,551.5 C 430.7,553.573 429.367,555.24 427.5,556.5C 421.167,556.5 414.833,556.5 408.5,556.5C 414.319,555.672 420.319,555.172 426.5,555C 428.196,553.824 429.862,552.657 431.5,551.5 Z"/></g>
<g><path style="opacity:0.134" fill="#d5d5d6" d="M 462.5,554.5 C 494.833,555.833 527.167,555.833 559.5,554.5C 559.833,554.5 560.167,554.5 560.5,554.5C 560.5,554.833 560.5,555.167 560.5,555.5C 560.5,555.833 560.5,556.167 560.5,556.5C 527.167,556.5 493.833,556.5 460.5,556.5C 460.833,555.5 461.5,554.833 462.5,554.5 Z"/></g>
<g><path style="opacity:0.976" fill="#bcbcbd" d="M 460.5,556.5 C 493.833,556.5 527.167,556.5 560.5,556.5C 563.097,556.721 563.097,557.221 560.5,558C 526.833,558.667 493.167,558.667 459.5,558C 460.056,557.617 460.389,557.117 460.5,556.5 Z"/></g>
<g><path style="opacity:0.978" fill="#bdbdbd" d="M 614.5,556.5 C 614.833,556.5 615.167,556.5 615.5,556.5C 616.85,557.824 616.683,558.824 615,559.5C 592.232,557.9 592.065,556.9 614.5,556.5 Z"/></g>
<g><path style="opacity:0.004" fill="#c7cac8" d="M 400.5,560.5 C 399.833,559.167 399.833,559.167 400.5,560.5 Z"/></g>
<g><path style="opacity:0.989" fill="#c2c2c3" d="M 621.5,560.5 C 622.931,562.189 623.764,564.189 624,566.5C 624.818,583.907 624.652,601.24 623.5,618.5C 622.732,619.263 622.232,620.263 622,621.5C 622.606,618.031 622.106,614.864 620.5,612C 621.833,609.333 621.833,606.667 620.5,604C 621.167,603.667 621.833,603.333 622.5,603C 621.833,601 621.167,599 620.5,597C 621.214,591.1 621.214,584.766 620.5,578C 622.348,576.139 622.348,573.972 620.5,571.5C 622.12,569.261 621.787,567.427 619.5,566C 620.772,563.956 620.439,562.122 618.5,560.5C 619.233,559.913 620.233,559.913 621.5,560.5 Z"/></g>
<g><path style="opacity:0.737" fill="#cbcbcd" d="M 403.5,558.5 C 402.147,561.205 400.814,563.872 399.5,566.5C 399.517,564.435 399.85,562.435 400.5,560.5C 401.5,559.833 402.5,559.167 403.5,558.5 Z"/></g>
<g><path style="opacity:0.986" fill="#bebebf" d="M 408.5,556.5 C 414.833,556.5 421.167,556.5 427.5,556.5C 427.389,557.117 427.056,557.617 426.5,558C 420.137,558.391 413.803,559.058 407.5,560C 405.152,560.11 403.652,561.277 403,563.5C 401.886,573.277 401.386,583.11 401.5,593C 401.733,603.199 401.899,613.365 402,623.5C 400.784,621.038 400.118,618.371 400,615.5C 399.5,599.17 399.333,582.837 399.5,566.5C 400.814,563.872 402.147,561.205 403.5,558.5C 404.78,557.069 406.447,556.402 408.5,556.5 Z"/></g>
<g><path style="opacity:0.984" fill="#bdbcbc" d="M 423.5,580.5 C 422.89,581.391 422.557,582.391 422.5,583.5C 421.508,590.982 421.175,598.648 421.5,606.5C 420.367,604.945 419.701,603.111 419.5,601C 420.562,596.52 420.562,592.02 419.5,587.5C 419.542,584.741 420.042,582.075 421,579.5C 421.75,578.874 422.584,578.374 423.5,578C 482.545,577.016 541.545,577.349 600.5,579C 541.332,579.167 482.332,579.667 423.5,580.5 Z"/></g>
<g><path style="opacity:0.406" fill="#cfd0d1" d="M 599.5,580.5 C 600.268,581.263 600.768,582.263 601,583.5C 601.667,590.5 601.667,597.5 601,604.5C 600.617,605.056 600.117,605.389 599.5,605.5C 600.071,597.494 600.071,589.16 599.5,580.5 Z"/></g>
<g><path style="opacity:0.534" fill="#d5d6d7" d="M 422.5,583.5 C 422.42,591.421 422.754,599.088 423.5,606.5C 422.833,606.5 422.167,606.5 421.5,606.5C 421.175,598.648 421.508,590.982 422.5,583.5 Z"/></g>
<g><path style="opacity:0.675" fill="#cbcccc" d="M 599.5,605.5 C 599.167,606.167 598.833,606.833 598.5,607.5C 539.998,607.832 481.664,607.499 423.5,606.5C 482.208,606.825 540.875,606.492 599.5,605.5 Z"/></g>
<g><path style="opacity:0.987" fill="#bdbdbe" d="M 421.5,606.5 C 422.167,606.5 422.833,606.5 423.5,606.5C 481.664,607.499 539.998,607.832 598.5,607.5C 599.043,607.56 599.376,607.893 599.5,608.5C 582.667,608.833 565.833,609.167 549,609.5C 514.94,608.735 481.44,608.735 448.5,609.5C 440.833,609.333 433.167,609.167 425.5,609C 423.68,608.8 422.347,607.966 421.5,606.5 Z"/></g>
<g><path style="opacity:0.008" fill="#c3c2c3" d="M 399.5,626.5 C 400.833,627.167 400.833,627.167 399.5,626.5 Z"/></g>
<g><path style="opacity:0.685" fill="#cacaca" d="M 439.5,630.5 C 487.664,629.501 535.997,629.168 584.5,629.5C 583.631,633.374 581.297,636.041 577.5,637.5C 579.091,635.563 580.758,633.563 582.5,631.5C 581,631.167 579.5,630.833 578,630.5C 532.02,630.709 485.853,630.709 439.5,630.5 Z"/></g>
<g><path style="opacity:0.988" fill="#bfbebe" d="M 430.5,653.5 C 423.55,647.559 416.55,641.559 409.5,635.5C 408.167,634.833 407.167,633.833 406.5,632.5C 404.785,630.079 403.952,627.413 404,624.5C 405.333,626.5 406.667,628.5 408,630.5C 415.702,638.035 423.202,645.702 430.5,653.5 Z"/></g>
<g><path style="opacity:0.839" fill="#c8c7c7" d="M 409.5,635.5 C 416.55,641.559 423.55,647.559 430.5,653.5C 431.5,655.5 432.5,657.5 433.5,659.5C 428.5,654.833 423.5,650.167 418.5,645.5C 415.5,642.167 412.5,638.833 409.5,635.5 Z"/></g>
<g><path style="opacity:0.082" fill="#cdcdcd" d="M 446.5,638.5 C 449.5,640.833 452.167,643.5 454.5,646.5C 450.833,644.833 448.167,642.167 446.5,638.5 Z"/></g>
<g><path style="opacity:0.004" fill="#c4c6c4" d="M 418.5,645.5 C 417.833,646.167 417.833,646.167 418.5,645.5 Z"/></g>
<g><path style="opacity:0.99" fill="#bdbdbd" d="M 568.5,646.5 C 569.167,645.167 570.167,644.167 571.5,643.5C 572.601,642.2 573.934,641.7 575.5,642C 569.318,648.014 563.318,654.181 557.5,660.5C 556.635,661.583 555.635,661.749 554.5,661C 559.37,656.298 564.037,651.465 568.5,646.5 Z"/></g>
<g><path style="opacity:0.886" fill="#cdcdcd" d="M 466.5,658.5 C 468.833,660.167 470.833,662.167 472.5,664.5C 469.5,663.5 467.5,661.5 466.5,658.5 Z"/></g>
<g><path style="opacity:0.004" fill="#c5c7c7" d="M 434.5,661.5 C 433.833,662.167 433.833,662.167 434.5,661.5 Z"/></g>
<g><path style="opacity:0.922" fill="#cacaca" d="M 551.5,662.5 C 549.167,666.833 545.833,670.167 541.5,672.5C 544.5,668.833 547.833,665.5 551.5,662.5 Z"/></g>
<g><path style="opacity:0.235" fill="#cfcfd0" d="M 480.5,672.5 C 500.133,673.464 519.8,673.797 539.5,673.5C 522.341,674.497 505.008,674.83 487.5,674.5C 485.833,674.5 484.167,674.5 482.5,674.5C 481.833,673.833 481.167,673.167 480.5,672.5 Z"/></g>
<g><path style="opacity:0.979" fill="#b9b9ba" d="M 482.5,674.5 C 484.167,674.5 485.833,674.5 487.5,674.5C 503.662,675.331 519.995,675.831 536.5,676C 518.833,676.667 501.167,676.667 483.5,676C 482.833,675.667 482.167,675.333 481.5,675C 481.728,674.601 482.062,674.435 482.5,674.5 Z"/></g>
<g><path style="opacity:0.982" fill="#c1c1c1" d="M 552.5,694.5 C 551.653,695.966 550.32,696.8 548.5,697C 545.443,697.256 542.443,697.756 539.5,698.5C 525.689,698.419 512.022,698.085 498.5,697.5C 499.347,696.034 500.68,695.2 502.5,695C 504.5,694.833 506.5,694.667 508.5,694.5C 519.562,694.772 530.395,695.105 541,695.5C 543.898,695.363 546.731,694.863 549.5,694C 553.471,690.526 554.471,690.693 552.5,694.5 Z"/></g>
<g><path style="opacity:0.008" fill="#c0c1c0" d="M 545.5,698.5 C 546.833,699.167 546.833,699.167 545.5,698.5 Z"/></g>
<g><path style="opacity:0.004" fill="#bdc0be" d="M 550.5,698.5 C 551.833,699.167 551.833,699.167 550.5,698.5 Z"/></g>
<g><path style="opacity:0.004" fill="#c2c3c0" d="M 537.5,699.5 C 538.833,700.167 538.833,700.167 537.5,699.5 Z"/></g>
<g><path style="opacity:0.004" fill="#bcbdbc" d="M 550.5,700.5 C 551.833,701.167 551.833,701.167 550.5,700.5 Z"/></g>
<g><path style="opacity:0.004" fill="#656765" d="M 307.5,933.5 C 308.833,934.167 308.833,934.167 307.5,933.5 Z"/></g>
</svg>
