<?xml version="1.0" encoding="UTF-8"?>
<!DOCTYPE svg PUBLIC "-//W3C//DTD SVG 1.1//EN" "http://www.w3.org/Graphics/SVG/1.1/DTD/svg11.dtd">
<svg xmlns="http://www.w3.org/2000/svg" version="1.1" width="957px" height="758px" style="shape-rendering:geometricPrecision; text-rendering:geometricPrecision; image-rendering:optimizeQuality; fill-rule:evenodd; clip-rule:evenodd" xmlns:xlink="http://www.w3.org/1999/xlink">
<g><path style="opacity:0.005" fill="#fefffe" d="M -0.5,-0.5 C 1.5,-0.5 3.5,-0.5 5.5,-0.5C 4.08134,0.451145 2.41467,0.784479 0.5,0.5C 0.832568,74.0019 0.499235,147.335 -0.5,220.5C -0.5,146.833 -0.5,73.1667 -0.5,-0.5 Z"/></g>
<g><path style="opacity:0.004" fill="#fefffe" d="M 493.5,-0.5 C 642.5,-0.5 791.5,-0.5 940.5,-0.5C 791.5,0.833333 642.5,0.833333 493.5,-0.5 Z"/></g>
<g><path style="opacity:0.015" fill="#fefffe" d="M 944.5,-0.5 C 948.5,-0.5 952.5,-0.5 956.5,-0.5C 956.5,0.833333 956.5,2.16667 956.5,3.5C 955.596,2.79105 955.263,1.79105 955.5,0.5C 951.629,0.814971 947.962,0.481638 944.5,-0.5 Z"/></g>
<g><path style="opacity:0.026" fill="#f7f7f7" d="M 385.5,67.5 C 378.029,60.5297 370.696,53.3631 363.5,46C 358.628,44.6115 353.628,44.1115 348.5,44.5C 354.08,42.0366 359.746,42.2032 365.5,45C 370.114,50.7365 375.281,55.9032 381,60.5C 383.02,62.5506 384.52,64.8839 385.5,67.5 Z"/></g>
<g><path style="opacity:0.18" fill="#f2f2f2" d="M 613.5,44.5 C 607.158,44.3338 600.825,44.5005 594.5,45C 572.613,67.8858 550.447,90.3858 528,112.5C 523.192,119.402 521.358,127.068 522.5,135.5C 521.521,132.375 521.187,129.042 521.5,125.5C 521.758,121.56 522.924,117.893 525,114.5C 527.333,111.5 529.667,108.5 532,105.5C 553.194,85.6396 573.694,65.1396 593.5,44C 600.365,41.8629 607.032,42.0296 613.5,44.5 Z"/></g>
<g><path style="opacity:0.997" fill="#bbbbbb" d="M 348.5,44.5 C 353.628,44.1115 358.628,44.6115 363.5,46C 370.696,53.3631 378.029,60.5297 385.5,67.5C 391.131,74.3007 396.964,80.9674 403,87.5C 414.823,97.7449 425.49,109.078 435,121.5C 436.271,124.484 437.438,127.484 438.5,130.5C 437.174,145.339 437.174,160.339 438.5,175.5C 461.627,176.827 484.627,176.827 507.5,175.5C 512.5,175.5 517.5,175.5 522.5,175.5C 522.5,162.167 522.5,148.833 522.5,135.5C 521.358,127.068 523.192,119.402 528,112.5C 550.447,90.3858 572.613,67.8858 594.5,45C 600.825,44.5005 607.158,44.3338 613.5,44.5C 617.058,46.5537 620.225,49.2203 623,52.5C 623.965,56.7824 623.298,60.7824 621,64.5C 616.952,68.8797 613.285,73.5463 610,78.5C 592.308,95.1924 574.975,112.192 558,129.5C 557.667,152.833 557.333,176.167 557,199.5C 555.341,203.658 552.508,206.658 548.5,208.5C 518.833,207.167 489.167,207.167 459.5,208.5C 443.479,208.488 427.479,208.655 411.5,209C 406.961,206.113 404.461,201.947 404,196.5C 403.667,175.167 403.333,153.833 403,132.5C 379.885,110.055 357.552,87.0551 336,63.5C 333.671,55.1551 336.504,49.1551 344.5,45.5C 345.568,44.5655 346.901,44.2322 348.5,44.5 Z"/></g>
<g><path style="opacity:0.081" fill="#fbfbfb" d="M 613.5,44.5 C 624.894,48.1641 628.061,55.4974 623,66.5C 621.023,70.1332 618.69,73.4666 616,76.5C 599.979,90.856 584.313,105.523 569,120.5C 567.273,122.903 567.106,125.403 568.5,128C 567.518,129.054 566.351,129.554 565,129.5C 565.334,133.513 563.667,136.179 560,137.5C 559.667,158.5 559.333,179.5 559,200.5C 557.248,204.588 554.415,207.754 550.5,210C 503.5,210.667 456.5,210.667 409.5,210C 404.631,207.749 402.131,203.915 402,198.5C 401.169,191.858 400.669,185.191 400.5,178.5C 401.47,163.841 401.637,149.174 401,134.5C 400.333,133.167 399.667,131.833 399,130.5C 380.807,113.062 362.807,95.3957 345,77.5C 341,72.8333 337,68.1667 333,63.5C 332.727,61.8988 332.227,60.3988 331.5,59C 333.317,52.0176 337.65,47.5176 344.5,45.5C 336.504,49.1551 333.671,55.1551 336,63.5C 357.552,87.0551 379.885,110.055 403,132.5C 403.333,153.833 403.667,175.167 404,196.5C 404.461,201.947 406.961,206.113 411.5,209C 427.479,208.655 443.479,208.488 459.5,208.5C 489.233,209.61 518.9,209.61 548.5,208.5C 552.508,206.658 555.341,203.658 557,199.5C 557.333,176.167 557.667,152.833 558,129.5C 574.975,112.192 592.308,95.1924 610,78.5C 613.285,73.5463 616.952,68.8797 621,64.5C 623.298,60.7824 623.965,56.7824 623,52.5C 620.225,49.2203 617.058,46.5537 613.5,44.5 Z"/></g>
<g><path style="opacity:0.08" fill="#fbfbfb" d="M 521.5,125.5 C 521.187,129.042 521.521,132.375 522.5,135.5C 522.5,148.833 522.5,162.167 522.5,175.5C 517.5,175.5 512.5,175.5 507.5,175.5C 492.657,175.829 477.99,175.496 463.5,174.5C 482.833,174.5 502.167,174.5 521.5,174.5C 520.219,158.02 520.219,141.687 521.5,125.5 Z"/></g>
<g><path style="opacity:0.028" fill="#f5f5f5" d="M 385.5,67.5 C 403.562,84.06 420.395,101.727 436,120.5C 437.893,123.618 439.226,126.951 440,130.5C 440.5,144.829 440.667,159.163 440.5,173.5C 448.352,173.175 456.018,173.508 463.5,174.5C 455.167,174.5 446.833,174.5 438.5,174.5C 438.5,159.833 438.5,145.167 438.5,130.5C 437.438,127.484 436.271,124.484 435,121.5C 425.49,109.078 414.823,97.7449 403,87.5C 396.964,80.9674 391.131,74.3007 385.5,67.5 Z"/></g>
<g><path style="opacity:0.882" fill="#a8a8a8" d="M 98.5,172.5 C 165.167,172.5 231.833,172.5 298.5,172.5C 299.29,173.401 300.29,174.068 301.5,174.5C 300.279,175.465 298.946,175.298 297.5,174C 246.168,173.5 194.834,173.333 143.5,173.5C 128.324,173.829 113.324,173.496 98.5,172.5 Z"/></g>
<g><path style="opacity:0.004" fill="#f4f4f4" d="M 298.5,172.5 C 301.089,172.461 303.089,173.461 304.5,175.5C 303.391,175.443 302.391,175.11 301.5,174.5C 300.29,174.068 299.29,173.401 298.5,172.5 Z"/></g>
<g><path style="opacity:0.858" fill="#afafaf" d="M 438.5,130.5 C 438.5,145.167 438.5,159.833 438.5,174.5C 446.833,174.5 455.167,174.5 463.5,174.5C 477.99,175.496 492.657,175.829 507.5,175.5C 484.627,176.827 461.627,176.827 438.5,175.5C 437.174,160.339 437.174,145.339 438.5,130.5 Z"/></g>
<g><path style="opacity:0.047" fill="#fbfbfb" d="M 664.5,171.5 C 731.665,170.335 798.999,170.168 866.5,171C 871.799,172.398 875.632,175.565 878,180.5C 879.317,185.1 880.317,189.766 881,194.5C 881.695,223.178 881.361,251.844 880,280.5C 879.821,286.574 877.821,291.907 874,296.5C 864.345,308.486 854.345,320.153 844,331.5C 832.002,342.498 820.336,353.831 809,365.5C 789.694,389.141 767.528,409.641 742.5,427C 740.283,428.275 737.949,429.275 735.5,430C 700.664,430.831 665.998,430.664 631.5,429.5C 665.502,429.667 699.502,429.5 733.5,429C 735.5,428.333 737.5,427.667 739.5,427C 749.899,419.807 759.899,412.14 769.5,404C 799.667,373.167 829.833,342.333 860,311.5C 866.662,303.517 872.328,294.85 877,285.5C 877.333,283.5 877.667,281.5 878,279.5C 878.667,248.5 878.667,217.5 878,186.5C 876.646,179.152 872.479,174.319 865.5,172C 798.501,171.5 731.501,171.333 664.5,171.5 Z"/></g>
<g><path style="opacity:0.169" fill="#eaeaea" d="M 664.5,171.5 C 662.981,172.41 661.315,173.243 659.5,174C 647.61,185.394 635.61,196.56 623.5,207.5C 634.661,195.506 646.328,184.006 658.5,173C 660.345,171.872 662.345,171.372 664.5,171.5 Z"/></g>
<g><path style="opacity:0.997" fill="#bbbbbb" d="M 664.5,171.5 C 731.501,171.333 798.501,171.5 865.5,172C 872.479,174.319 876.646,179.152 878,186.5C 878.667,217.5 878.667,248.5 878,279.5C 877.667,281.5 877.333,283.5 877,285.5C 872.328,294.85 866.662,303.517 860,311.5C 829.833,342.333 799.667,373.167 769.5,404C 759.899,412.14 749.899,419.807 739.5,427C 737.5,427.667 735.5,428.333 733.5,429C 699.502,429.5 665.502,429.667 631.5,429.5C 620.651,424.155 612.151,416.155 606,405.5C 604.918,399.086 607.418,394.752 613.5,392.5C 616.516,391.657 619.183,390.157 621.5,388C 627.649,381.448 633.649,374.948 639.5,368.5C 640.5,366.167 642.167,364.5 644.5,363.5C 646.833,361.833 648.833,359.833 650.5,357.5C 650.833,356.5 651.5,355.833 652.5,355.5C 664.22,344.781 675.22,333.448 685.5,321.5C 686.833,320.833 687.833,319.833 688.5,318.5C 689.167,317.167 690.167,316.167 691.5,315.5C 693.167,314.5 694.5,313.167 695.5,311.5C 696.5,309.833 697.833,308.5 699.5,307.5C 710.239,298.097 719.905,287.764 728.5,276.5C 730.833,274.833 732.833,272.833 734.5,270.5C 738.666,267.679 741.666,264.012 743.5,259.5C 745.89,258.109 747.557,256.109 748.5,253.5C 754.513,248.16 761.18,243.827 768.5,240.5C 773.772,239.6 779.105,239.267 784.5,239.5C 784.833,239.5 785.167,239.5 785.5,239.5C 790.235,241.972 794.402,245.306 798,249.5C 798.996,253.207 798.33,256.541 796,259.5C 752.381,303.953 708.547,348.286 664.5,392.5C 663.957,392.56 663.624,392.893 663.5,393.5C 685.826,394.666 708.159,394.833 730.5,394C 731.823,393.184 732.489,392.017 732.5,390.5C 733.833,389.833 734.833,388.833 735.5,387.5C 736.167,386.167 737.167,385.167 738.5,384.5C 748.131,374.368 757.964,364.368 768,354.5C 768.464,353.906 768.631,353.239 768.5,352.5C 771.144,351.856 772.811,350.189 773.5,347.5C 775.833,345.833 777.833,343.833 779.5,341.5C 780.167,340.167 781.167,339.167 782.5,338.5C 783.833,337.833 784.833,336.833 785.5,335.5C 793.8,327.034 802.3,318.701 811,310.5C 811.464,309.906 811.631,309.239 811.5,308.5C 812.833,306.5 814.5,304.833 816.5,303.5C 821.208,299.793 825.208,295.46 828.5,290.5C 833.465,286.037 838.298,281.37 843,276.5C 843.499,272.514 843.666,268.514 843.5,264.5C 843.667,249.496 843.5,234.496 843,219.5C 842.8,215.247 842.3,211.08 841.5,207C 786.802,206.026 732.135,206.359 677.5,208C 675.051,208.725 672.717,209.725 670.5,211C 668.792,213.043 666.792,214.71 664.5,216C 629.076,252.926 593.41,289.759 557.5,326.5C 547.5,335.833 537.833,345.5 528.5,355.5C 528.5,356.167 528.167,356.5 527.5,356.5C 520.623,362.71 513.957,369.377 507.5,376.5C 510.854,380.521 514.521,384.188 518.5,387.5C 518.369,388.239 518.536,388.906 519,389.5C 523.72,393.394 528.22,397.394 532.5,401.5C 533.167,401.5 533.5,401.833 533.5,402.5C 535.833,405.5 538.5,408.167 541.5,410.5C 561.298,430.799 581.298,450.965 601.5,471C 603.65,472.411 605.984,473.245 608.5,473.5C 619.431,475.91 630.431,476.91 641.5,476.5C 644.024,477.74 646.691,478.907 649.5,480C 650.304,481.771 651.471,483.271 653,484.5C 653.75,510.501 654.083,536.501 654,562.5C 651.925,568.725 650.258,575.059 649,581.5C 641.892,593.362 633.558,604.362 624,614.5C 598.167,640.333 572.333,666.167 546.5,692C 543.358,694.904 539.691,696.738 535.5,697.5C 497.499,697.667 459.499,697.5 421.5,697C 417.89,695.056 414.557,692.723 411.5,690C 402.637,680.803 393.47,671.969 384,663.5C 360.7,637.865 337.033,612.532 313,587.5C 311.725,585.283 310.725,582.949 310,580.5C 309.5,550.835 309.333,521.169 309.5,491.5C 311.023,486.983 313.689,483.15 317.5,480C 322.756,478.942 327.756,477.442 332.5,475.5C 333.5,475.5 334.5,475.5 335.5,475.5C 344.734,476.626 353.4,475.126 361.5,471C 373.339,458.328 385.339,445.828 397.5,433.5C 397.5,432.833 397.833,432.5 398.5,432.5C 402.167,429.167 405.833,425.833 409.5,422.5C 409.435,422.938 409.601,423.272 410,423.5C 420.864,413.385 431.031,402.718 440.5,391.5C 440.5,391.167 440.5,390.833 440.5,390.5C 441.167,389.167 442.167,388.167 443.5,387.5C 447.631,383.87 451.631,380.037 455.5,376C 400.833,320 345.5,264.667 289.5,210C 284.631,208.366 279.631,207.532 274.5,207.5C 260.005,208.713 245.671,208.713 231.5,207.5C 241.506,207.666 251.506,207.5 261.5,207C 222.167,206.667 182.833,206.333 143.5,206C 175.5,205.333 175.5,204.667 143.5,204C 166.505,203.517 189.505,202.85 212.5,202C 213.672,201.581 214.672,200.915 215.5,200C 213.101,199.289 210.768,199.456 208.5,200.5C 207.571,199.311 207.238,197.978 207.5,196.5C 203.456,197.042 199.789,196.209 196.5,194C 200.109,194.238 203.775,194.405 207.5,194.5C 207.5,193.5 207.5,192.5 207.5,191.5C 204.833,191.5 202.167,191.5 199.5,191.5C 199.5,190.5 199.5,189.5 199.5,188.5C 198.5,188.5 197.5,188.5 196.5,188.5C 196.542,190.849 195.375,192.182 193,192.5C 189.206,191.77 185.373,191.27 181.5,191C 180.978,190.439 180.645,189.772 180.5,189C 184.79,186.27 184.457,184.437 179.5,183.5C 177.971,183.529 176.804,184.196 176,185.5C 174.599,183.808 172.766,183.141 170.5,183.5C 170.5,182.5 170.5,181.5 170.5,180.5C 169.5,180.5 168.5,180.5 167.5,180.5C 167.5,181.833 167.5,183.167 167.5,184.5C 163.476,184.503 159.476,184.836 155.5,185.5C 151.593,184.189 147.593,183.522 143.5,183.5C 143.5,180.167 143.5,176.833 143.5,173.5C 194.834,173.333 246.168,173.5 297.5,174C 298.946,175.298 300.279,175.465 301.5,174.5C 302.391,175.11 303.391,175.443 304.5,175.5C 308.534,179.536 312.868,183.202 317.5,186.5C 318.167,186.5 318.5,186.833 318.5,187.5C 329.219,199.22 340.552,210.22 352.5,220.5C 353.478,223.478 355.478,225.478 358.5,226.5C 361.452,230.119 364.785,233.452 368.5,236.5C 368.833,237.5 369.5,238.167 370.5,238.5C 375.119,243.785 380.119,248.785 385.5,253.5C 386.167,254.833 387.167,255.833 388.5,256.5C 391.833,260.5 395.5,264.167 399.5,267.5C 402.522,271.521 406.189,274.855 410.5,277.5C 411.522,277.145 412.189,276.478 412.5,275.5C 412.833,274.5 413.5,273.833 414.5,273.5C 425.154,264.844 435.488,255.844 445.5,246.5C 447.153,246.34 448.486,245.674 449.5,244.5C 449.842,243.662 450.508,243.328 451.5,243.5C 453.898,243.741 455.898,243.074 457.5,241.5C 473.187,240.001 488.854,240.167 504.5,242C 508.042,243.275 511.375,244.775 514.5,246.5C 516.147,248.326 518.147,249.66 520.5,250.5C 520.973,251.906 521.973,252.573 523.5,252.5C 525.833,253.5 527.5,255.167 528.5,257.5C 529.585,259.587 531.251,260.92 533.5,261.5C 534.5,261.833 535.167,262.5 535.5,263.5C 537.5,266.167 539.833,268.5 542.5,270.5C 543.167,271.833 544.167,272.833 545.5,273.5C 547.311,276.847 549.978,278.68 553.5,279C 554.056,278.617 554.389,278.117 554.5,277.5C 554.5,276.833 554.833,276.5 555.5,276.5C 560.5,272.167 565.167,267.5 569.5,262.5C 570.781,259.553 572.781,257.219 575.5,255.5C 577.816,254.578 579.483,252.911 580.5,250.5C 582.167,248.167 584.167,246.167 586.5,244.5C 587.833,243.833 588.833,242.833 589.5,241.5C 592.194,238.14 595.194,235.14 598.5,232.5C 606.167,225.5 613.5,218.167 620.5,210.5C 621.167,209.167 622.167,208.167 623.5,207.5C 635.61,196.56 647.61,185.394 659.5,174C 661.315,173.243 662.981,172.41 664.5,171.5 Z M 522.5,308.5 C 516.86,313.473 511.527,318.806 506.5,324.5C 504.5,324.5 503.5,325.5 503.5,327.5C 501.856,327.81 500.856,328.81 500.5,330.5C 499.167,330.5 498.5,331.167 498.5,332.5C 496.118,334.215 494.118,336.215 492.5,338.5C 489.5,339.5 487.5,341.5 486.5,344.5C 484.5,344.5 483.5,345.5 483.5,347.5C 482.417,347.539 481.417,347.873 480.5,348.5C 466.506,335.173 452.839,321.506 439.5,307.5C 439.491,305.692 439.991,304.025 441,302.5C 446.446,297.054 451.946,291.554 457.5,286C 466.68,278.461 477.014,276.461 488.5,280C 497.961,283.129 506.128,288.296 513,295.5C 515.63,299.132 518.63,302.465 522,305.5C 522.483,306.448 522.649,307.448 522.5,308.5 Z M 551.5,475.5 C 545.5,475.5 539.5,475.5 533.5,475.5C 501.328,474.275 468.994,474.275 436.5,475.5C 428.677,474.671 420.677,474.171 412.5,474C 433.473,453.027 454.473,432.027 475.5,411C 477.723,409.267 480.056,407.767 482.5,406.5C 507.078,427.744 530.078,450.744 551.5,475.5 Z M 616.5,558.5 C 615.167,558.5 613.833,558.5 612.5,558.5C 523.67,558.309 434.67,558.309 345.5,558.5C 344.985,543.501 345.651,528.501 347.5,513.5C 348.478,513.977 349.311,514.643 350,515.5C 352.224,513.946 354.724,512.946 357.5,512.5C 419.494,513.037 481.494,513.037 543.5,512.5C 552.827,513.166 562.327,513.5 572,513.5C 586.569,513.658 601.069,512.991 615.5,511.5C 616.553,512.438 617.22,513.605 617.5,515C 617.58,529.534 617.247,544.034 616.5,558.5 Z M 370.5,596.5 C 417.989,596.12 465.656,595.787 513.5,595.5C 539.509,595.5 565.175,596.167 590.5,597.5C 589.833,597.5 589.5,597.833 589.5,598.5C 586.536,600.448 583.536,602.448 580.5,604.5C 562.295,624.203 543.629,643.37 524.5,662C 509.17,662.5 493.837,662.667 478.5,662.5C 462.967,661.902 447.3,661.068 431.5,660C 414.216,639.049 395.882,619.049 376.5,600C 375.255,599.209 373.922,598.709 372.5,598.5C 372.167,597.5 371.5,596.833 370.5,596.5 Z"/></g>
<g><path style="opacity:0.04" fill="#fafafa" d="M 358.5,226.5 C 362.855,228.855 366.188,232.188 368.5,236.5C 364.785,233.452 361.452,230.119 358.5,226.5 Z"/></g>
<g><path style="opacity:0.31" fill="#ececec" d="M 352.5,220.5 C 354.882,222.215 356.882,224.215 358.5,226.5C 355.478,225.478 353.478,223.478 352.5,220.5 Z"/></g>
<g><path style="opacity:0.042" fill="#fcfcfc" d="M 620.5,210.5 C 613.5,218.167 606.167,225.5 598.5,232.5C 598.369,231.761 598.536,231.094 599,230.5C 605.756,223.239 612.922,216.572 620.5,210.5 Z"/></g>
<g><path style="opacity:0.037" fill="#f7f7f7" d="M 843.5,264.5 C 843.167,264.5 842.833,264.5 842.5,264.5C 841.865,248.508 841.365,232.508 841,216.5C 840.782,213.574 840.282,210.74 839.5,208C 787.802,207.027 736.135,207.36 684.5,209C 679.199,209.921 674.199,211.587 669.5,214C 632.833,251.333 596.167,288.667 559.5,326C 558.906,326.464 558.239,326.631 557.5,326.5C 593.41,289.759 629.076,252.926 664.5,216C 666.792,214.71 668.792,213.043 670.5,211C 672.717,209.725 675.051,208.725 677.5,208C 732.135,206.359 786.802,206.026 841.5,207C 842.3,211.08 842.8,215.247 843,219.5C 843.5,234.496 843.667,249.496 843.5,264.5 Z"/></g>
<g><path style="opacity:0.989" fill="#b4b4b4" d="M 459.5,208.5 C 489.167,207.167 518.833,207.167 548.5,208.5C 518.9,209.61 489.233,209.61 459.5,208.5 Z"/></g>
<g><path style="opacity:0.066" fill="#f5f5f5" d="M 318.5,187.5 C 330.448,197.78 341.781,208.78 352.5,220.5C 340.552,210.22 329.219,199.22 318.5,187.5 Z"/></g>
<g><path style="opacity:0.044" fill="#f6f6f6" d="M 304.5,175.5 C 309.719,178.046 314.052,181.713 317.5,186.5C 312.868,183.202 308.534,179.536 304.5,175.5 Z"/></g>
<g><path style="opacity:0.004" fill="#fafafa" d="M 368.5,236.5 C 369.833,236.5 370.5,237.167 370.5,238.5C 369.5,238.167 368.833,237.5 368.5,236.5 Z"/></g>
<g><path style="opacity:0.308" fill="#dfdfdf" d="M 784.5,239.5 C 779.105,239.267 773.772,239.6 768.5,240.5C 768.5,240.167 768.5,239.833 768.5,239.5C 773.952,237.018 779.286,237.018 784.5,239.5 Z"/></g>
<g><path style="opacity:0.032" fill="#fcfcfc" d="M 589.5,241.5 C 588.833,242.833 587.833,243.833 586.5,244.5C 586.5,242.5 587.5,241.5 589.5,241.5 Z"/></g>
<g><path style="opacity:0.388" fill="#e1e1e1" d="M 457.5,241.5 C 455.898,243.074 453.898,243.741 451.5,243.5C 453.102,241.926 455.102,241.259 457.5,241.5 Z"/></g>
<g><path style="opacity:0.033" fill="#f9f9f9" d="M 768.5,239.5 C 768.5,239.833 768.5,240.167 768.5,240.5C 761.18,243.827 754.513,248.16 748.5,253.5C 753.349,246.395 760.016,241.728 768.5,239.5 Z"/></g>
<g><path style="opacity:0.161" fill="#f1f1f1" d="M 449.5,244.5 C 448.486,245.674 447.153,246.34 445.5,246.5C 446.287,244.896 447.62,244.229 449.5,244.5 Z"/></g>
<g><path style="opacity:0.056" fill="#fcfcfc" d="M 370.5,238.5 C 376.521,242.521 381.521,247.521 385.5,253.5C 380.119,248.785 375.119,243.785 370.5,238.5 Z"/></g>
<g><path style="opacity:0.018" fill="#f4f4f4" d="M 514.5,246.5 C 517.198,246.845 519.198,248.178 520.5,250.5C 518.147,249.66 516.147,248.326 514.5,246.5 Z"/></g>
<g><path style="opacity:0.016" fill="#f2f2f2" d="M 520.5,250.5 C 522.027,250.427 523.027,251.094 523.5,252.5C 521.973,252.573 520.973,251.906 520.5,250.5 Z"/></g>
<g><path style="opacity:0.029" fill="#f5f5f5" d="M 445.5,246.5 C 435.488,255.844 425.154,264.844 414.5,273.5C 421.833,266.603 429.166,259.436 436.5,252C 439.222,249.642 442.222,247.809 445.5,246.5 Z"/></g>
<g><path style="opacity:0.044" fill="#fdfdfd" d="M 385.5,253.5 C 387.5,253.5 388.5,254.5 388.5,256.5C 387.167,255.833 386.167,254.833 385.5,253.5 Z"/></g>
<g><path style="opacity:0.337" fill="#e3e3e3" d="M 580.5,250.5 C 579.483,252.911 577.816,254.578 575.5,255.5C 576.517,253.089 578.184,251.422 580.5,250.5 Z"/></g>
<g><path style="opacity:0.004" fill="#f2f2f2" d="M 528.5,257.5 C 530.749,258.08 532.415,259.413 533.5,261.5C 531.251,260.92 529.585,259.587 528.5,257.5 Z"/></g>
<g><path style="opacity:0.114" fill="#f6f6f6" d="M 748.5,253.5 C 747.557,256.109 745.89,258.109 743.5,259.5C 744.473,256.865 746.14,254.865 748.5,253.5 Z"/></g>
<g><path style="opacity:0.064" fill="#fcfcfc" d="M 388.5,256.5 C 393.167,259.167 396.833,262.833 399.5,267.5C 395.5,264.167 391.833,260.5 388.5,256.5 Z"/></g>
<g><path style="opacity:0.05" fill="#f7f7f7" d="M 535.5,263.5 C 538.833,264.833 541.167,267.167 542.5,270.5C 539.833,268.5 537.5,266.167 535.5,263.5 Z"/></g>
<g><path style="opacity:0.047" fill="#f6f6f6" d="M 743.5,259.5 C 741.666,264.012 738.666,267.679 734.5,270.5C 737.129,266.537 740.129,262.871 743.5,259.5 Z"/></g>
<g><path style="opacity:0.153" fill="#e6e6e6" d="M 569.5,262.5 C 565.167,267.5 560.5,272.167 555.5,276.5C 559.167,270.833 563.833,266.167 569.5,262.5 Z"/></g>
<g><path style="opacity:0.045" fill="#f8f8f8" d="M 399.5,267.5 C 402.899,269.388 405.899,271.888 408.5,275C 409.793,275.49 411.127,275.657 412.5,275.5C 412.189,276.478 411.522,277.145 410.5,277.5C 406.189,274.855 402.522,271.521 399.5,267.5 Z"/></g>
<g><path style="opacity:0.028" fill="#fdfdfd" d="M 734.5,270.5 C 732.833,272.833 730.833,274.833 728.5,276.5C 729.5,273.5 731.5,271.5 734.5,270.5 Z"/></g>
<g><path style="opacity:0.062" fill="#f9f9f9" d="M 231.5,207.5 C 245.671,208.713 260.005,208.713 274.5,207.5C 279.631,207.532 284.631,208.366 289.5,210C 345.5,264.667 400.833,320 455.5,376C 451.631,380.037 447.631,383.87 443.5,387.5C 444.882,384.606 446.882,382.106 449.5,380C 448.643,379.311 447.977,378.478 447.5,377.5C 449.078,376.702 450.744,376.202 452.5,376C 399.78,322.28 346.78,268.947 293.5,216C 289.23,212.2 284.23,210.033 278.5,209.5C 227.652,209.602 176.652,209.602 125.5,209.5C 123.337,209.922 122.003,211.256 121.5,213.5C 120.833,212.167 120.167,210.833 119.5,209.5C 118.164,231.513 118.33,253.513 120,275.5C 120.655,277.628 121.489,279.628 122.5,281.5C 120.292,280.106 118.792,278.106 118,275.5C 116.74,252.851 116.24,230.185 116.5,207.5C 154.833,207.5 193.167,207.5 231.5,207.5 Z"/></g>
<g><path style="opacity:0.067" fill="#f7f7f7" d="M 542.5,270.5 C 544.5,270.5 545.5,271.5 545.5,273.5C 544.167,272.833 543.167,271.833 542.5,270.5 Z"/></g>
<g><path style="opacity:0.008" fill="#f1f1f1" d="M 545.5,273.5 C 548.056,274.543 550.223,276.21 552,278.5C 552.671,277.748 553.504,277.414 554.5,277.5C 554.389,278.117 554.056,278.617 553.5,279C 549.978,278.68 547.311,276.847 545.5,273.5 Z"/></g>
<g><path style="opacity:0.025" fill="#f8f8f8" d="M 522.5,308.5 C 522.649,307.448 522.483,306.448 522,305.5C 518.63,302.465 515.63,299.132 513,295.5C 506.128,288.296 497.961,283.129 488.5,280C 477.014,276.461 466.68,278.461 457.5,286C 451.946,291.554 446.446,297.054 441,302.5C 439.991,304.025 439.491,305.692 439.5,307.5C 438.373,306.878 437.373,306.045 436.5,305C 444.167,297.333 451.833,289.667 459.5,282C 470.862,275.636 482.529,274.969 494.5,280C 506.154,286.316 515.988,294.816 524,305.5C 524.585,306.998 524.085,307.998 522.5,308.5 Z"/></g>
<g><path style="opacity:0.032" fill="#fafafa" d="M 842.5,264.5 C 842.833,264.5 843.167,264.5 843.5,264.5C 843.666,268.514 843.499,272.514 843,276.5C 838.298,281.37 833.465,286.037 828.5,290.5C 832.066,285.427 836.232,280.76 841,276.5C 842.266,272.605 842.766,268.605 842.5,264.5 Z"/></g>
<g><path style="opacity:0.314" fill="#ededed" d="M 728.5,276.5 C 719.905,287.764 710.239,298.097 699.5,307.5C 699.369,306.761 699.536,306.094 700,305.5C 709.531,295.682 719.031,286.016 728.5,276.5 Z"/></g>
<g><path style="opacity:0.044" fill="#f9f9f9" d="M 226.5,273.5 C 237.221,283.22 247.221,293.553 256.5,304.5C 245.779,294.78 235.779,284.447 226.5,273.5 Z"/></g>
<g><path style="opacity:0.996" fill="#bbbbbb" d="M 98.5,172.5 C 113.324,173.496 128.324,173.829 143.5,173.5C 143.5,176.833 143.5,180.167 143.5,183.5C 147.593,183.522 151.593,184.189 155.5,185.5C 159.476,184.836 163.476,184.503 167.5,184.5C 167.5,183.167 167.5,181.833 167.5,180.5C 168.5,180.5 169.5,180.5 170.5,180.5C 170.5,181.5 170.5,182.5 170.5,183.5C 172.766,183.141 174.599,183.808 176,185.5C 176.804,184.196 177.971,183.529 179.5,183.5C 184.457,184.437 184.79,186.27 180.5,189C 180.645,189.772 180.978,190.439 181.5,191C 185.373,191.27 189.206,191.77 193,192.5C 195.375,192.182 196.542,190.849 196.5,188.5C 197.5,188.5 198.5,188.5 199.5,188.5C 199.5,189.5 199.5,190.5 199.5,191.5C 202.167,191.5 204.833,191.5 207.5,191.5C 207.5,192.5 207.5,193.5 207.5,194.5C 203.775,194.405 200.109,194.238 196.5,194C 199.789,196.209 203.456,197.042 207.5,196.5C 207.238,197.978 207.571,199.311 208.5,200.5C 210.768,199.456 213.101,199.289 215.5,200C 214.672,200.915 213.672,201.581 212.5,202C 189.505,202.85 166.505,203.517 143.5,204C 175.5,204.667 175.5,205.333 143.5,206C 182.833,206.333 222.167,206.667 261.5,207C 251.506,207.5 241.506,207.666 231.5,207.5C 193.167,207.5 154.833,207.5 116.5,207.5C 116.24,230.185 116.74,252.851 118,275.5C 118.792,278.106 120.292,280.106 122.5,281.5C 122.81,283.144 123.81,284.144 125.5,284.5C 150.116,310.783 175.449,336.45 201.5,361.5C 209.833,370.5 218.5,379.167 227.5,387.5C 229.19,387.856 230.19,388.856 230.5,390.5C 228.073,391.279 228.073,392.446 230.5,394C 233.583,395.098 236.749,395.932 240,396.5C 259.307,395.851 278.473,395.184 297.5,394.5C 298.833,393.833 298.833,393.167 297.5,392.5C 270.473,364.806 243.14,337.473 215.5,310.5C 205.757,299.253 195.424,288.42 184.5,278C 183.906,277.536 183.239,277.369 182.5,277.5C 175.504,270.672 168.337,264.005 161,257.5C 160.333,254.167 160.333,250.833 161,247.5C 162.167,245 164,243.167 166.5,242C 180.594,239.486 193.26,242.486 204.5,251C 211.338,259.005 218.671,266.505 226.5,273.5C 235.779,284.447 245.779,294.78 256.5,304.5C 257.562,307.378 259.562,309.378 262.5,310.5C 274.172,322.171 286.172,333.505 298.5,344.5C 300.145,348.145 302.812,350.812 306.5,352.5C 313.167,359.833 320.167,366.833 327.5,373.5C 327.511,375.017 328.177,376.184 329.5,377C 333.727,380.737 338.06,384.237 342.5,387.5C 346.428,391.25 350.595,394.916 355,398.5C 355.06,408.884 350.893,417.384 342.5,424C 339.436,425.859 336.436,427.692 333.5,429.5C 297.833,429.5 262.167,429.5 226.5,429.5C 213.916,422.439 202.249,413.939 191.5,404C 156,367.167 120.5,330.333 85,293.5C 84.4389,291.275 83.4389,289.275 82,287.5C 81.3333,253.5 81.3333,219.5 82,185.5C 84.6942,177.642 90.1942,173.309 98.5,172.5 Z"/></g>
<g><path style="opacity:0.025" fill="#f3f3f3" d="M 122.5,281.5 C 124.19,281.856 125.19,282.856 125.5,284.5C 123.81,284.144 122.81,283.144 122.5,281.5 Z"/></g>
<g><path style="opacity:0.797" fill="#b0b0b0" d="M 182.5,277.5 C 183.239,277.369 183.906,277.536 184.5,278C 195.424,288.42 205.757,299.253 215.5,310.5C 204.167,299.833 193.167,288.833 182.5,277.5 Z"/></g>
<g><path style="opacity:0.022" fill="#f8f8f8" d="M 785.5,239.5 C 793.292,241.459 798.292,246.293 800.5,254C 800.079,256.185 799.579,258.351 799,260.5C 767.279,292.555 735.279,324.222 703,355.5C 702.517,356.448 702.351,357.448 702.5,358.5C 701.448,358.351 700.448,358.517 699.5,359C 688.274,370.63 676.941,382.13 665.5,393.5C 664.833,393.5 664.5,393.167 664.5,392.5C 708.547,348.286 752.381,303.953 796,259.5C 798.33,256.541 798.996,253.207 798,249.5C 794.402,245.306 790.235,241.972 785.5,239.5 Z"/></g>
<g><path style="opacity:0.067" fill="#f0f0f0" d="M 828.5,290.5 C 825.208,295.46 821.208,299.793 816.5,303.5C 819.429,299.394 822.596,295.394 826,291.5C 826.671,290.748 827.504,290.414 828.5,290.5 Z"/></g>
<g><path style="opacity:0.024" fill="#f3f3f3" d="M 256.5,304.5 C 259.05,306.077 261.05,308.077 262.5,310.5C 259.562,309.378 257.562,307.378 256.5,304.5 Z"/></g>
<g><path style="opacity:0.04" fill="#fafafa" d="M 298.5,172.5 C 231.833,172.5 165.167,172.5 98.5,172.5C 90.1942,173.309 84.6942,177.642 82,185.5C 81.3333,219.5 81.3333,253.5 82,287.5C 83.4389,289.275 84.4389,291.275 85,293.5C 120.5,330.333 156,367.167 191.5,404C 202.249,413.939 213.916,422.439 226.5,429.5C 222.219,428.864 218.219,427.364 214.5,425C 196.786,412.955 181.286,398.455 168,381.5C 148.333,361.833 128.667,342.167 109,322.5C 105.284,318.452 101.95,314.118 99,309.5C 93,304.833 87.6667,299.5 83,293.5C 80.539,287.619 79.3723,281.452 79.5,275C 79.1929,244.489 79.6929,213.989 81,183.5C 83.8879,176.614 89.0546,172.781 96.5,172C 164.001,171.168 231.335,171.335 298.5,172.5 Z"/></g>
<g><path style="opacity:0.063" fill="#fafafa" d="M 695.5,311.5 C 694.5,313.167 693.167,314.5 691.5,315.5C 691.833,313.167 693.167,311.833 695.5,311.5 Z"/></g>
<g><path style="opacity:0.035" fill="#efefef" d="M 439.5,307.5 C 452.839,321.506 466.506,335.173 480.5,348.5C 481.417,347.873 482.417,347.539 483.5,347.5C 482.746,349.446 481.412,350.279 479.5,350C 465.208,336.547 451.875,322.381 439.5,307.5 Z"/></g>
<g><path style="opacity:0.033" fill="#fefefe" d="M 688.5,318.5 C 687.833,319.833 686.833,320.833 685.5,321.5C 685.5,319.5 686.5,318.5 688.5,318.5 Z"/></g>
<g><path style="opacity:0.021" fill="#f2f2f2" d="M 125.5,284.5 C 139.134,297.966 152.968,311.3 167,324.5C 178.727,336.723 190.227,349.057 201.5,361.5C 175.449,336.45 150.116,310.783 125.5,284.5 Z"/></g>
<g><path style="opacity:0.008" fill="#f3f3f3" d="M 262.5,310.5 C 275.485,320.819 287.485,332.153 298.5,344.5C 286.172,333.505 274.172,322.171 262.5,310.5 Z"/></g>
<g><path style="opacity:0.078" fill="#f7f7f7" d="M 506.5,324.5 C 505.833,325.833 504.833,326.833 503.5,327.5C 503.5,325.5 504.5,324.5 506.5,324.5 Z"/></g>
<g><path style="opacity:0.066" fill="#fdfdfd" d="M 557.5,326.5 C 551.247,334.092 544.58,341.426 537.5,348.5C 534.748,351.263 531.748,353.597 528.5,355.5C 537.833,345.5 547.5,335.833 557.5,326.5 Z"/></g>
<g><path style="opacity:0.192" fill="#e9e9e9" d="M 811.5,308.5 C 811.631,309.239 811.464,309.906 811,310.5C 802.3,318.701 793.8,327.034 785.5,335.5C 793.178,325.637 801.845,316.637 811.5,308.5 Z"/></g>
<g><path style="opacity:0.067" fill="#f7f7f7" d="M 500.5,330.5 C 500.167,331.5 499.5,332.167 498.5,332.5C 498.5,331.167 499.167,330.5 500.5,330.5 Z"/></g>
<g><path style="opacity:0.051" fill="#f8f8f8" d="M 226.5,273.5 C 218.671,266.505 211.338,259.005 204.5,251C 193.26,242.486 180.594,239.486 166.5,242C 164,243.167 162.167,245 161,247.5C 160.333,250.833 160.333,254.167 161,257.5C 168.337,264.005 175.504,270.672 182.5,277.5C 193.167,288.833 204.167,299.833 215.5,310.5C 243.14,337.473 270.473,364.806 297.5,392.5C 294.375,393.479 291.042,393.813 287.5,393.5C 289.631,392.686 291.964,392.186 294.5,392C 249.639,346.806 204.472,301.972 159,257.5C 157.1,245.734 162.1,239.734 174,239.5C 185.297,239.285 195.464,242.452 204.5,249C 212.063,257.057 219.396,265.224 226.5,273.5 Z"/></g>
<g><path style="opacity:0.047" fill="#f8f8f8" d="M 785.5,335.5 C 784.833,336.833 783.833,337.833 782.5,338.5C 782.5,336.5 783.5,335.5 785.5,335.5 Z"/></g>
<g><path style="opacity:0.004" fill="#fefffe" d="M -0.5,341.5 C 0.833333,349.5 0.833333,357.5 -0.5,365.5C -0.5,357.5 -0.5,349.5 -0.5,341.5 Z"/></g>
<g><path style="opacity:0.094" fill="#f5f5f5" d="M 492.5,338.5 C 490.833,340.833 488.833,342.833 486.5,344.5C 487.5,341.5 489.5,339.5 492.5,338.5 Z"/></g>
<g><path style="opacity:0.026" fill="#fcfcfc" d="M 779.5,341.5 C 777.833,343.833 775.833,345.833 773.5,347.5C 774.5,344.5 776.5,342.5 779.5,341.5 Z"/></g>
<g><path style="opacity:0.039" fill="#efefef" d="M 486.5,344.5 C 485.833,345.833 484.833,346.833 483.5,347.5C 483.5,345.5 484.5,344.5 486.5,344.5 Z"/></g>
<g><path style="opacity:0.102" fill="#f3f3f3" d="M 685.5,321.5 C 675.22,333.448 664.22,344.781 652.5,355.5C 662.78,343.552 673.78,332.219 685.5,321.5 Z"/></g>
<g><path style="opacity:0.039" fill="#efefef" d="M 298.5,344.5 C 302.104,346.288 304.77,348.955 306.5,352.5C 302.812,350.812 300.145,348.145 298.5,344.5 Z"/></g>
<g><path style="opacity:0.255" fill="#e0e0e0" d="M 773.5,347.5 C 772.811,350.189 771.144,351.856 768.5,352.5C 769.882,350.451 771.548,348.785 773.5,347.5 Z"/></g>
<g><path style="opacity:0.032" fill="#fcfcfc" d="M 527.5,356.5 C 522.399,362.775 517.065,368.942 511.5,375C 514.507,373.63 516.507,374.63 517.5,378C 516.728,379.221 515.728,380.221 514.5,381C 516.085,383.069 517.419,385.236 518.5,387.5C 514.521,384.188 510.854,380.521 507.5,376.5C 513.957,369.377 520.623,362.71 527.5,356.5 Z"/></g>
<g><path style="opacity:0.008" fill="#f9f9f9" d="M 306.5,352.5 C 307.239,352.369 307.906,352.536 308.5,353C 315.428,359.423 321.762,366.256 327.5,373.5C 320.167,366.833 313.167,359.833 306.5,352.5 Z"/></g>
<g><path style="opacity:0.082" fill="#fafafa" d="M 650.5,357.5 C 648.833,359.833 646.833,361.833 644.5,363.5C 645.5,360.5 647.5,358.5 650.5,357.5 Z"/></g>
<g><path style="opacity:0.004" fill="#f9f9f9" d="M 201.5,361.5 C 207.275,366.1 212.941,370.934 218.5,376C 221.738,379.728 224.738,383.561 227.5,387.5C 218.5,379.167 209.833,370.5 201.5,361.5 Z"/></g>
<g><path style="opacity:0.075" fill="#efefef" d="M 768.5,352.5 C 768.631,353.239 768.464,353.906 768,354.5C 757.964,364.368 748.131,374.368 738.5,384.5C 747.435,372.897 757.435,362.23 768.5,352.5 Z"/></g>
<g><path style="opacity:0.033" fill="#f7f7f7" d="M 327.5,373.5 C 333.354,377.16 338.354,381.827 342.5,387.5C 338.06,384.237 333.727,380.737 329.5,377C 328.177,376.184 327.511,375.017 327.5,373.5 Z"/></g>
<g><path style="opacity:0.149" fill="#ededed" d="M 639.5,368.5 C 633.649,374.948 627.649,381.448 621.5,388C 619.183,390.157 616.516,391.657 613.5,392.5C 622.493,384.84 631.16,376.84 639.5,368.5 Z"/></g>
<g><path style="opacity:0.047" fill="#f8f8f8" d="M 735.5,387.5 C 734.833,388.833 733.833,389.833 732.5,390.5C 732.5,388.5 733.5,387.5 735.5,387.5 Z"/></g>
<g><path style="opacity:0.031" fill="#f9f9f9" d="M 518.5,387.5 C 524.188,391.188 528.855,395.855 532.5,401.5C 528.22,397.394 523.72,393.394 519,389.5C 518.536,388.906 518.369,388.239 518.5,387.5 Z"/></g>
<g><path style="opacity:0.05" fill="#f9f9f9" d="M 230.5,390.5 C 231.683,391.504 233.016,392.338 234.5,393C 240.157,393.499 245.824,393.666 251.5,393.5C 251.5,393.833 251.5,394.167 251.5,394.5C 245.491,394.666 239.491,394.499 233.5,394C 231.574,393.578 230.574,392.411 230.5,390.5 Z"/></g>
<g><path style="opacity:0.272" fill="#e5e5e5" d="M 287.5,393.5 C 291.042,393.813 294.375,393.479 297.5,392.5C 298.833,393.167 298.833,393.833 297.5,394.5C 282.167,394.5 266.833,394.5 251.5,394.5C 251.5,394.167 251.5,393.833 251.5,393.5C 263.567,392.524 275.567,392.524 287.5,393.5 Z"/></g>
<g><path style="opacity:0.303" fill="#d8d8d8" d="M 732.5,390.5 C 732.489,392.017 731.823,393.184 730.5,394C 708.159,394.833 685.826,394.666 663.5,393.5C 663.624,392.893 663.957,392.56 664.5,392.5C 664.5,393.167 664.833,393.5 665.5,393.5C 686.715,392.51 708.048,392.343 729.5,393C 730.373,391.955 731.373,391.122 732.5,390.5 Z"/></g>
<g><path style="opacity:0.837" fill="#acacac" d="M 230.5,390.5 C 230.574,392.411 231.574,393.578 233.5,394C 239.491,394.499 245.491,394.666 251.5,394.5C 266.833,394.5 282.167,394.5 297.5,394.5C 278.473,395.184 259.307,395.851 240,396.5C 236.749,395.932 233.583,395.098 230.5,394C 228.073,392.446 228.073,391.279 230.5,390.5 Z"/></g>
<g><path style="opacity:0.048" fill="#fbfbfb" d="M 440.5,390.5 C 440.5,390.833 440.5,391.167 440.5,391.5C 435.833,395.833 431.167,400.167 426.5,404.5C 430.167,398.833 434.833,394.167 440.5,390.5 Z"/></g>
<g><path style="opacity:0.708" fill="#b1b1b1" d="M 440.5,391.5 C 431.031,402.718 420.864,413.385 410,423.5C 409.601,423.272 409.435,422.938 409.5,422.5C 415.167,416.5 420.833,410.5 426.5,404.5C 431.167,400.167 435.833,395.833 440.5,391.5 Z"/></g>
<g><path style="opacity:0.087" fill="#fcfcfc" d="M 553.5,474.5 C 553.158,475.338 552.492,475.672 551.5,475.5C 530.078,450.744 507.078,427.744 482.5,406.5C 480.056,407.767 477.723,409.267 475.5,411C 454.473,432.027 433.473,453.027 412.5,474C 420.677,474.171 428.677,474.671 436.5,475.5C 435.5,475.5 434.5,475.5 433.5,475.5C 425.833,475.5 418.167,475.5 410.5,475.5C 433.169,450.996 457.002,426.996 482,403.5C 507.02,426.02 530.853,449.687 553.5,474.5 Z M 551.5,475.5 C 545.5,475.5 539.5,475.5 533.5,475.5C 501.328,474.275 468.994,474.275 436.5,475.5C 428.677,474.671 420.677,474.171 412.5,474C 433.473,453.027 454.473,432.027 475.5,411C 477.723,409.267 480.056,407.767 482.5,406.5C 507.078,427.744 530.078,450.744 551.5,475.5 Z"/></g>
<g><path style="opacity:0.043" fill="#fcfcfc" d="M 426.5,404.5 C 420.833,410.5 415.167,416.5 409.5,422.5C 405.833,425.833 402.167,429.167 398.5,432.5C 406.575,422.921 415.242,413.754 424.5,405C 425.094,404.536 425.761,404.369 426.5,404.5 Z"/></g>
<g><path style="opacity:0.038" fill="#fdfdfd" d="M 533.5,402.5 C 537.167,404.167 539.833,406.833 541.5,410.5C 538.5,408.167 535.833,405.5 533.5,402.5 Z"/></g>
<g><path style="opacity:0.05" fill="#f9f9f9" d="M 613.5,392.5 C 607.418,394.752 604.918,399.086 606,405.5C 612.151,416.155 620.651,424.155 631.5,429.5C 627.219,428.864 623.219,427.364 619.5,425C 611.932,419.159 606.598,411.826 603.5,403C 604.324,397.011 607.657,393.511 613.5,392.5 Z"/></g>
<g><path style="opacity:0.06" fill="#f6f6f6" d="M 342.5,387.5 C 347.772,389.726 352.272,393.06 356,397.5C 357.483,400.702 357.817,404.036 357,407.5C 353.693,414.813 348.86,420.98 342.5,426C 339.928,428.287 336.928,429.453 333.5,429.5C 336.436,427.692 339.436,425.859 342.5,424C 350.893,417.384 355.06,408.884 355,398.5C 350.595,394.916 346.428,391.25 342.5,387.5 Z"/></g>
<g><path style="opacity:0.052" fill="#fafafa" d="M 541.5,410.5 C 546.274,414.098 550.94,417.931 555.5,422C 572.174,440.512 589.84,457.678 608.5,473.5C 605.984,473.245 603.65,472.411 601.5,471C 581.298,450.965 561.298,430.799 541.5,410.5 Z"/></g>
<g><path style="opacity:0.018" fill="#fbfbfb" d="M 226.5,429.5 C 262.167,429.5 297.833,429.5 333.5,429.5C 299.331,430.545 264.998,431.045 230.5,431C 228.942,430.79 227.609,430.29 226.5,429.5 Z"/></g>
<g><path style="opacity:0.023" fill="#f7f7f7" d="M 397.5,433.5 C 385.339,445.828 373.339,458.328 361.5,471C 353.4,475.126 344.734,476.626 335.5,475.5C 342.772,474.865 350.106,473.698 357.5,472C 370.366,458.633 383.699,445.8 397.5,433.5 Z"/></g>
<g><path style="opacity:0.148" fill="#ededed" d="M 533.5,475.5 C 531.5,475.5 529.5,475.5 527.5,475.5C 495.99,475.663 464.657,475.663 433.5,475.5C 434.5,475.5 435.5,475.5 436.5,475.5C 468.994,474.275 501.328,474.275 533.5,475.5 Z"/></g>
<g><path style="opacity:0.103" fill="#d6d6d6" d="M 553.5,474.5 C 554.338,474.842 554.672,475.508 554.5,476.5C 545.318,476.827 536.318,476.493 527.5,475.5C 529.5,475.5 531.5,475.5 533.5,475.5C 539.5,475.5 545.5,475.5 551.5,475.5C 552.492,475.672 553.158,475.338 553.5,474.5 Z"/></g>
<g><path style="opacity:0.977" fill="#b3b3b3" d="M 410.5,475.5 C 418.167,475.5 425.833,475.5 433.5,475.5C 464.657,475.663 495.99,475.663 527.5,475.5C 536.318,476.493 545.318,476.827 554.5,476.5C 511.002,477.665 467.335,477.831 423.5,477C 418.981,476.825 414.647,476.325 410.5,475.5 Z"/></g>
<g><path style="opacity:0.017" fill="#f5f5f5" d="M 332.5,475.5 C 327.756,477.442 322.756,478.942 317.5,480C 313.689,483.15 311.023,486.983 309.5,491.5C 309.884,486.232 312.217,482.065 316.5,479C 321.659,477.002 326.992,475.835 332.5,475.5 Z"/></g>
<g><path style="opacity:0.035" fill="#fcfcfc" d="M 641.5,476.5 C 649.915,476.745 654.748,481.078 656,489.5C 656.236,514.146 656.236,538.813 656,563.5C 655.694,573.441 652.36,582.108 646,589.5C 644.667,592.167 643.333,594.833 642,597.5C 634.984,603.851 628.651,610.851 623,618.5C 598.221,641.946 574.054,666.113 550.5,691C 547.113,694.053 543.447,696.72 539.5,699C 500.664,699.831 461.998,699.665 423.5,698.5C 461.004,698.832 498.337,698.498 535.5,697.5C 539.691,696.738 543.358,694.904 546.5,692C 572.333,666.167 598.167,640.333 624,614.5C 633.558,604.362 641.892,593.362 649,581.5C 650.258,575.059 651.925,568.725 654,562.5C 654.083,536.501 653.75,510.501 653,484.5C 651.471,483.271 650.304,481.771 649.5,480C 646.691,478.907 644.024,477.74 641.5,476.5 Z"/></g>
<g><path style="opacity:0.345" fill="#dedede" d="M 618.5,510.5 C 613.178,510.98 607.845,511.313 602.5,511.5C 607.792,509.836 613.126,509.503 618.5,510.5 Z"/></g>
<g><path style="opacity:0.03" fill="#fcfcfc" d="M 618.5,510.5 C 619.151,526.868 618.485,542.868 616.5,558.5C 617.247,544.034 617.58,529.534 617.5,515C 617.22,513.605 616.553,512.438 615.5,511.5C 601.069,512.991 586.569,513.658 572,513.5C 562.327,513.5 552.827,513.166 543.5,512.5C 563.185,512.743 582.851,512.41 602.5,511.5C 607.845,511.313 613.178,510.98 618.5,510.5 Z"/></g>
<g><path style="opacity:0.011" fill="#f7f7f7" d="M 543.5,512.5 C 481.494,513.037 419.494,513.037 357.5,512.5C 354.724,512.946 352.224,513.946 350,515.5C 349.311,514.643 348.478,513.977 347.5,513.5C 345.651,528.501 344.985,543.501 345.5,558.5C 434.67,558.309 523.67,558.309 612.5,558.5C 592.993,558.17 573.659,558.503 554.5,559.5C 497.167,559.5 439.833,559.5 382.5,559.5C 369.833,559.5 357.167,559.5 344.5,559.5C 344.5,542.833 344.5,526.167 344.5,509.5C 351.801,510.447 359.135,511.114 366.5,511.5C 380.66,510.923 394.826,510.59 409,510.5C 454.001,510.946 498.834,511.613 543.5,512.5 Z"/></g>
<g><path style="opacity:0.511" fill="#aaaaaa" d="M 382.5,559.5 C 439.833,559.5 497.167,559.5 554.5,559.5C 493.038,560.262 430.205,560.929 366,561.5C 358.5,561.333 351,561.167 343.5,561C 356.673,560.831 369.673,560.331 382.5,559.5 Z"/></g>
<g><path style="opacity:0.974" fill="#b1b1b1" d="M 590.5,594.5 C 529.5,594.5 468.5,594.5 407.5,594.5C 469.014,593.152 530.347,592.652 591.5,593C 590.944,593.383 590.611,593.883 590.5,594.5 Z"/></g>
<g><path style="opacity:0.097" fill="#fdfdfd" d="M 407.5,594.5 C 468.5,594.5 529.5,594.5 590.5,594.5C 594.06,594.717 594.06,595.717 590.5,597.5C 565.175,596.167 539.509,595.5 513.5,595.5C 465.656,595.787 417.989,596.12 370.5,596.5C 369.711,596.217 369.044,595.717 368.5,595C 381.496,594.5 394.496,594.333 407.5,594.5 Z"/></g>
<g><path style="opacity:0.004" fill="#fefffe" d="M 564.5,602.5 C 566.857,602.337 569.19,602.503 571.5,603C 568.879,605.91 565.879,607.41 562.5,607.5C 563.456,605.925 564.123,604.258 564.5,602.5 Z"/></g>
<g><path style="opacity:0.028" fill="#fafafa" d="M 372.5,598.5 C 373.922,598.709 375.255,599.209 376.5,600C 395.882,619.049 414.216,639.049 431.5,660C 447.3,661.068 462.967,661.902 478.5,662.5C 476.5,662.5 474.5,662.5 472.5,662.5C 458.829,662.667 445.163,662.5 431.5,662C 412.362,640.362 392.696,619.195 372.5,598.5 Z"/></g>
<g><path style="opacity:0.263" fill="#efefef" d="M 589.5,598.5 C 568.368,620.132 547.035,641.632 525.5,663C 507.662,663.829 489.995,663.662 472.5,662.5C 474.5,662.5 476.5,662.5 478.5,662.5C 493.837,662.667 509.17,662.5 524.5,662C 543.629,643.37 562.295,624.203 580.5,604.5C 583.536,602.448 586.536,600.448 589.5,598.5 Z"/></g>
<g><path style="opacity:0.075" fill="#f6f6f6" d="M 309.5,491.5 C 309.333,521.169 309.5,550.835 310,580.5C 310.725,582.949 311.725,585.283 313,587.5C 337.033,612.532 360.7,637.865 384,663.5C 393.47,671.969 402.637,680.803 411.5,690C 414.557,692.723 417.89,695.056 421.5,697C 459.499,697.5 497.499,697.667 535.5,697.5C 498.337,698.498 461.004,698.832 423.5,698.5C 420.575,698.54 417.909,697.707 415.5,696C 409.167,690.333 402.833,684.667 396.5,679C 388.694,669.86 380.194,661.36 371,653.5C 351.708,631.207 331.708,609.54 311,588.5C 309.592,584.943 308.592,581.276 308,577.5C 307.333,550.5 307.333,523.5 308,496.5C 308.198,494.618 308.698,492.952 309.5,491.5 Z"/></g>
<g><path style="opacity:0.013" fill="#fefffe" d="M 956.5,751.5 C 956.5,753.5 956.5,755.5 956.5,757.5C 954.167,757.5 951.833,757.5 949.5,757.5C 951.265,756.539 953.265,756.205 955.5,756.5C 955.216,754.585 955.549,752.919 956.5,751.5 Z"/></g>
<g><path style="opacity:0.014" fill="#fefffe" d="M -0.5,753.5 C 0.403972,754.209 0.737305,755.209 0.5,756.5C 2.73535,756.205 4.73535,756.539 6.5,757.5C 4.16667,757.5 1.83333,757.5 -0.5,757.5C -0.5,756.167 -0.5,754.833 -0.5,753.5 Z"/></g>
<g><path style="opacity:0.004" fill="#fefffe" d="M 9.5,757.5 C 10.1667,756.167 10.8333,756.167 11.5,757.5C 10.8333,757.5 10.1667,757.5 9.5,757.5 Z"/></g>
<g><path style="opacity:0.004" fill="#fefefe" d="M 918.5,757.5 C 925.833,756.167 933.167,756.167 940.5,757.5C 933.167,757.5 925.833,757.5 918.5,757.5 Z"/></g>
</svg>
