<?xml version="1.0" encoding="UTF-8"?>
<!DOCTYPE svg PUBLIC "-//W3C//DTD SVG 1.1//EN" "http://www.w3.org/Graphics/SVG/1.1/DTD/svg11.dtd">
<svg xmlns="http://www.w3.org/2000/svg" version="1.1" width="1024px" height="1024px" style="shape-rendering:geometricPrecision; text-rendering:geometricPrecision; image-rendering:optimizeQuality; fill-rule:evenodd; clip-rule:evenodd" xmlns:xlink="http://www.w3.org/1999/xlink">
<g><path style="opacity:0.004" fill="#747575" d="M 828.5,0.5 C 829.833,1.16667 829.833,1.16667 828.5,0.5 Z"/></g>
<g><path style="opacity:0.004" fill="#6d706f" d="M 539.5,5.5 C 540.833,6.16667 540.833,6.16667 539.5,5.5 Z"/></g>
<g><path style="opacity:0.004" fill="#6e6f6f" d="M 603.5,5.5 C 604.833,6.16667 604.833,6.16667 603.5,5.5 Z"/></g>
<g><path style="opacity:0.004" fill="#6f7270" d="M 340.5,16.5 C 341.833,17.1667 341.833,17.1667 340.5,16.5 Z"/></g>
<g><path style="opacity:0.004" fill="#797b78" d="M 1021.5,42.5 C 1022.83,43.1667 1022.83,43.1667 1021.5,42.5 Z"/></g>
<g><path style="opacity:0.004" fill="#707071" d="M 802.5,44.5 C 803.833,45.1667 803.833,45.1667 802.5,44.5 Z"/></g>
<g><path style="opacity:0.004" fill="#6a6e6b" d="M 683.5,61.5 C 684.833,62.1667 684.833,62.1667 683.5,61.5 Z"/></g>
<g><path style="opacity:0.004" fill="#6b6b69" d="M 355.5,77.5 C 356.833,78.1667 356.833,78.1667 355.5,77.5 Z"/></g>
<g><path style="opacity:0.004" fill="#676868" d="M 643.5,93.5 C 644.833,94.1667 644.833,94.1667 643.5,93.5 Z"/></g>
<g><path style="opacity:0.004" fill="#646564" d="M 523.5,101.5 C 524.833,102.167 524.833,102.167 523.5,101.5 Z"/></g>
<g><path style="opacity:0.004" fill="#656666" d="M 308.5,120.5 C 309.833,121.167 309.833,121.167 308.5,120.5 Z"/></g>
<g><path style="opacity:0.004" fill="#6b6a69" d="M 820.5,128.5 C 821.833,129.167 821.833,129.167 820.5,128.5 Z"/></g>
<g><path style="opacity:0.004" fill="#5e5e5e" d="M 515.5,133.5 C 516.833,134.167 516.833,134.167 515.5,133.5 Z"/></g>
<g><path style="opacity:0.004" fill="#626463" d="M 315.5,141.5 C 316.833,142.167 316.833,142.167 315.5,141.5 Z"/></g>
<g><path style="opacity:0.004" fill="#575755" d="M 555.5,165.5 C 556.833,166.167 556.833,166.167 555.5,165.5 Z"/></g>
<g><path style="opacity:0.004" fill="#575758" d="M 403.5,173.5 C 404.833,174.167 404.833,174.167 403.5,173.5 Z"/></g>
<g><path style="opacity:0.004" fill="#6e6f6e" d="M 68.5,176.5 C 69.8333,177.167 69.8333,177.167 68.5,176.5 Z"/></g>
<g><path style="opacity:0.004" fill="#616360" d="M 235.5,189.5 C 236.833,190.167 236.833,190.167 235.5,189.5 Z"/></g>
<g><path style="opacity:0.004" fill="#5d5f5e" d="M 243.5,213.5 C 244.833,214.167 244.833,214.167 243.5,213.5 Z"/></g>
<g><path style="opacity:0.004" fill="#6e706e" d="M 979.5,213.5 C 980.833,214.167 980.833,214.167 979.5,213.5 Z"/></g>
<g><path style="opacity:0.004" fill="#6b6c6a" d="M 76.5,216.5 C 77.8333,217.167 77.8333,217.167 76.5,216.5 Z"/></g>
<g><path style="opacity:0.004" fill="#474645" d="M 443.5,221.5 C 444.833,222.167 444.833,222.167 443.5,221.5 Z"/></g>
<g><path style="opacity:0.004" fill="#434441" d="M 555.5,229.5 C 556.833,230.167 556.833,230.167 555.5,229.5 Z"/></g>
<g><path style="opacity:0.004" fill="#565656" d="M 755.5,229.5 C 756.833,230.167 756.833,230.167 755.5,229.5 Z"/></g>
<g><path style="opacity:0.004" fill="#5e605f" d="M 827.5,229.5 C 828.833,230.167 828.833,230.167 827.5,229.5 Z"/></g>
<g><path style="opacity:0.004" fill="#3f3f3d" d="M 483.5,245.5 C 484.833,246.167 484.833,246.167 483.5,245.5 Z"/></g>
<g><path style="opacity:0.004" fill="#30302f" d="M 563.5,261.5 C 564.833,262.167 564.833,262.167 563.5,261.5 Z"/></g>
<g><path style="opacity:0.004" fill="#2e3030" d="M 411.5,265.5 C 412.833,266.167 412.833,266.167 411.5,265.5 Z"/></g>
<g><path style="opacity:0.995" fill="#010101" d="M 430.5,269.5 C 442.473,281.139 454.473,292.806 466.5,304.5C 471.541,309.374 476.041,314.708 480,320.5C 480.5,333.496 480.667,346.496 480.5,359.5C 500.993,360.497 521.66,360.831 542.5,360.5C 542.5,348.167 542.5,335.833 542.5,323.5C 541.797,321.966 541.964,320.299 543,318.5C 555.035,306.632 566.869,294.632 578.5,282.5C 582.631,278.87 586.631,275.037 590.5,271C 596.405,268.488 602.405,268.154 608.5,270C 612.663,272.821 614.163,276.655 613,281.5C 598.387,298.281 582.887,314.281 566.5,329.5C 565.504,345.325 565.17,361.325 565.5,377.5C 564.925,379.411 563.925,381.078 562.5,382.5C 561.609,383.11 560.609,383.443 559.5,383.5C 527.5,383.5 495.5,383.5 463.5,383.5C 459.584,383.571 457.584,381.238 457.5,376.5C 457.83,360.658 457.496,344.991 456.5,329.5C 451.833,325.167 447.167,320.833 442.5,316.5C 440.833,314.167 438.833,312.167 436.5,310.5C 431.5,304.833 426.167,299.5 420.5,294.5C 418.167,291.5 415.5,288.833 412.5,286.5C 411.4,285.395 410.733,284.062 410.5,282.5C 410.672,281.508 410.338,280.842 409.5,280.5C 409.5,279.5 409.5,278.5 409.5,277.5C 409.642,274.383 410.976,271.883 413.5,270C 419.207,268.897 424.874,268.731 430.5,269.5 Z"/></g>
<g><path style="opacity:0.004" fill="#272828" d="M 430.5,268.5 C 431.833,269.167 431.833,269.167 430.5,268.5 Z"/></g>
<g><path style="opacity:0.004" fill="#2f2f2d" d="M 619.5,269.5 C 620.833,270.167 620.833,270.167 619.5,269.5 Z"/></g>
<g><path style="opacity:0.004" fill="#3b3b39" d="M 643.5,269.5 C 644.833,270.167 644.833,270.167 643.5,269.5 Z"/></g>
<g><path style="opacity:0.004" fill="#636463" d="M 107.5,277.5 C 108.833,278.167 108.833,278.167 107.5,277.5 Z"/></g>
<g><path style="opacity:0.007" fill="#242424" d="M 409.5,277.5 C 409.5,278.5 409.5,279.5 409.5,280.5C 410.338,280.842 410.672,281.508 410.5,282.5C 408.894,283.78 407.894,283.28 407.5,281C 407.808,279.541 408.475,278.374 409.5,277.5 Z"/></g>
<g><path style="opacity:0.004" fill="#222321" d="M 614.5,279.5 C 615.833,280.167 615.833,280.167 614.5,279.5 Z"/></g>
<g><path style="opacity:0.004" fill="#1c1e1d" d="M 578.5,282.5 C 577.833,281.167 577.833,281.167 578.5,282.5 Z"/></g>
<g><path style="opacity:0.004" fill="#252727" d="M 403.5,285.5 C 404.833,286.167 404.833,286.167 403.5,285.5 Z"/></g>
<g><path style="opacity:0.004" fill="#202120" d="M 412.5,286.5 C 411.833,287.167 411.833,287.167 412.5,286.5 Z"/></g>
<g><path style="opacity:0.004" fill="#3f3f40" d="M 299.5,293.5 C 300.833,294.167 300.833,294.167 299.5,293.5 Z"/></g>
<g><path style="opacity:0.008" fill="#1b1c1a" d="M 420.5,294.5 C 419.833,295.167 419.833,295.167 420.5,294.5 Z"/></g>
<g><path style="opacity:0.004" fill="#191c1a" d="M 560.5,295.5 C 561.833,296.167 561.833,296.167 560.5,295.5 Z"/></g>
<g><path style="opacity:0.004" fill="#181c18" d="M 466.5,303.5 C 467.833,304.167 467.833,304.167 466.5,303.5 Z"/></g>
<g><path style="opacity:0.004" fill="#676969" d="M 38.5,307.5 C 39.8333,308.167 39.8333,308.167 38.5,307.5 Z"/></g>
<g><path style="opacity:0.004" fill="#333433" d="M 659.5,309.5 C 660.833,310.167 660.833,310.167 659.5,309.5 Z"/></g>
<g><path style="opacity:0.004" fill="#4a4b4b" d="M 803.5,309.5 C 804.833,310.167 804.833,310.167 803.5,309.5 Z"/></g>
<g><path style="opacity:0.008" fill="#161615" d="M 436.5,310.5 C 435.833,311.167 435.833,311.167 436.5,310.5 Z"/></g>
<g><path style="opacity:0.004" fill="#151617" d="M 442.5,316.5 C 441.833,317.167 441.833,317.167 442.5,316.5 Z"/></g>
<g><path style="opacity:0.004" fill="#171817" d="M 539.5,320.5 C 540.833,321.167 540.833,321.167 539.5,320.5 Z"/></g>
<g><path style="opacity:0.004" fill="#191818" d="M 481.5,327.5 C 482.525,327.897 482.692,328.563 482,329.5C 481.536,328.906 481.369,328.239 481.5,327.5 Z"/></g>
<g><path style="opacity:0.008" fill="#151415" d="M 454.5,336.5 C 455.833,337.167 455.833,337.167 454.5,336.5 Z"/></g>
<g><path style="opacity:0.004" fill="#50514f" d="M 171.5,341.5 C 172.833,342.167 172.833,342.167 171.5,341.5 Z"/></g>
<g><path style="opacity:0.004" fill="#131515" d="M 481.5,344.5 C 482.833,345.167 482.833,345.167 481.5,344.5 Z"/></g>
<g><path style="opacity:0.018" fill="#1d1e1e" d="M 456.5,329.5 C 457.496,344.991 457.83,360.658 457.5,376.5C 456.784,374.444 456.117,372.277 455.5,370C 455.427,356.789 455.761,343.289 456.5,329.5 Z"/></g>
<g><path style="opacity:0.004" fill="#4b4a4b" d="M 187.5,349.5 C 188.833,350.167 188.833,350.167 187.5,349.5 Z"/></g>
<g><path style="opacity:0.004" fill="#555655" d="M 131.5,357.5 C 132.833,358.167 132.833,358.167 131.5,357.5 Z"/></g>
<g><path style="opacity:0.004" fill="#272627" d="M 259.5,357.5 C 260.833,358.167 260.833,358.167 259.5,357.5 Z"/></g>
<g><path style="opacity:0.004" fill="#1e201e" d="M 323.5,357.5 C 324.833,358.167 324.833,358.167 323.5,357.5 Z"/></g>
<g><path style="opacity:0.004" fill="#1d1f1c" d="M 651.5,357.5 C 652.833,358.167 652.833,358.167 651.5,357.5 Z"/></g>
<g><path style="opacity:0.004" fill="#1e201b" d="M 683.5,357.5 C 684.833,358.167 684.833,358.167 683.5,357.5 Z"/></g>
<g><path style="opacity:0.004" fill="#222321" d="M 739.5,357.5 C 740.833,358.167 740.833,358.167 739.5,357.5 Z"/></g>
<g><path style="opacity:0.004" fill="#5b5c5c" d="M 899.5,357.5 C 900.833,358.167 900.833,358.167 899.5,357.5 Z"/></g>
<g><path style="opacity:0.032" fill="#232424" d="M 542.5,323.5 C 542.5,335.833 542.5,348.167 542.5,360.5C 521.66,360.831 500.993,360.497 480.5,359.5C 500.833,359.5 521.167,359.5 541.5,359.5C 541.172,347.322 541.505,335.322 542.5,323.5 Z"/></g>
<g><path style="opacity:0.994" fill="#010101" d="M 416.5,376.5 C 418.806,379.473 421.473,382.14 424.5,384.5C 426.806,387.473 429.473,390.14 432.5,392.5C 440.794,399.961 448.627,407.961 456,416.5C 456.333,416.167 456.667,415.833 457,415.5C 459.981,420.813 463.981,425.146 469,428.5C 470.72,427.616 471.886,426.283 472.5,424.5C 477.913,419.755 482.58,415.088 486.5,410.5C 488.233,409.992 488.566,409.159 487.5,408C 490.257,407.062 492.59,405.562 494.5,403.5C 501.835,403.367 508.835,403.367 515.5,403.5C 517.833,403.5 520.167,403.5 522.5,403.5C 524.717,402.773 527.05,402.94 529.5,404C 534.035,408.703 538.702,413.203 543.5,417.5C 546.871,422.43 551.038,425.763 556,427.5C 573.702,409.965 591.202,392.299 608.5,374.5C 613.357,369.809 618.357,365.309 623.5,361C 622.304,360.346 622.304,359.846 623.5,359.5C 668.762,359.365 714.095,359.532 759.5,360C 762.139,360.653 764.473,361.82 766.5,363.5C 767.939,365.588 768.606,367.921 768.5,370.5C 768.5,391.167 768.5,411.833 768.5,432.5C 768.269,436.293 766.935,439.626 764.5,442.5C 760.167,446.167 756.167,450.167 752.5,454.5C 750.833,455.5 749.5,456.833 748.5,458.5C 747.5,458.833 746.833,459.5 746.5,460.5C 744.167,462.167 742.167,464.167 740.5,466.5C 731.833,475.167 723.167,483.833 714.5,492.5C 703.833,503.167 693.167,513.833 682.5,524.5C 681.078,524.709 679.745,525.209 678.5,526C 653.833,526.667 629.167,526.667 604.5,526C 600.666,522.998 597,519.831 593.5,516.5C 590.033,512.617 589.199,508.284 591,503.5C 600.727,492.608 610.893,482.274 621.5,472.5C 631.167,463.5 640.5,454.167 649.5,444.5C 650.5,444.167 651.167,443.5 651.5,442.5C 653.833,440.833 655.833,438.833 657.5,436.5C 659.167,435.5 660.5,434.167 661.5,432.5C 663.5,431.167 665.167,429.5 666.5,427.5C 669.833,424.833 672.833,421.833 675.5,418.5C 676.5,418.167 677.167,417.5 677.5,416.5C 680.5,414.167 683.167,411.5 685.5,408.5C 686.833,407.833 687.833,406.833 688.5,405.5C 689.167,405.5 689.5,405.167 689.5,404.5C 691.754,403.685 694.087,403.019 696.5,402.5C 700.018,402.628 703.684,402.794 707.5,403C 710.598,403.938 712.931,405.772 714.5,408.5C 714.366,410.292 714.699,411.958 715.5,413.5C 711.205,419.733 706.205,425.4 700.5,430.5C 697.5,432.833 694.833,435.5 692.5,438.5C 689.135,441.386 686.302,444.053 684,446.5C 681.295,449.036 678.795,451.703 676.5,454.5C 673.5,456.833 670.833,459.5 668.5,462.5C 660.167,470.167 652.167,478.167 644.5,486.5C 641.5,488.833 638.833,491.5 636.5,494.5C 633.137,496.821 630.804,499.487 629.5,502.5C 642.658,502.62 655.991,502.453 669.5,502C 687.035,484.632 704.368,467.132 721.5,449.5C 722.167,449.5 722.5,449.167 722.5,448.5C 724.833,446.833 726.833,444.833 728.5,442.5C 733.833,437.5 739.167,432.5 744.5,427.5C 745.222,427.082 745.722,426.416 746,425.5C 746.5,411.504 746.667,397.504 746.5,383.5C 709.33,383.168 672.33,383.502 635.5,384.5C 629.5,389.833 623.833,395.5 618.5,401.5C 612.833,406.5 607.5,411.833 602.5,417.5C 601.833,417.5 601.5,417.833 601.5,418.5C 599.833,419.5 598.5,420.833 597.5,422.5C 589.5,429.833 581.833,437.5 574.5,445.5C 572.833,446.5 571.5,447.833 570.5,449.5C 567.5,451.833 564.833,454.5 562.5,457.5C 559.5,459.833 556.833,462.5 554.5,465.5C 546.394,472.868 538.394,480.368 530.5,488C 531.833,488.667 531.833,489.333 530.5,490C 552.165,512.168 574.165,533.668 596.5,554.5C 603.715,555.15 611.049,555.983 618.5,557C 620.895,558.013 622.561,559.68 623.5,562C 624.636,581.146 624.803,600.313 624,619.5C 623.232,625.705 620.399,630.705 615.5,634.5C 595.368,654.132 575.368,673.965 555.5,694C 552.266,696.467 548.599,697.633 544.5,697.5C 522.167,697.5 499.833,697.5 477.5,697.5C 473.588,697.376 469.921,696.376 466.5,694.5C 459.195,685.528 451.195,677.194 442.5,669.5C 442.167,668.167 441.833,668.167 441.5,669.5C 440.761,669.631 440.094,669.464 439.5,669C 440.451,668.282 440.617,667.449 440,666.5C 435.019,661.433 429.853,656.766 424.5,652.5C 422.833,650.167 420.833,648.167 418.5,646.5C 416.554,644.372 414.721,642.039 413,639.5C 412.329,638.748 411.496,638.414 410.5,638.5C 409.215,636.548 407.549,634.882 405.5,633.5C 404.203,631.839 402.87,630.172 401.5,628.5C 401.167,627.167 400.833,627.167 400.5,628.5C 399.681,625.695 399.181,622.695 399,619.5C 398.333,601.167 398.333,582.833 399,564.5C 399.893,559.673 402.726,557.006 407.5,556.5C 413.69,556.823 419.69,556.49 425.5,555.5C 431.5,550.167 437.167,544.5 442.5,538.5C 456.744,525.855 470.411,512.522 483.5,498.5C 486.964,495.538 490.297,492.371 493.5,489C 492.956,488.283 492.289,487.783 491.5,487.5C 490.833,486.167 489.833,485.167 488.5,484.5C 486.454,480.536 483.454,478.703 479.5,479C 481.332,476.711 480.665,474.878 477.5,473.5C 476.167,471.5 474.5,469.833 472.5,468.5C 471.833,467.167 470.833,466.167 469.5,465.5C 468.833,464.167 467.833,463.167 466.5,462.5C 464.167,459.5 461.5,456.833 458.5,454.5C 456.167,451.5 453.5,448.833 450.5,446.5C 447.833,443.167 444.833,440.167 441.5,437.5C 439.5,434.833 437.167,432.5 434.5,430.5C 434.5,429.833 434.167,429.5 433.5,429.5C 431.5,426.833 429.167,424.5 426.5,422.5C 424.205,419.703 421.705,417.036 419,414.5C 418.676,416.569 417.842,416.902 416.5,415.5C 415.904,414.284 415.737,412.951 416,411.5C 412.902,407.893 409.402,404.893 405.5,402.5C 405.315,400.804 404.481,399.471 403,398.5C 402.683,400.301 402.016,400.634 401,399.5C 399.975,395.945 397.975,392.945 395,390.5C 393.703,391.784 392.536,391.617 391.5,390C 392.238,387.497 391.238,385.663 388.5,384.5C 351.337,383.502 314.004,383.168 276.5,383.5C 276.171,398.01 276.504,412.343 277.5,426.5C 277.833,426.5 278.167,426.5 278.5,426.5C 303.465,451.965 328.632,477.299 354,502.5C 366.295,502.625 378.795,502.458 391.5,502C 392.167,501.667 392.833,501.333 393.5,501C 391.297,498.628 388.963,496.461 386.5,494.5C 384.167,491.5 381.5,488.833 378.5,486.5C 376.167,483.5 373.5,480.833 370.5,478.5C 368.167,475.5 365.5,472.833 362.5,470.5C 360.167,467.5 357.5,464.833 354.5,462.5C 354.5,461.833 354.167,461.5 353.5,461.5C 351.5,458.833 349.167,456.5 346.5,454.5C 344.205,451.703 341.705,449.036 339,446.5C 337.951,447.517 336.784,447.684 335.5,447C 336.517,445.951 336.684,444.784 336,443.5C 334.038,440.43 331.538,438.93 328.5,439C 329.112,436.123 327.779,434.289 324.5,433.5C 323.833,432.167 322.833,431.167 321.5,430.5C 320.167,428.5 318.5,426.833 316.5,425.5C 315.5,423.833 314.167,422.5 312.5,421.5C 311.833,420.167 310.833,419.167 309.5,418.5C 309.631,417.761 309.464,417.094 309,416.5C 308.107,417.711 307.274,417.711 306.5,416.5C 308.542,415.497 308.875,414.163 307.5,412.5C 308.655,408.004 311.321,404.837 315.5,403C 319.821,402.501 324.154,402.334 328.5,402.5C 329.609,403.29 330.942,403.79 332.5,404C 365.122,436.789 397.788,469.289 430.5,501.5C 434.246,505.335 434.412,509.335 431,513.5C 427.581,516.412 424.748,519.746 422.5,523.5C 420.745,524.072 419.078,524.906 417.5,526C 393.167,526.667 368.833,526.667 344.5,526C 343.255,525.209 341.922,524.709 340.5,524.5C 339.71,523.599 338.71,522.932 337.5,522.5C 332.167,516.5 326.5,510.833 320.5,505.5C 319.833,504.167 318.833,503.167 317.5,502.5C 315.167,499.5 312.5,496.833 309.5,494.5C 308.5,492.833 307.167,491.5 305.5,490.5C 304.5,488.833 303.167,487.5 301.5,486.5C 298.833,483.167 295.833,480.167 292.5,477.5C 291.5,475.833 290.167,474.5 288.5,473.5C 286.5,470.833 284.167,468.5 281.5,466.5C 280.5,464.833 279.167,463.5 277.5,462.5C 276.5,460.833 275.167,459.5 273.5,458.5C 269.446,453.779 265.113,449.446 260.5,445.5C 259.833,444.167 258.833,443.167 257.5,442.5C 255.957,440.072 254.957,437.406 254.5,434.5C 254.5,412.167 254.5,389.833 254.5,367.5C 254.392,365.486 255.058,363.82 256.5,362.5C 258.359,361.406 260.359,360.573 262.5,360C 308.109,359.525 353.609,359.358 399,359.5C 402.333,362.167 405.333,365.167 408,368.5C 408.333,368.167 408.667,367.833 409,367.5C 410.672,371.326 413.172,374.326 416.5,376.5 Z M 525.5,457.5 C 524.167,459.5 522.5,461.167 520.5,462.5C 518.167,465.5 515.5,468.167 512.5,470.5C 512.103,471.525 511.437,471.692 510.5,471C 503.017,462.682 495.35,454.516 487.5,446.5C 493.161,440.173 499.161,434.173 505.5,428.5C 509.646,427.353 513.98,427.186 518.5,428C 524.5,434 530.5,440 536.5,446C 533.331,450.335 529.664,454.168 525.5,457.5 Z M 531.5,526.5 C 534.5,528.833 537.167,531.5 539.5,534.5C 541.833,536.167 543.833,538.167 545.5,540.5C 546.5,540.833 547.167,541.5 547.5,542.5C 549.833,544.167 551.833,546.167 553.5,548.5C 554.5,548.833 555.167,549.5 555.5,550.5C 557.167,551.833 558.833,553.167 560.5,554.5C 527.842,555.448 495.176,555.782 462.5,555.5C 478.649,538.937 494.983,522.603 511.5,506.5C 518.521,512.854 525.188,519.521 531.5,526.5 Z M 514.5,581.5 C 523.932,582.77 534.265,582.77 545.5,581.5C 545.833,581.5 546.167,581.5 546.5,581.5C 563.616,581.935 581.616,581.935 600.5,581.5C 596.757,581.459 596.59,582.126 600,583.5C 600.167,584.667 600.333,585.833 600.5,587C 600.17,593.488 600.17,599.988 600.5,606.5C 541.163,606.833 481.83,606.5 422.5,605.5C 422.838,598.139 422.838,590.973 422.5,584C 423.623,582.956 424.956,582.29 426.5,582C 425.5,581.667 424.5,581.333 423.5,581C 426.5,580.333 429.5,580.333 432.5,581C 432.167,581.333 431.833,581.667 431.5,582C 434.014,582.569 436.348,582.069 438.5,580.5C 439.167,580.667 439.833,580.833 440.5,581C 436.586,581.897 436.752,582.397 441,582.5C 445.248,582.397 445.414,581.897 441.5,581C 442.333,580.833 443.167,580.667 444,580.5C 444.939,582.091 446.939,582.757 450,582.5C 451.5,582.333 453,582.167 454.5,582C 452.167,581.667 449.833,581.333 447.5,581C 451.167,580.333 454.833,580.333 458.5,581C 455.063,581.649 454.896,582.149 458,582.5C 459.333,581.833 460.667,581.167 462,580.5C 465.104,580.851 464.937,581.351 461.5,582C 466.351,583.287 471.351,583.287 476.5,582C 474.065,580.997 474.398,580.497 477.5,580.5C 479.376,580.849 480.876,581.516 482,582.5C 482.833,582.333 483.667,582.167 484.5,582C 484.167,581.667 483.833,581.333 483.5,581C 488.167,580.333 492.833,580.333 497.5,581C 492.719,581.699 492.553,582.199 497,582.5C 498.897,582.086 500.397,581.419 501.5,580.5C 503.376,580.849 504.876,581.516 506,582.5C 508.954,582.406 509.121,581.906 506.5,581C 508.5,580.333 510.5,580.333 512.5,581C 511.5,581.333 510.5,581.667 509.5,582C 511.265,582.64 512.932,582.473 514.5,581.5 Z M 582.5,632.5 C 568.672,646.161 554.672,659.661 540.5,673C 520.833,673.667 501.167,673.667 481.5,673C 467.887,659.214 454.553,646.048 441.5,633.5C 464.657,632.167 488.157,631.5 512,631.5C 535.669,631.5 559.169,631.833 582.5,632.5 Z"/></g>
<g><path style="opacity:0.004" fill="#1c1b1b" d="M 400.5,359.5 C 401.833,360.167 401.833,360.167 400.5,359.5 Z"/></g>
<g><path style="opacity:0.004" fill="#1a1b1b" d="M 615.5,360.5 C 616.833,361.167 616.833,361.167 615.5,360.5 Z"/></g>
<g><path style="opacity:0.008" fill="#252625" d="M 256.5,362.5 C 255.833,361.167 255.833,361.167 256.5,362.5 Z"/></g>
<g><path style="opacity:0.004" fill="#232726" d="M 766.5,362.5 C 767.833,363.167 767.833,363.167 766.5,362.5 Z"/></g>
<g><path style="opacity:0.242" fill="#151616" d="M 566.5,329.5 C 566.611,330.117 566.944,330.617 567.5,331C 566.841,346.598 566.174,362.098 565.5,377.5C 565.17,361.325 565.504,345.325 566.5,329.5 Z"/></g>
<g><path style="opacity:0.004" fill="#686969" d="M 987.5,365.5 C 988.833,366.167 988.833,366.167 987.5,365.5 Z"/></g>
<g><path style="opacity:0.004" fill="#242524" d="M 769.5,367.5 C 770.525,367.897 770.692,368.563 770,369.5C 769.536,368.906 769.369,368.239 769.5,367.5 Z"/></g>
<g><path style="opacity:0.004" fill="#646564" d="M 964.5,368.5 C 965.833,369.167 965.833,369.167 964.5,368.5 Z"/></g>
<g><path style="opacity:0.004" fill="#161515" d="M 608.5,374.5 C 607.833,373.167 607.833,373.167 608.5,374.5 Z"/></g>
<g><path style="opacity:0.004" fill="#222123" d="M 251.5,374.5 C 252.833,375.167 252.833,375.167 251.5,374.5 Z"/></g>
<g><path style="opacity:0.004" fill="#161616" d="M 416.5,375.5 C 417.833,376.167 417.833,376.167 416.5,375.5 Z"/></g>
<g><path style="opacity:0.004" fill="#21221f" d="M 251.5,376.5 C 252.833,377.167 252.833,377.167 251.5,376.5 Z"/></g>
<g><path style="opacity:0.008" fill="#171716" d="M 455.5,377.5 C 456.833,378.167 456.833,378.167 455.5,377.5 Z"/></g>
<g><path style="opacity:0.004" fill="#222020" d="M 770.5,378.5 C 771.833,379.167 771.833,379.167 770.5,378.5 Z"/></g>
<g><path style="opacity:0.004" fill="#20201f" d="M 251.5,379.5 C 252.833,380.167 252.833,380.167 251.5,379.5 Z"/></g>
<g><path style="opacity:0.004" fill="#20211f" d="M 251.5,381.5 C 252.833,382.167 252.833,382.167 251.5,381.5 Z"/></g>
<g><path style="opacity:0.008" fill="#161814" d="M 562.5,382.5 C 563.833,383.167 563.833,383.167 562.5,382.5 Z"/></g>
<g><path style="opacity:0.004" fill="#1e1e1e" d="M 251.5,383.5 C 252.833,384.167 252.833,384.167 251.5,383.5 Z"/></g>
<g><path style="opacity:0.339" fill="#111010" d="M 388.5,384.5 C 385.903,384.721 385.903,385.221 388.5,386C 387.167,386.667 385.833,386.667 384.5,386C 384.833,385.667 385.167,385.333 385.5,385C 349.502,384.5 313.502,384.333 277.5,384.5C 277.5,398.5 277.5,412.5 277.5,426.5C 276.504,412.343 276.171,398.01 276.5,383.5C 314.004,383.168 351.337,383.502 388.5,384.5 Z"/></g>
<g><path style="opacity:0.004" fill="#171614" d="M 424.5,383.5 C 425.833,384.167 425.833,384.167 424.5,383.5 Z"/></g>
<g><path style="opacity:0.646" fill="#0d0c0c" d="M 463.5,383.5 C 495.5,383.5 527.5,383.5 559.5,383.5C 558.122,384.234 556.622,384.901 555,385.5C 524.402,384.837 493.902,384.17 463.5,383.5 Z"/></g>
<g><path style="opacity:0.274" fill="#0f0f0f" d="M 635.5,384.5 C 672.33,383.502 709.33,383.168 746.5,383.5C 746.667,397.504 746.5,411.504 746,425.5C 745.722,426.416 745.222,427.082 744.5,427.5C 744.196,426.85 743.863,426.183 743.5,425.5C 746.105,422.911 746.105,420.411 743.5,418C 745.998,415.815 745.998,413.482 743.5,411C 743.944,409.238 744.444,409.405 745,411.5C 745.667,409.167 745.667,406.833 745,404.5C 744.103,408.414 743.603,408.248 743.5,404C 745.096,401.607 745.763,398.274 745.5,394C 745.333,391.5 745.167,389 745,386.5C 744.667,388.167 744.333,389.833 744,391.5C 743.503,389.19 743.337,386.857 743.5,384.5C 707.5,384.5 671.5,384.5 635.5,384.5 Z"/></g>
<g><path style="opacity:0.004" fill="#1f1f1f" d="M 770.5,384.5 C 771.833,385.167 771.833,385.167 770.5,384.5 Z"/></g>
<g><path style="opacity:0.024" fill="#121010" d="M 278.5,385.5 C 279.833,386.167 279.833,386.167 278.5,385.5 Z"/></g>
<g><path style="opacity:0.004" fill="#181718" d="M 464.5,385.5 C 465.833,386.167 465.833,386.167 464.5,385.5 Z"/></g>
<g><path style="opacity:0.004" fill="#191817" d="M 468.5,386.5 C 469.251,385.427 470.251,385.26 471.5,386C 470.552,386.483 469.552,386.649 468.5,386.5 Z"/></g>
<g><path style="opacity:0.004" fill="#131211" d="M 640.5,385.5 C 641.833,386.167 641.833,386.167 640.5,385.5 Z"/></g>
<g><path style="opacity:0.004" fill="#141313" d="M 675.5,385.5 C 676.833,386.167 676.833,386.167 675.5,385.5 Z"/></g>
<g><path style="opacity:0.004" fill="#161413" d="M 694.5,385.5 C 695.833,386.167 695.833,386.167 694.5,385.5 Z"/></g>
<g><path style="opacity:0.004" fill="#121613" d="M 384.5,387.5 C 385.833,388.167 385.833,388.167 384.5,387.5 Z"/></g>
<g><path style="opacity:0.004" fill="#141213" d="M 634.5,388.5 C 635.833,389.167 635.833,389.167 634.5,388.5 Z"/></g>
<g><path style="opacity:0.004" fill="#1e1e1d" d="M 251.5,389.5 C 252.833,390.167 252.833,390.167 251.5,389.5 Z"/></g>
<g><path style="opacity:0.004" fill="#626264" d="M 947.5,389.5 C 948.833,390.167 948.833,390.167 947.5,389.5 Z"/></g>
<g><path style="opacity:0.004" fill="#171616" d="M 432.5,391.5 C 433.833,392.167 433.833,392.167 432.5,391.5 Z"/></g>
<g><path style="opacity:0.004" fill="#131214" d="M 278.5,393.5 C 279.833,394.167 279.833,394.167 278.5,393.5 Z"/></g>
<g><path style="opacity:0.005" fill="#131214" d="M 743.5,392.5 C 744.598,393.601 744.765,394.934 744,396.5C 743.51,395.207 743.343,393.873 743.5,392.5 Z"/></g>
<g><path style="opacity:0.004" fill="#1d1e1c" d="M 251.5,395.5 C 252.833,396.167 252.833,396.167 251.5,395.5 Z"/></g>
<g><path style="opacity:0.004" fill="#131612" d="M 584.5,395.5 C 585.833,396.167 585.833,396.167 584.5,395.5 Z"/></g>
<g><path style="opacity:0.006" fill="#1e1d1c" d="M 251.5,397.5 C 252.525,397.897 252.692,398.563 252,399.5C 251.536,398.906 251.369,398.239 251.5,397.5 Z"/></g>
<g><path style="opacity:0.004" fill="#141614" d="M 299.5,397.5 C 300.833,398.167 300.833,398.167 299.5,397.5 Z"/></g>
<g><path style="opacity:0.006" fill="#131413" d="M 743.5,397.5 C 744.525,397.897 744.692,398.563 744,399.5C 743.536,398.906 743.369,398.239 743.5,397.5 Z"/></g>
<g><path style="opacity:0.004" fill="#5b5c5c" d="M 907.5,397.5 C 908.833,398.167 908.833,398.167 907.5,397.5 Z"/></g>
<g><path style="opacity:0.004" fill="#141513" d="M 689.5,399.5 C 690.833,400.167 690.833,400.167 689.5,399.5 Z"/></g>
<g><path style="opacity:0.004" fill="#1e1f1d" d="M 251.5,400.5 C 252.833,401.167 252.833,401.167 251.5,400.5 Z"/></g>
<g><path style="opacity:0.004" fill="#181818" d="M 321.5,400.5 C 322.833,401.167 322.833,401.167 321.5,400.5 Z"/></g>
<g><path style="opacity:0.004" fill="#181916" d="M 505.5,400.5 C 506.833,401.167 506.833,401.167 505.5,400.5 Z"/></g>
<g><path style="opacity:0.004" fill="#171917" d="M 508.5,400.5 C 509.833,401.167 509.833,401.167 508.5,400.5 Z"/></g>
<g><path style="opacity:0.004" fill="#171717" d="M 513.5,400.5 C 514.833,401.167 514.833,401.167 513.5,400.5 Z"/></g>
<g><path style="opacity:0.004" fill="#161716" d="M 698.5,400.5 C 699.833,401.167 699.833,401.167 698.5,400.5 Z"/></g>
<g><path style="opacity:0.004" fill="#151615" d="M 328.5,402.5 C 328.897,401.475 329.563,401.308 330.5,402C 329.906,402.464 329.239,402.631 328.5,402.5 Z"/></g>
<g><path style="opacity:0.004" fill="#181816" d="M 494.5,402.5 C 494.369,401.761 494.536,401.094 495,400.5C 495.692,401.437 495.525,402.103 494.5,402.5 Z"/></g>
<g><path style="opacity:0.004" fill="#141414" d="M 618.5,401.5 C 619.833,402.167 619.833,402.167 618.5,401.5 Z"/></g>
<g><path style="opacity:0.004" fill="#141515" d="M 690.5,401.5 C 691.833,402.167 691.833,402.167 690.5,401.5 Z"/></g>
<g><path style="opacity:0.004" fill="#161918" d="M 311.5,402.5 C 312.833,403.167 312.833,403.167 311.5,402.5 Z"/></g>
<g><path style="opacity:0.004" fill="#151312" d="M 405.5,402.5 C 404.833,403.167 404.833,403.167 405.5,402.5 Z"/></g>
<g><path style="opacity:0.008" fill="#181817" d="M 494.5,402.5 C 494.5,402.833 494.5,403.167 494.5,403.5C 491.833,403.167 491.833,402.833 494.5,402.5 Z"/></g>
<g><path style="opacity:0.008" fill="#212120" d="M 522.5,403.5 C 520.167,403.5 517.833,403.5 515.5,403.5C 517.627,401.574 519.96,401.574 522.5,403.5 Z"/></g>
<g><path style="opacity:0.004" fill="#131312" d="M 676.5,402.5 C 677.833,403.167 677.833,403.167 676.5,402.5 Z"/></g>
<g><path style="opacity:0.009" fill="#171615" d="M 689.5,404.5 C 688.833,404.5 688.5,404.833 688.5,405.5C 687.957,405.44 687.624,405.107 687.5,404.5C 688.257,403.227 688.923,403.227 689.5,404.5 Z"/></g>
<g><path style="opacity:0.004" fill="#474646" d="M 179.5,405.5 C 180.833,406.167 180.833,406.167 179.5,405.5 Z"/></g>
<g><path style="opacity:0.004" fill="#1c1e1e" d="M 251.5,405.5 C 252.833,406.167 252.833,406.167 251.5,405.5 Z"/></g>
<g><path style="opacity:0.291" fill="#232323" d="M 254.5,367.5 C 254.5,389.833 254.5,412.167 254.5,434.5C 253.761,434.631 253.094,434.464 252.5,434C 253.162,411.736 253.828,389.569 254.5,367.5 Z"/></g>
<g><path style="opacity:0.004" fill="#161614" d="M 685.5,408.5 C 684.833,407.167 684.833,407.167 685.5,408.5 Z"/></g>
<g><path style="opacity:0.004" fill="#161815" d="M 714.5,407.5 C 715.833,408.167 715.833,408.167 714.5,407.5 Z"/></g>
<g><path style="opacity:0.004" fill="#131613" d="M 396.5,408.5 C 397.833,409.167 397.833,409.167 396.5,408.5 Z"/></g>
<g><path style="opacity:0.004" fill="#131414" d="M 278.5,409.5 C 279.833,410.167 279.833,410.167 278.5,409.5 Z"/></g>
<g><path style="opacity:0.008" fill="#141513" d="M 486.5,410.5 C 485.833,409.167 485.833,409.167 486.5,410.5 Z"/></g>
<g><path style="opacity:0.004" fill="#141314" d="M 679.5,409.5 C 680.833,410.167 680.833,410.167 679.5,409.5 Z"/></g>
<g><path style="opacity:0.004" fill="#1d1e1d" d="M 251.5,413.5 C 252.833,414.167 252.833,414.167 251.5,413.5 Z"/></g>
<g><path style="opacity:0.004" fill="#141414" d="M 363.5,413.5 C 364.833,414.167 364.833,414.167 363.5,413.5 Z"/></g>
<g><path style="opacity:0.012" fill="#181716" d="M 715.5,413.5 C 716.833,414.167 716.833,414.167 715.5,413.5 Z"/></g>
<g><path style="opacity:0.006" fill="#131515" d="M 743.5,413.5 C 744.525,413.897 744.692,414.563 744,415.5C 743.536,414.906 743.369,414.239 743.5,413.5 Z"/></g>
<g><path style="opacity:0.004" fill="#131414" d="M 278.5,414.5 C 279.833,415.167 279.833,415.167 278.5,414.5 Z"/></g>
<g><path style="opacity:0.008" fill="#141415" d="M 677.5,416.5 C 676.833,415.167 676.833,415.167 677.5,416.5 Z"/></g>
<g><path style="opacity:0.004" fill="#141413" d="M 543.5,416.5 C 544.833,417.167 544.833,417.167 543.5,416.5 Z"/></g>
<g><path style="opacity:0.004" fill="#151415" d="M 420.5,418.5 C 419.833,417.167 419.833,417.167 420.5,418.5 Z"/></g>
<g><path style="opacity:0.004" fill="#161415" d="M 602.5,417.5 C 603.833,418.167 603.833,418.167 602.5,417.5 Z"/></g>
<g><path style="opacity:0.004" fill="#151613" d="M 675.5,418.5 C 674.833,417.167 674.833,417.167 675.5,418.5 Z"/></g>
<g><path style="opacity:0.004" fill="#171816" d="M 309.5,418.5 C 309.631,419.239 309.464,419.906 309,420.5C 308.308,419.563 308.475,418.897 309.5,418.5 Z"/></g>
<g><path style="opacity:0.008" fill="#151313" d="M 420.5,418.5 C 421.833,419.167 421.833,419.167 420.5,418.5 Z"/></g>
<g><path style="opacity:0.004" fill="#151714" d="M 601.5,418.5 C 601.833,418.5 602.167,418.5 602.5,418.5C 602.315,419.17 601.981,419.17 601.5,418.5 Z"/></g>
<g><path style="opacity:0.004" fill="#171714" d="M 713.5,418.5 C 714.833,419.167 714.833,419.167 713.5,418.5 Z"/></g>
<g><path style="opacity:0.071" fill="#2c2b2a" d="M 768.5,370.5 C 769.173,389.236 769.839,408.069 770.5,427C 769.891,428.948 769.224,430.782 768.5,432.5C 768.5,411.833 768.5,391.167 768.5,370.5 Z"/></g>
<g><path style="opacity:0.004" fill="#141412" d="M 472.5,420.5 C 473.833,421.167 473.833,421.167 472.5,420.5 Z"/></g>
<g><path style="opacity:0.008" fill="#1e1e1f" d="M 251.5,421.5 C 252.833,422.167 252.833,422.167 251.5,421.5 Z"/></g>
<g><path style="opacity:0.012" fill="#131614" d="M 312.5,421.5 C 311.833,422.167 311.833,422.167 312.5,421.5 Z"/></g>
<g><path style="opacity:0.004" fill="#161616" d="M 743.5,421.5 C 744.833,422.167 744.833,422.167 743.5,421.5 Z"/></g>
<g><path style="opacity:0.004" fill="#676768" d="M 979.5,421.5 C 980.833,422.167 980.833,422.167 979.5,421.5 Z"/></g>
<g><path style="opacity:0.004" fill="#696869" d="M 987.5,421.5 C 988.833,422.167 988.833,422.167 987.5,421.5 Z"/></g>
<g><path style="opacity:0.008" fill="#111413" d="M 426.5,422.5 C 425.833,423.167 425.833,423.167 426.5,422.5 Z"/></g>
<g><path style="opacity:0.006" fill="#151413" d="M 597.5,422.5 C 598.239,422.369 598.906,422.536 599.5,423C 598.563,423.692 597.897,423.525 597.5,422.5 Z"/></g>
<g><path style="opacity:0.004" fill="#131512" d="M 472.5,424.5 C 471.833,423.167 471.833,423.167 472.5,424.5 Z"/></g>
<g><path style="opacity:0.004" fill="#141412" d="M 552.5,423.5 C 553.833,424.167 553.833,424.167 552.5,423.5 Z"/></g>
<g><path style="opacity:0.004" fill="#141717" d="M 278.5,425.5 C 279.833,426.167 279.833,426.167 278.5,425.5 Z"/></g>
<g><path style="opacity:0.004" fill="#131413" d="M 316.5,425.5 C 315.833,426.167 315.833,426.167 316.5,425.5 Z"/></g>
<g><path style="opacity:0.008" fill="#141614" d="M 666.5,427.5 C 665.833,426.167 665.833,426.167 666.5,427.5 Z"/></g>
<g><path style="opacity:0.004" fill="#151613" d="M 321.5,430.5 C 320.833,431.167 320.833,431.167 321.5,430.5 Z"/></g>
<g><path style="opacity:0.004" fill="#131412" d="M 433.5,429.5 C 434.167,429.5 434.5,429.833 434.5,430.5C 433.749,431.573 432.749,431.74 431.5,431C 432.044,430.283 432.711,429.783 433.5,429.5 Z"/></g>
<g><path style="opacity:0.004" fill="#151514" d="M 700.5,430.5 C 701.833,431.167 701.833,431.167 700.5,430.5 Z"/></g>
<g><path style="opacity:0.004" fill="#161613" d="M 661.5,432.5 C 660.833,431.167 660.833,431.167 661.5,432.5 Z"/></g>
<g><path style="opacity:0.004" fill="#141614" d="M 324.5,433.5 C 323.833,434.167 323.833,434.167 324.5,433.5 Z"/></g>
<g><path style="opacity:0.004" fill="#151213" d="M 656.5,434.5 C 655.833,433.167 655.833,433.167 656.5,434.5 Z"/></g>
<g><path style="opacity:0.004" fill="#151515" d="M 656.5,434.5 C 657.338,434.842 657.672,435.508 657.5,436.5C 656.662,436.158 656.328,435.492 656.5,434.5 Z"/></g>
<g><path style="opacity:0.008" fill="#111312" d="M 441.5,437.5 C 440.833,438.167 440.833,438.167 441.5,437.5 Z"/></g>
<g><path style="opacity:0.008" fill="#141513" d="M 692.5,438.5 C 693.833,439.167 693.833,439.167 692.5,438.5 Z"/></g>
<g><path style="opacity:0.004" fill="#161613" d="M 651.5,442.5 C 650.833,441.167 650.833,441.167 651.5,442.5 Z"/></g>
<g><path style="opacity:0.008" fill="#151614" d="M 728.5,442.5 C 727.833,441.167 727.833,441.167 728.5,442.5 Z"/></g>
<g><path style="opacity:0.004" fill="#20201f" d="M 257.5,442.5 C 256.833,443.167 256.833,443.167 257.5,442.5 Z"/></g>
<g><path style="opacity:0.004" fill="#1f1e1c" d="M 764.5,442.5 C 765.833,443.167 765.833,443.167 764.5,442.5 Z"/></g>
<g><path style="opacity:0.004" fill="#151513" d="M 649.5,444.5 C 648.833,443.167 648.833,443.167 649.5,444.5 Z"/></g>
<g><path style="opacity:0.004" fill="#1f1f1d" d="M 260.5,445.5 C 259.833,446.167 259.833,446.167 260.5,445.5 Z"/></g>
<g><path style="opacity:0.004" fill="#151311" d="M 574.5,445.5 C 575.833,446.167 575.833,446.167 574.5,445.5 Z"/></g>
<g><path style="opacity:0.004" fill="#121412" d="M 447.5,446.5 C 448.833,447.167 448.833,447.167 447.5,446.5 Z"/></g>
<g><path style="opacity:0.004" fill="#121413" d="M 450.5,446.5 C 449.833,447.167 449.833,447.167 450.5,446.5 Z"/></g>
<g><path style="opacity:0.004" fill="#121311" d="M 686.5,446.5 C 687.833,447.167 687.833,447.167 686.5,446.5 Z"/></g>
<g><path style="opacity:0.008" fill="#141515" d="M 722.5,448.5 C 721.833,448.5 721.5,448.833 721.5,449.5C 720.957,449.44 720.624,449.107 720.5,448.5C 721.257,447.227 721.923,447.227 722.5,448.5 Z"/></g>
<g><path style="opacity:0.004" fill="#141513" d="M 570.5,449.5 C 571.833,450.167 571.833,450.167 570.5,449.5 Z"/></g>
<g><path style="opacity:0.004" fill="#131513" d="M 346.5,454.5 C 345.833,455.167 345.833,455.167 346.5,454.5 Z"/></g>
<g><path style="opacity:0.004" fill="#121211" d="M 455.5,454.5 C 456.833,455.167 456.833,455.167 455.5,454.5 Z"/></g>
<g><path style="opacity:0.008" fill="#111512" d="M 458.5,454.5 C 457.833,455.167 457.833,455.167 458.5,454.5 Z"/></g>
<g><path style="opacity:0.008" fill="#151712" d="M 676.5,454.5 C 677.833,455.167 677.833,455.167 676.5,454.5 Z"/></g>
<g><path style="opacity:0.008" fill="#1a1c1b" d="M 752.5,454.5 C 753.833,455.167 753.833,455.167 752.5,454.5 Z"/></g>
<g><path style="opacity:0.004" fill="#141514" d="M 562.5,457.5 C 563.833,458.167 563.833,458.167 562.5,457.5 Z"/></g>
<g><path style="opacity:0.004" fill="#1d1f1b" d="M 273.5,458.5 C 272.833,459.167 272.833,459.167 273.5,458.5 Z"/></g>
<g><path style="opacity:0.004" fill="#161614" d="M 632.5,458.5 C 633.833,459.167 633.833,459.167 632.5,458.5 Z"/></g>
<g><path style="opacity:0.004" fill="#1d1c1a" d="M 748.5,458.5 C 749.833,459.167 749.833,459.167 748.5,458.5 Z"/></g>
<g><path style="opacity:0.004" fill="#1b1c1a" d="M 746.5,460.5 C 747.833,461.167 747.833,461.167 746.5,460.5 Z"/></g>
<g><path style="opacity:0.009" fill="#151514" d="M 353.5,461.5 C 354.167,461.5 354.5,461.833 354.5,462.5C 354.304,464.646 353.304,464.812 351.5,463C 352.044,462.283 352.711,461.783 353.5,461.5 Z"/></g>
<g><path style="opacity:0.004" fill="#6e6e6c" d="M 1003.5,461.5 C 1004.83,462.167 1004.83,462.167 1003.5,461.5 Z"/></g>
<g><path style="opacity:0.004" fill="#1a1b17" d="M 277.5,462.5 C 276.833,463.167 276.833,463.167 277.5,462.5 Z"/></g>
<g><path style="opacity:0.004" fill="#121311" d="M 463.5,462.5 C 464.833,463.167 464.833,463.167 463.5,462.5 Z"/></g>
<g><path style="opacity:0.004" fill="#131514" d="M 466.5,462.5 C 466.631,463.239 466.464,463.906 466,464.5C 465.308,463.563 465.475,462.897 466.5,462.5 Z"/></g>
<g><path style="opacity:0.004" fill="#131612" d="M 668.5,462.5 C 669.833,463.167 669.833,463.167 668.5,462.5 Z"/></g>
<g><path style="opacity:0.004" fill="#141411" d="M 469.5,465.5 C 468.833,466.167 468.833,466.167 469.5,465.5 Z"/></g>
<g><path style="opacity:0.004" fill="#151415" d="M 554.5,465.5 C 555.833,466.167 555.833,466.167 554.5,465.5 Z"/></g>
<g><path style="opacity:0.004" fill="#1e1d18" d="M 281.5,466.5 C 280.833,467.167 280.833,467.167 281.5,466.5 Z"/></g>
<g><path style="opacity:0.004" fill="#151713" d="M 624.5,466.5 C 625.833,467.167 625.833,467.167 624.5,466.5 Z"/></g>
<g><path style="opacity:0.004" fill="#1c1c1a" d="M 740.5,466.5 C 741.833,467.167 741.833,467.167 740.5,466.5 Z"/></g>
<g><path style="opacity:0.004" fill="#131412" d="M 472.5,468.5 C 471.833,469.167 471.833,469.167 472.5,468.5 Z"/></g>
<g><path style="opacity:0.004" fill="#525352" d="M 147.5,469.5 C 148.833,470.167 148.833,470.167 147.5,469.5 Z"/></g>
<g><path style="opacity:0.004" fill="#1d1d1d" d="M 275.5,469.5 C 276.833,470.167 276.833,470.167 275.5,469.5 Z"/></g>
<g><path style="opacity:0.004" fill="#151615" d="M 362.5,470.5 C 361.833,471.167 361.833,471.167 362.5,470.5 Z"/></g>
<g><path style="opacity:0.004" fill="#161614" d="M 621.5,472.5 C 620.833,471.167 620.833,471.167 621.5,472.5 Z"/></g>
<g><path style="opacity:0.004" fill="#1b1c19" d="M 288.5,473.5 C 287.833,474.167 287.833,474.167 288.5,473.5 Z"/></g>
<g><path style="opacity:0.004" fill="#141411" d="M 477.5,473.5 C 476.833,474.167 476.833,474.167 477.5,473.5 Z"/></g>
<g><path style="opacity:0.004" fill="#141715" d="M 616.5,474.5 C 617.833,475.167 617.833,475.167 616.5,474.5 Z"/></g>
<g><path style="opacity:0.004" fill="#1c1c1a" d="M 292.5,477.5 C 291.833,478.167 291.833,478.167 292.5,477.5 Z"/></g>
<g><path style="opacity:0.004" fill="#141616" d="M 370.5,478.5 C 369.833,479.167 369.833,479.167 370.5,478.5 Z"/></g>
<g><path style="opacity:0.004" fill="#131313" d="M 484.5,482.5 C 485.833,483.167 485.833,483.167 484.5,482.5 Z"/></g>
<g><path style="opacity:0.004" fill="#101110" d="M 488.5,484.5 C 487.833,485.167 487.833,485.167 488.5,484.5 Z"/></g>
<g><path style="opacity:0.008" fill="#191a15" d="M 301.5,486.5 C 300.833,487.167 300.833,487.167 301.5,486.5 Z"/></g>
<g><path style="opacity:0.004" fill="#151414" d="M 378.5,486.5 C 377.833,487.167 377.833,487.167 378.5,486.5 Z"/></g>
<g><path style="opacity:0.004" fill="#141313" d="M 644.5,486.5 C 645.833,487.167 645.833,487.167 644.5,486.5 Z"/></g>
<g><path style="opacity:0.004" fill="#121311" d="M 491.5,487.5 C 490.833,488.167 490.833,488.167 491.5,487.5 Z"/></g>
<g><path style="opacity:0.008" fill="#1c1a19" d="M 305.5,490.5 C 304.833,491.167 304.833,491.167 305.5,490.5 Z"/></g>
<g><path style="opacity:0.004" fill="#1a1b19" d="M 714.5,492.5 C 715.833,493.167 715.833,493.167 714.5,492.5 Z"/></g>
<g><path style="opacity:0.008" fill="#181816" d="M 309.5,494.5 C 308.833,495.167 308.833,495.167 309.5,494.5 Z"/></g>
<g><path style="opacity:0.008" fill="#161714" d="M 386.5,494.5 C 385.833,495.167 385.833,495.167 386.5,494.5 Z"/></g>
<g><path style="opacity:0.008" fill="#141412" d="M 636.5,494.5 C 637.833,495.167 637.833,495.167 636.5,494.5 Z"/></g>
<g><path style="opacity:0.004" fill="#141312" d="M 483.5,498.5 C 482.833,497.167 482.833,497.167 483.5,498.5 Z"/></g>
<g><path style="opacity:0.004" fill="#151515" d="M 362.5,500.5 C 363.833,501.167 363.833,501.167 362.5,500.5 Z"/></g>
<g><path style="opacity:0.004" fill="#151613" d="M 370.5,500.5 C 371.833,501.167 371.833,501.167 370.5,500.5 Z"/></g>
<g><path style="opacity:0.004" fill="#141413" d="M 378.5,500.5 C 379.833,501.167 379.833,501.167 378.5,500.5 Z"/></g>
<g><path style="opacity:0.006" fill="#171714" d="M 386.5,501.5 C 386.897,500.475 387.563,500.308 388.5,501C 387.906,501.464 387.239,501.631 386.5,501.5 Z"/></g>
<g><path style="opacity:0.004" fill="#181616" d="M 632.5,500.5 C 633.833,501.167 633.833,501.167 632.5,500.5 Z"/></g>
<g><path style="opacity:0.004" fill="#161514" d="M 634.5,500.5 C 635.833,501.167 635.833,501.167 634.5,500.5 Z"/></g>
<g><path style="opacity:0.004" fill="#161714" d="M 642.5,501.5 C 642.897,500.475 643.563,500.308 644.5,501C 643.906,501.464 643.239,501.631 642.5,501.5 Z"/></g>
<g><path style="opacity:0.004" fill="#151512" d="M 650.5,500.5 C 651.833,501.167 651.833,501.167 650.5,500.5 Z"/></g>
<g><path style="opacity:0.004" fill="#50504f" d="M 171.5,501.5 C 172.833,502.167 172.833,502.167 171.5,501.5 Z"/></g>
<g><path style="opacity:0.004" fill="#171815" d="M 317.5,502.5 C 316.833,503.167 316.833,503.167 317.5,502.5 Z"/></g>
<g><path style="opacity:0.004" fill="#191917" d="M 320.5,505.5 C 319.833,506.167 319.833,506.167 320.5,505.5 Z"/></g>
<g><path style="opacity:0.004" fill="#171717" d="M 434.5,508.5 C 435.833,509.167 435.833,509.167 434.5,508.5 Z"/></g>
<g><path style="opacity:0.004" fill="#171718" d="M 588.5,510.5 C 589.833,511.167 589.833,511.167 588.5,510.5 Z"/></g>
<g><path style="opacity:0.004" fill="#161717" d="M 593.5,516.5 C 592.833,517.167 592.833,517.167 593.5,516.5 Z"/></g>
<g><path style="opacity:0.008" fill="#191a17" d="M 337.5,522.5 C 336.833,523.167 336.833,523.167 337.5,522.5 Z"/></g>
<g><path style="opacity:0.008" fill="#181817" d="M 422.5,523.5 C 423.833,524.167 423.833,524.167 422.5,523.5 Z"/></g>
<g><path style="opacity:0.006" fill="#1d1a19" d="M 340.5,524.5 C 340.103,525.525 339.437,525.692 338.5,525C 339.094,524.536 339.761,524.369 340.5,524.5 Z"/></g>
<g><path style="opacity:0.008" fill="#1f201d" d="M 682.5,524.5 C 683.833,525.167 683.833,525.167 682.5,524.5 Z"/></g>
<g><path style="opacity:0.004" fill="#1e221e" d="M 679.5,526.5 C 680.833,527.167 680.833,527.167 679.5,526.5 Z"/></g>
<g><path style="opacity:0.004" fill="#6e706e" d="M 997.5,530.5 C 998.833,531.167 998.833,531.167 997.5,530.5 Z"/></g>
<g><path style="opacity:0.004" fill="#6c6c6c" d="M 979.5,533.5 C 980.833,534.167 980.833,534.167 979.5,533.5 Z"/></g>
<g><path style="opacity:0.004" fill="#161415" d="M 578.5,535.5 C 579.833,536.167 579.833,536.167 578.5,535.5 Z"/></g>
<g><path style="opacity:0.004" fill="#131312" d="M 442.5,538.5 C 441.833,537.167 441.833,537.167 442.5,538.5 Z"/></g>
<g><path style="opacity:0.004" fill="#6f7070" d="M 996.5,544.5 C 997.833,545.167 997.833,545.167 996.5,544.5 Z"/></g>
<g><path style="opacity:0.004" fill="#121414" d="M 431.5,545.5 C 432.833,546.167 432.833,546.167 431.5,545.5 Z"/></g>
<g><path style="opacity:0.012" fill="#161713" d="M 595.5,552.5 C 594.833,551.167 594.833,551.167 595.5,552.5 Z"/></g>
<g><path style="opacity:0.004" fill="#141714" d="M 595.5,552.5 C 596.167,552.5 596.5,552.833 596.5,553.5C 596.167,553.167 595.833,552.833 595.5,552.5 Z"/></g>
<g><path style="opacity:0.004" fill="#666767" d="M 924.5,552.5 C 925.833,553.167 925.833,553.167 924.5,552.5 Z"/></g>
<g><path style="opacity:0.004" fill="#181919" d="M 596.5,553.5 C 597.833,554.167 597.833,554.167 596.5,553.5 Z"/></g>
<g><path style="opacity:0.012" fill="#222221" d="M 425.5,555.5 C 419.69,556.49 413.69,556.823 407.5,556.5C 409.292,555.691 411.292,555.191 413.5,555C 412.112,554.111 412.278,553.611 414,553.5C 415.722,553.611 415.888,554.111 414.5,555C 418.152,555.499 421.818,555.665 425.5,555.5 Z"/></g>
<g><path style="opacity:0.033" fill="#232322" d="M 560.5,554.5 C 561.289,554.783 561.956,555.283 562.5,556C 527.791,556.827 494.458,556.66 462.5,555.5C 495.176,555.782 527.842,555.448 560.5,554.5 Z"/></g>
<g><path style="opacity:0.004" fill="#656764" d="M 900.5,568.5 C 901.833,569.167 901.833,569.167 900.5,568.5 Z"/></g>
<g><path style="opacity:0.042" fill="#181818" d="M 600.5,581.5 C 581.616,581.935 563.616,581.935 546.5,581.5C 546.167,581.5 545.833,581.5 545.5,581.5C 534.265,582.77 523.932,582.77 514.5,581.5C 512.932,582.473 511.265,582.64 509.5,582C 510.5,581.667 511.5,581.333 512.5,581C 510.5,580.333 508.5,580.333 506.5,581C 509.121,581.906 508.954,582.406 506,582.5C 504.876,581.516 503.376,580.849 501.5,580.5C 500.397,581.419 498.897,582.086 497,582.5C 492.553,582.199 492.719,581.699 497.5,581C 492.833,580.333 488.167,580.333 483.5,581C 483.833,581.333 484.167,581.667 484.5,582C 483.667,582.167 482.833,582.333 482,582.5C 480.876,581.516 479.376,580.849 477.5,580.5C 474.398,580.497 474.065,580.997 476.5,582C 471.351,583.287 466.351,583.287 461.5,582C 464.937,581.351 465.104,580.851 462,580.5C 460.667,581.167 459.333,581.833 458,582.5C 454.896,582.149 455.063,581.649 458.5,581C 454.833,580.333 451.167,580.333 447.5,581C 449.833,581.333 452.167,581.667 454.5,582C 453,582.167 451.5,582.333 450,582.5C 446.939,582.757 444.939,582.091 444,580.5C 443.167,580.667 442.333,580.833 441.5,581C 445.414,581.897 445.248,582.397 441,582.5C 436.752,582.397 436.586,581.897 440.5,581C 439.833,580.833 439.167,580.667 438.5,580.5C 436.348,582.069 434.014,582.569 431.5,582C 431.833,581.667 432.167,581.333 432.5,581C 429.5,580.333 426.5,580.333 423.5,581C 424.5,581.333 425.5,581.667 426.5,582C 424.956,582.29 423.623,582.956 422.5,584C 422.838,590.973 422.838,598.139 422.5,605.5C 481.83,606.5 541.163,606.833 600.5,606.5C 541.002,607.499 481.336,607.832 421.5,607.5C 421.5,598.167 421.5,588.833 421.5,579.5C 481.504,579.167 541.504,579.5 601.5,580.5C 601.376,581.107 601.043,581.44 600.5,581.5 Z"/></g>
<g><path style="opacity:0.004" fill="#333334" d="M 331.5,597.5 C 332.833,598.167 332.833,598.167 331.5,597.5 Z"/></g>
<g><path style="opacity:0.004" fill="#696969" d="M 918.5,611.5 C 919.833,612.167 919.833,612.167 918.5,611.5 Z"/></g>
<g><path style="opacity:0.004" fill="#5d5d5c" d="M 171.5,621.5 C 172.833,622.167 172.833,622.167 171.5,621.5 Z"/></g>
<g><path style="opacity:0.004" fill="#3e3e3c" d="M 315.5,621.5 C 316.833,622.167 316.833,622.167 315.5,621.5 Z"/></g>
<g><path style="opacity:0.004" fill="#737471" d="M 988.5,624.5 C 989.833,625.167 989.833,625.167 988.5,624.5 Z"/></g>
<g><path style="opacity:0.012" fill="#1a1c19" d="M 400.5,628.5 C 400.833,628.5 401.167,628.5 401.5,628.5C 401.315,629.17 400.981,629.17 400.5,628.5 Z"/></g>
<g><path style="opacity:0.004" fill="#191c17" d="M 400.5,629.5 C 399.833,630.167 399.833,630.167 400.5,629.5 Z"/></g>
<g><path style="opacity:0.004" fill="#484847" d="M 731.5,629.5 C 732.833,630.167 732.833,630.167 731.5,629.5 Z"/></g>
<g><path style="opacity:0.246" fill="#101110" d="M 582.5,632.5 C 559.169,631.833 535.669,631.5 512,631.5C 488.157,631.5 464.657,632.167 441.5,633.5C 440.691,632.531 439.691,631.698 438.5,631C 487.167,630.333 535.833,630.333 584.5,631C 583.956,631.717 583.289,632.217 582.5,632.5 Z"/></g>
<g><path style="opacity:0.004" fill="#626261" d="M 148.5,632.5 C 149.833,633.167 149.833,633.167 148.5,632.5 Z"/></g>
<g><path style="opacity:0.004" fill="#1a1919" d="M 405.5,633.5 C 404.833,634.167 404.833,634.167 405.5,633.5 Z"/></g>
<g><path style="opacity:0.004" fill="#1c1c1b" d="M 615.5,634.5 C 616.833,635.167 616.833,635.167 615.5,634.5 Z"/></g>
<g><path style="opacity:0.004" fill="#181817" d="M 407.5,638.5 C 408.833,639.167 408.833,639.167 407.5,638.5 Z"/></g>
<g><path style="opacity:0.008" fill="#181615" d="M 410.5,638.5 C 409.833,639.167 409.833,639.167 410.5,638.5 Z"/></g>
<g><path style="opacity:0.004" fill="#222323" d="M 395.5,645.5 C 396.833,646.167 396.833,646.167 395.5,645.5 Z"/></g>
<g><path style="opacity:0.008" fill="#191816" d="M 418.5,646.5 C 417.833,647.167 417.833,647.167 418.5,646.5 Z"/></g>
<g><path style="opacity:0.004" fill="#424442" d="M 318.5,651.5 C 319.833,652.167 319.833,652.167 318.5,651.5 Z"/></g>
<g><path style="opacity:0.004" fill="#181915" d="M 424.5,652.5 C 423.833,653.167 423.833,653.167 424.5,652.5 Z"/></g>
<g><path style="opacity:0.004" fill="#686a67" d="M 115.5,653.5 C 116.833,654.167 116.833,654.167 115.5,653.5 Z"/></g>
<g><path style="opacity:0.004" fill="#6e6f6e" d="M 939.5,653.5 C 940.833,654.167 940.833,654.167 939.5,653.5 Z"/></g>
<g><path style="opacity:0.004" fill="#6b6d6c" d="M 918.5,660.5 C 919.833,661.167 919.833,661.167 918.5,660.5 Z"/></g>
<g><path style="opacity:0.004" fill="#505050" d="M 275.5,669.5 C 276.833,670.167 276.833,670.167 275.5,669.5 Z"/></g>
<g><path style="opacity:0.004" fill="#5d5d5f" d="M 803.5,669.5 C 804.833,670.167 804.833,670.167 803.5,669.5 Z"/></g>
<g><path style="opacity:0.008" fill="#191918" d="M 441.5,669.5 C 441.833,669.5 442.167,669.5 442.5,669.5C 442.167,672.167 441.833,672.167 441.5,669.5 Z"/></g>
<g><path style="opacity:0.004" fill="#252826" d="M 604.5,672.5 C 605.833,673.167 605.833,673.167 604.5,672.5 Z"/></g>
<g><path style="opacity:0.004" fill="#4f5152" d="M 270.5,675.5 C 271.833,676.167 271.833,676.167 270.5,675.5 Z"/></g>
<g><path style="opacity:0.004" fill="#6e716f" d="M 939.5,685.5 C 940.833,686.167 940.833,686.167 939.5,685.5 Z"/></g>
<g><path style="opacity:0.004" fill="#747573" d="M 36.5,688.5 C 37.8333,689.167 37.8333,689.167 36.5,688.5 Z"/></g>
<g><path style="opacity:0.004" fill="#474949" d="M 686.5,691.5 C 687.833,692.167 687.833,692.167 686.5,691.5 Z"/></g>
<g><path style="opacity:0.005" fill="#1c1d1c" d="M 466.5,694.5 C 465.923,695.773 465.257,695.773 464.5,694.5C 464.97,693.537 465.637,693.537 466.5,694.5 Z"/></g>
<g><path style="opacity:0.004" fill="#727573" d="M 36.5,696.5 C 37.8333,697.167 37.8333,697.167 36.5,696.5 Z"/></g>
<g><path style="opacity:0.035" fill="#212121" d="M 477.5,697.5 C 499.833,697.5 522.167,697.5 544.5,697.5C 543.948,699.703 542.615,700.536 540.5,700C 543.063,699.237 543.063,698.737 540.5,698.5C 539.994,699.824 538.661,700.491 536.5,700.5C 536.611,699.883 536.944,699.383 537.5,699C 535,698.833 532.5,698.667 530,698.5C 527.05,698.568 524.383,699.234 522,700.5C 521.612,699.572 520.945,698.905 520,698.5C 519.333,699.167 518.667,699.833 518,700.5C 516.278,700.389 516.112,699.889 517.5,699C 503.994,698.831 490.66,698.331 477.5,697.5 Z"/></g>
<g><path style="opacity:0.008" fill="#1d1f1c" d="M 550.5,697.5 C 551.833,698.167 551.833,698.167 550.5,697.5 Z"/></g>
<g><path style="opacity:0.008" fill="#1e1f1c" d="M 473.5,698.5 C 474.833,699.167 474.833,699.167 473.5,698.5 Z"/></g>
<g><path style="opacity:0.008" fill="#1f201d" d="M 545.5,698.5 C 546.833,699.167 546.833,699.167 545.5,698.5 Z"/></g>
<g><path style="opacity:0.006" fill="#1f1d1d" d="M 547.5,699.5 C 547.897,698.475 548.563,698.308 549.5,699C 548.906,699.464 548.239,699.631 547.5,699.5 Z"/></g>
<g><path style="opacity:0.006" fill="#1e1e1d" d="M 482.5,699.5 C 483.525,699.897 483.692,700.563 483,701.5C 482.536,700.906 482.369,700.239 482.5,699.5 Z"/></g>
<g><path style="opacity:0.004" fill="#1a1b17" d="M 513.5,699.5 C 514.833,700.167 514.833,700.167 513.5,699.5 Z"/></g>
<g><path style="opacity:0.004" fill="#1c1b1b" d="M 523.5,700.5 C 523.897,699.475 524.563,699.308 525.5,700C 524.906,700.464 524.239,700.631 523.5,700.5 Z"/></g>
<g><path style="opacity:0.004" fill="#1c1e1e" d="M 479.5,700.5 C 480.833,701.167 480.833,701.167 479.5,700.5 Z"/></g>
<g><path style="opacity:0.004" fill="#1c1d1c" d="M 536.5,700.5 C 535.833,701.167 535.833,701.167 536.5,700.5 Z"/></g>
<g><path style="opacity:0.004" fill="#1a1c1b" d="M 517.5,701.5 C 518.833,702.167 518.833,702.167 517.5,701.5 Z"/></g>
<g><path style="opacity:0.004" fill="#1a1c19" d="M 525.5,701.5 C 526.833,702.167 526.833,702.167 525.5,701.5 Z"/></g>
<g><path style="opacity:0.004" fill="#1d1d1d" d="M 533.5,701.5 C 534.525,701.897 534.692,702.563 534,703.5C 533.536,702.906 533.369,702.239 533.5,701.5 Z"/></g>
<g><path style="opacity:0.004" fill="#1e1f1d" d="M 546.5,701.5 C 547.833,702.167 547.833,702.167 546.5,701.5 Z"/></g>
<g><path style="opacity:0.004" fill="#1e1f1e" d="M 477.5,703.5 C 477.897,702.475 478.563,702.308 479.5,703C 478.906,703.464 478.239,703.631 477.5,703.5 Z"/></g>
<g><path style="opacity:0.004" fill="#1a1c1b" d="M 515.5,702.5 C 516.833,703.167 516.833,703.167 515.5,702.5 Z"/></g>
<g><path style="opacity:0.004" fill="#717270" d="M 83.5,717.5 C 84.8333,718.167 84.8333,718.167 83.5,717.5 Z"/></g>
<g><path style="opacity:0.004" fill="#515351" d="M 315.5,717.5 C 316.833,718.167 316.833,718.167 315.5,717.5 Z"/></g>
<g><path style="opacity:0.004" fill="#4e504e" d="M 331.5,717.5 C 332.833,718.167 332.833,718.167 331.5,717.5 Z"/></g>
<g><path style="opacity:0.004" fill="#252724" d="M 515.5,717.5 C 516.833,718.167 516.833,718.167 515.5,717.5 Z"/></g>
<g><path style="opacity:0.004" fill="#777978" d="M 4.5,720.5 C 5.83333,721.167 5.83333,721.167 4.5,720.5 Z"/></g>
<g><path style="opacity:0.004" fill="#757575" d="M 988.5,720.5 C 989.833,721.167 989.833,721.167 988.5,720.5 Z"/></g>
<g><path style="opacity:0.004" fill="#666969" d="M 187.5,725.5 C 188.833,726.167 188.833,726.167 187.5,725.5 Z"/></g>
<g><path style="opacity:0.004" fill="#5b5d5b" d="M 275.5,725.5 C 276.833,726.167 276.833,726.167 275.5,725.5 Z"/></g>
<g><path style="opacity:0.004" fill="#6e6f6f" d="M 116.5,728.5 C 117.833,729.167 117.833,729.167 116.5,728.5 Z"/></g>
<g><path style="opacity:0.004" fill="#474c4a" d="M 379.5,733.5 C 380.833,734.167 380.833,734.167 379.5,733.5 Z"/></g>
<g><path style="opacity:0.004" fill="#464846" d="M 635.5,733.5 C 636.833,734.167 636.833,734.167 635.5,733.5 Z"/></g>
<g><path style="opacity:0.004" fill="#333633" d="M 507.5,741.5 C 508.833,742.167 508.833,742.167 507.5,741.5 Z"/></g>
<g><path style="opacity:0.004" fill="#5d5f5e" d="M 275.5,749.5 C 276.833,750.167 276.833,750.167 275.5,749.5 Z"/></g>
<g><path style="opacity:0.004" fill="#656766" d="M 819.5,749.5 C 820.833,750.167 820.833,750.167 819.5,749.5 Z"/></g>
<g><path style="opacity:0.004" fill="#575958" d="M 326.5,763.5 C 327.833,764.167 327.833,764.167 326.5,763.5 Z"/></g>
<g><path style="opacity:0.004" fill="#515351" d="M 403.5,781.5 C 404.833,782.167 404.833,782.167 403.5,781.5 Z"/></g>
<g><path style="opacity:0.004" fill="#757776" d="M 5.5,786.5 C 6.83333,787.167 6.83333,787.167 5.5,786.5 Z"/></g>
<g><path style="opacity:0.004" fill="#6c6a6a" d="M 198.5,795.5 C 199.833,796.167 199.833,796.167 198.5,795.5 Z"/></g>
<g><path style="opacity:0.004" fill="#4e4f50" d="M 446.5,795.5 C 447.833,796.167 447.833,796.167 446.5,795.5 Z"/></g>
<g><path style="opacity:0.004" fill="#6c6b6c" d="M 867.5,805.5 C 868.833,806.167 868.833,806.167 867.5,805.5 Z"/></g>
<g><path style="opacity:0.004" fill="#767875" d="M 19.5,813.5 C 20.8333,814.167 20.8333,814.167 19.5,813.5 Z"/></g>
<g><path style="opacity:0.004" fill="#707170" d="M 907.5,837.5 C 908.833,838.167 908.833,838.167 907.5,837.5 Z"/></g>
<g><path style="opacity:0.004" fill="#707071" d="M 68.5,859.5 C 69.8333,860.167 69.8333,860.167 68.5,859.5 Z"/></g>
<g><path style="opacity:0.004" fill="#565959" d="M 484.5,864.5 C 485.833,865.167 485.833,865.167 484.5,864.5 Z"/></g>
<g><path style="opacity:0.004" fill="#686a68" d="M 843.5,869.5 C 844.833,870.167 844.833,870.167 843.5,869.5 Z"/></g>
<g><path style="opacity:0.004" fill="#717371" d="M 964.5,880.5 C 965.833,881.167 965.833,881.167 964.5,880.5 Z"/></g>
<g><path style="opacity:0.004" fill="#6a6b6c" d="M 886.5,883.5 C 887.833,884.167 887.833,884.167 886.5,883.5 Z"/></g>
<g><path style="opacity:0.004" fill="#666766" d="M 251.5,901.5 C 252.833,902.167 252.833,902.167 251.5,901.5 Z"/></g>
<g><path style="opacity:0.004" fill="#6c6e6d" d="M 923.5,901.5 C 924.833,902.167 924.833,902.167 923.5,901.5 Z"/></g>
<g><path style="opacity:0.004" fill="#5b5b5d" d="M 502.5,907.5 C 503.833,908.167 503.833,908.167 502.5,907.5 Z"/></g>
<g><path style="opacity:0.004" fill="#626562" d="M 323.5,909.5 C 324.833,910.167 324.833,910.167 323.5,909.5 Z"/></g>
<g><path style="opacity:0.004" fill="#686667" d="M 851.5,909.5 C 852.833,910.167 852.833,910.167 851.5,909.5 Z"/></g>
<g><path style="opacity:0.004" fill="#6c6d6d" d="M 923.5,917.5 C 924.833,918.167 924.833,918.167 923.5,917.5 Z"/></g>
<g><path style="opacity:0.008" fill="#646564" d="M 275.5,925.5 C 276.833,926.167 276.833,926.167 275.5,925.5 Z"/></g>
<g><path style="opacity:0.004" fill="#696a69" d="M 876.5,928.5 C 877.833,929.167 877.833,929.167 876.5,928.5 Z"/></g>
<g><path style="opacity:0.004" fill="#747574" d="M 1012.5,928.5 C 1013.83,929.167 1013.83,929.167 1012.5,928.5 Z"/></g>
<g><path style="opacity:0.004" fill="#616362" d="M 350.5,931.5 C 351.833,932.167 351.833,932.167 350.5,931.5 Z"/></g>
<g><path style="opacity:0.004" fill="#737574" d="M 1010.5,932.5 C 1011.83,933.167 1011.83,933.167 1010.5,932.5 Z"/></g>
<g><path style="opacity:0.004" fill="#616362" d="M 411.5,933.5 C 412.833,934.167 412.833,934.167 411.5,933.5 Z"/></g>
<g><path style="opacity:0.004" fill="#606360" d="M 635.5,933.5 C 636.833,934.167 636.833,934.167 635.5,933.5 Z"/></g>
<g><path style="opacity:0.004" fill="#626362" d="M 723.5,933.5 C 724.833,934.167 724.833,934.167 723.5,933.5 Z"/></g>
<g><path style="opacity:0.004" fill="#6d6e6b" d="M 46.5,955.5 C 47.8333,956.167 47.8333,956.167 46.5,955.5 Z"/></g>
<g><path style="opacity:0.004" fill="#6c6d6c" d="M 908.5,968.5 C 909.833,969.167 909.833,969.167 908.5,968.5 Z"/></g>
<g><path style="opacity:0.004" fill="#656565" d="M 814.5,971.5 C 815.833,972.167 815.833,972.167 814.5,971.5 Z"/></g>
<g><path style="opacity:0.004" fill="#656765" d="M 828.5,976.5 C 829.833,977.167 829.833,977.167 828.5,976.5 Z"/></g>
<g><path style="opacity:0.004" fill="#636664" d="M 371.5,981.5 C 372.833,982.167 372.833,982.167 371.5,981.5 Z"/></g>
<g><path style="opacity:0.004" fill="#696867" d="M 115.5,989.5 C 116.833,990.167 116.833,990.167 115.5,989.5 Z"/></g>
<g><path style="opacity:0.004" fill="#636464" d="M 813.5,990.5 C 814.833,991.167 814.833,991.167 813.5,990.5 Z"/></g>
<g><path style="opacity:0.004" fill="#686968" d="M 860.5,992.5 C 861.833,993.167 861.833,993.167 860.5,992.5 Z"/></g>
<g><path style="opacity:0.004" fill="#6d6e6b" d="M 929.5,1002.5 C 930.833,1003.17 930.833,1003.17 929.5,1002.5 Z"/></g>
<g><path style="opacity:0.004" fill="#6d6f6c" d="M 12.5,1008.5 C 13.8333,1009.17 13.8333,1009.17 12.5,1008.5 Z"/></g>
<g><path style="opacity:0.004" fill="#656566" d="M 348.5,1016.5 C 349.833,1017.17 349.833,1017.17 348.5,1016.5 Z"/></g>
<g><path style="opacity:0.004" fill="#646665" d="M 819.5,1020.5 C 820.833,1021.17 820.833,1021.17 819.5,1020.5 Z"/></g>
<g><path style="opacity:0.004" fill="#666767" d="M 411.5,1021.5 C 412.833,1022.17 412.833,1022.17 411.5,1021.5 Z"/></g>
</svg>
