<?xml version="1.0" encoding="UTF-8"?>
<!DOCTYPE svg PUBLIC "-//W3C//DTD SVG 1.1//EN" "http://www.w3.org/Graphics/SVG/1.1/DTD/svg11.dtd">
<svg xmlns="http://www.w3.org/2000/svg" version="1.1" width="500px" height="500px" style="shape-rendering:geometricPrecision; text-rendering:geometricPrecision; image-rendering:optimizeQuality; fill-rule:evenodd; clip-rule:evenodd" xmlns:xlink="http://www.w3.org/1999/xlink">
<g><path style="opacity:0.184" fill="#3f3c3c" d="M 246.5,105.5 C 205.278,105.912 163.944,106.912 122.5,108.5C 124.389,107.678 126.389,106.845 128.5,106C 167.832,105.5 207.165,105.333 246.5,105.5 Z"/></g>
<g><path style="opacity:0.998" fill="#2b2b2a" d="M 246.5,105.5 C 258.838,105.333 271.171,105.5 283.5,106C 301.936,111.694 310.27,124.194 308.5,143.5C 328.139,145.488 348.139,146.155 368.5,145.5C 380.496,146.251 388.663,152.251 393,163.5C 394.522,196.459 395.356,229.459 395.5,262.5C 389.901,262.304 384.401,261.638 379,260.5C 378.5,244.837 378.333,229.17 378.5,213.5C 379.166,206.341 379.5,199.008 379.5,191.5C 379.497,183.802 378.831,176.468 377.5,169.5C 377.443,168.391 377.11,167.391 376.5,166.5C 376.461,165.417 376.127,164.417 375.5,163.5C 372.988,162.205 370.321,161.539 367.5,161.5C 348.007,160.503 328.34,160.17 308.5,160.5C 308.5,165.833 308.5,171.167 308.5,176.5C 308.5,177.833 308.5,179.167 308.5,180.5C 304.167,180.5 299.833,180.5 295.5,180.5C 293.964,176.283 292.964,171.95 292.5,167.5C 292.5,167.167 292.5,166.833 292.5,166.5C 293.137,162.675 294.137,158.842 295.5,155C 295.05,152.467 294.05,150.3 292.5,148.5C 292.331,142.477 291.831,136.477 291,130.5C 289.01,126.51 285.843,124.01 281.5,123C 230.833,122.333 180.167,122.333 129.5,123C 126.272,124.563 124.105,127.063 123,130.5C 122.333,191.167 122.333,251.833 123,312.5C 123.23,315.968 124.73,318.634 127.5,320.5C 127.821,322.048 128.821,322.715 130.5,322.5C 132.216,322.629 133.883,322.962 135.5,323.5C 166.331,324.332 197.331,324.832 228.5,325C 215.833,325.333 203.167,325.667 190.5,326C 213.174,326.167 235.841,326.667 258.5,327.5C 258.942,328.739 259.609,329.739 260.5,330.5C 260.789,334.106 260.456,337.606 259.5,341C 239.902,341.763 220.568,341.596 201.5,340.5C 200.167,340.5 198.833,340.5 197.5,340.5C 197.174,349.017 197.507,357.35 198.5,365.5C 199.72,370.886 203.053,374.053 208.5,375C 226.01,375.455 243.343,376.289 260.5,377.5C 260.054,380.01 260.72,382.01 262.5,383.5C 263.774,385.993 264.44,388.659 264.5,391.5C 262.94,391.519 261.44,391.852 260,392.5C 240.531,391.685 221.031,391.185 201.5,391C 193.395,387.894 187.561,382.394 184,374.5C 181.996,363.594 181.163,352.594 181.5,341.5C 163.447,341.604 145.447,340.77 127.5,339C 115.87,335.233 108.703,327.399 106,315.5C 105.333,253.833 105.333,192.167 106,130.5C 106.649,125.802 108.482,121.802 111.5,118.5C 113.5,117.167 115.167,115.5 116.5,113.5C 117.845,111.164 119.845,109.497 122.5,108.5C 163.944,106.912 205.278,105.912 246.5,105.5 Z"/></g>
<g><path style="opacity:0.157" fill="#a7a3a3" d="M 116.5,113.5 C 115.167,115.5 113.5,117.167 111.5,118.5C 112.167,115.833 113.833,114.167 116.5,113.5 Z"/></g>
<g><path style="opacity:0.171" fill="#666262" d="M 308.5,143.5 C 328.598,144.155 348.598,144.822 368.5,145.5C 348.139,146.155 328.139,145.488 308.5,143.5 Z"/></g>
<g><path style="opacity:0.475" fill="#7e7e7c" d="M 186.5,154.5 C 184.898,156.074 182.898,156.741 180.5,156.5C 182.214,155.262 184.214,154.595 186.5,154.5 Z"/></g>
<g><path style="opacity:0.996" fill="#2c2b2a" d="M 261.5,200.5 C 260.198,198.328 259.032,195.994 258,193.5C 257.511,195.604 256.345,195.938 254.5,194.5C 251.083,195.221 250.75,196.888 253.5,199.5C 252.609,200.59 251.609,200.59 250.5,199.5C 249.506,207.548 249.506,215.381 250.5,223C 249.422,223.674 248.755,224.674 248.5,226C 250.627,228.351 252.627,230.851 254.5,233.5C 255.308,231.577 255.808,229.577 256,227.5C 256.712,229.847 257.879,231.847 259.5,233.5C 260.614,232.277 260.781,230.944 260,229.5C 259.346,230.696 258.846,230.696 258.5,229.5C 259.325,228.614 260.325,228.281 261.5,228.5C 258.836,252.154 246.836,269.154 225.5,279.5C 223.447,279.402 221.78,280.069 220.5,281.5C 188.842,289.832 163.842,280.499 145.5,253.5C 144.632,249.912 143.298,246.412 141.5,243C 144.034,240.641 143.367,239.474 139.5,239.5C 139.737,238.209 139.404,237.209 138.5,236.5C 136.308,225.344 135.975,214.011 137.5,202.5C 139.074,200.898 139.741,198.898 139.5,196.5C 141.802,187.884 146.136,180.551 152.5,174.5C 154.587,173.415 155.92,171.749 156.5,169.5C 158.027,169.573 159.027,168.906 159.5,167.5C 161.647,165.53 163.98,163.697 166.5,162C 171.083,159.863 175.75,158.03 180.5,156.5C 182.898,156.741 184.898,156.074 186.5,154.5C 213.766,149.589 236.1,157.922 253.5,179.5C 257.566,185.965 260.233,192.965 261.5,200.5 Z M 228.5,260.5 C 226.973,260.427 225.973,261.094 225.5,262.5C 199.007,275.52 176.84,270.187 159,246.5C 155.858,241.882 153.524,236.882 152,231.5C 145.775,202.11 156.275,181.61 183.5,170C 206.366,164.405 225.533,170.238 241,187.5C 246.074,194.66 248.574,202.66 248.5,211.5C 248.094,225.785 244.261,239.118 237,251.5C 234.035,254.394 231.201,257.394 228.5,260.5 Z"/></g>
<g><path style="opacity:0.91" fill="#514f4e" d="M 292.5,148.5 C 294.05,150.3 295.05,152.467 295.5,155C 294.137,158.842 293.137,162.675 292.5,166.5C 292.5,160.5 292.5,154.5 292.5,148.5 Z"/></g>
<g><path style="opacity:0.212" fill="#9c989a" d="M 367.5,161.5 C 348.167,161.5 328.833,161.5 309.5,161.5C 309.821,166.695 309.487,171.695 308.5,176.5C 308.5,171.167 308.5,165.833 308.5,160.5C 328.34,160.17 348.007,160.503 367.5,161.5 Z"/></g>
<g><path style="opacity:0.427" fill="#777576" d="M 367.5,161.5 C 370.321,161.539 372.988,162.205 375.5,163.5C 376.127,164.417 376.461,165.417 376.5,166.5C 373.594,164.55 370.594,162.883 367.5,161.5 Z"/></g>
<g><path style="opacity:0.173" fill="#ababa8" d="M 159.5,167.5 C 159.027,168.906 158.027,169.573 156.5,169.5C 156.973,168.094 157.973,167.427 159.5,167.5 Z"/></g>
<g><path style="opacity:0.31" fill="#8c8c8b" d="M 156.5,169.5 C 155.92,171.749 154.587,173.415 152.5,174.5C 153.08,172.251 154.413,170.585 156.5,169.5 Z"/></g>
<g><path style="opacity:0.218" fill="#a2a19f" d="M 292.5,167.5 C 292.964,171.95 293.964,176.283 295.5,180.5C 294.5,180.5 293.5,180.5 292.5,180.5C 292.5,176.167 292.5,171.833 292.5,167.5 Z"/></g>
<g><path style="opacity:0.31" fill="#7d7b7a" d="M 377.5,169.5 C 378.831,176.468 379.497,183.802 379.5,191.5C 379.5,199.008 379.166,206.341 378.5,213.5C 378.421,198.191 378.088,183.525 377.5,169.5 Z"/></g>
<g><path style="opacity:0.107" fill="#8b898a" d="M 332.5,189.5 C 344.655,188.505 356.989,188.171 369.5,188.5C 369.5,193.833 369.5,199.167 369.5,204.5C 357.988,204.828 346.654,204.495 335.5,203.5C 346.5,203.5 357.5,203.5 368.5,203.5C 368.5,198.833 368.5,194.167 368.5,189.5C 356.5,189.5 344.5,189.5 332.5,189.5 Z"/></g>
<g><path style="opacity:0.995" fill="#262425" d="M 332.5,189.5 C 344.5,189.5 356.5,189.5 368.5,189.5C 368.5,194.167 368.5,198.833 368.5,203.5C 357.5,203.5 346.5,203.5 335.5,203.5C 328.402,202.542 325.902,198.542 328,191.5C 329.11,189.963 330.61,189.297 332.5,189.5 Z"/></g>
<g><path style="opacity:0.424" fill="#8a8a85" d="M 139.5,196.5 C 139.741,198.898 139.074,200.898 137.5,202.5C 137.595,200.214 138.262,198.214 139.5,196.5 Z"/></g>
<g><path style="opacity:0.999" fill="#312f2f" d="M 176.5,198.5 C 186.825,197.791 190.492,202.458 187.5,212.5C 181.897,218.008 176.73,217.675 172,211.5C 170.379,205.923 171.879,201.589 176.5,198.5 Z"/></g>
<g><path style="opacity:1" fill="#2e2c2c" d="M 214.5,198.5 C 226.015,196.842 230.182,201.508 227,212.5C 220.816,218.246 215.482,217.579 211,210.5C 209.593,205.556 210.759,201.556 214.5,198.5 Z"/></g>
<g><path style="opacity:1" fill="#292827" d="M 261.5,200.5 C 264.107,209.83 264.107,219.163 261.5,228.5C 260.325,228.281 259.325,228.614 258.5,229.5C 258.846,230.696 259.346,230.696 260,229.5C 260.781,230.944 260.614,232.277 259.5,233.5C 257.879,231.847 256.712,229.847 256,227.5C 255.808,229.577 255.308,231.577 254.5,233.5C 252.627,230.851 250.627,228.351 248.5,226C 248.755,224.674 249.422,223.674 250.5,223C 249.506,215.381 249.506,207.548 250.5,199.5C 251.609,200.59 252.609,200.59 253.5,199.5C 250.75,196.888 251.083,195.221 254.5,194.5C 256.345,195.938 257.511,195.604 258,193.5C 259.032,195.994 260.198,198.328 261.5,200.5 Z"/></g>
<g><path style="opacity:0.996" fill="#454445" d="M 312.5,202.5 C 316.973,206.402 320.973,210.735 324.5,215.5C 322.461,213.016 320.128,211.682 317.5,211.5C 316.459,213.991 315.626,213.991 315,211.5C 313.385,213.905 312.719,213.905 313,211.5C 316.357,210.258 316.19,209.424 312.5,209C 312.986,206.973 312.986,204.807 312.5,202.5 Z"/></g>
<g><path style="opacity:0.02" fill="#a49e9f" d="M 300.5,211.5 C 301.376,211.369 302.043,211.702 302.5,212.5C 297.544,213.494 292.544,213.827 287.5,213.5C 291.833,212.833 296.167,212.167 300.5,211.5 Z"/></g>
<g><path style="opacity:1" fill="#252423" d="M 312.5,202.5 C 312.986,204.807 312.986,206.973 312.5,209C 316.19,209.424 316.357,210.258 313,211.5C 312.719,213.905 313.385,213.905 315,211.5C 315.626,213.991 316.459,213.991 317.5,211.5C 320.128,211.682 322.461,213.016 324.5,215.5C 328.345,220.474 328.345,225.474 324.5,230.5C 323.06,231.363 321.726,231.363 320.5,230.5C 319.702,232.078 319.202,233.744 319,235.5C 316.966,236.862 314.799,237.862 312.5,238.5C 311.268,241.253 309.768,243.92 308,246.5C 307.125,244.487 305.791,244.487 304,246.5C 304.068,248.342 303.901,250.009 303.5,251.5C 298.806,254.331 294.973,253.331 292,248.5C 291.322,246.402 291.489,244.402 292.5,242.5C 294.303,241.954 295.97,241.12 297.5,240C 296.829,239.014 296.829,237.847 297.5,236.5C 300.141,234.196 302.808,231.862 305.5,229.5C 306.043,229.44 306.376,229.107 306.5,228.5C 304.257,227.526 301.924,227.192 299.5,227.5C 293.439,227.21 287.439,227.543 281.5,228.5C 273.183,227.032 270.85,222.532 274.5,215C 278.7,213.633 283.033,213.133 287.5,213.5C 292.544,213.827 297.544,213.494 302.5,212.5C 302.043,211.702 301.376,211.369 300.5,211.5C 297.172,208.338 294.006,205.005 291,201.5C 289.963,194.87 292.797,191.703 299.5,192C 304.311,194.985 308.644,198.485 312.5,202.5 Z"/></g>
<g><path style="opacity:0.086" fill="#8f8d8e" d="M 299.5,227.5 C 301.924,227.192 304.257,227.526 306.5,228.5C 306.376,229.107 306.043,229.44 305.5,229.5C 303.5,228.833 301.5,228.167 299.5,227.5 Z"/></g>
<g><path style="opacity:0.998" fill="#4c4949" d="M 324.5,230.5 C 324.631,231.239 324.464,231.906 324,232.5C 316.966,238.741 310.132,245.074 303.5,251.5C 303.901,250.009 304.068,248.342 304,246.5C 305.791,244.487 307.125,244.487 308,246.5C 309.768,243.92 311.268,241.253 312.5,238.5C 314.799,237.862 316.966,236.862 319,235.5C 319.202,233.744 319.702,232.078 320.5,230.5C 321.726,231.363 323.06,231.363 324.5,230.5 Z"/></g>
<g><path style="opacity:0.975" fill="#242322" d="M 342.5,233.5 C 351.167,233.5 359.833,233.5 368.5,233.5C 368.5,238.167 368.5,242.833 368.5,247.5C 357.833,247.5 347.167,247.5 336.5,247.5C 336.5,243.5 336.5,239.5 336.5,235.5C 338.476,234.055 340.476,233.389 342.5,233.5 Z"/></g>
<g><path style="opacity:0.998" fill="#3c3a3b" d="M 204.5,241.5 C 197.278,242.389 190.111,242.389 183,241.5C 182.667,240.833 182.333,240.167 182,239.5C 180.302,242.396 180.136,245.396 181.5,248.5C 183.467,248.261 185.301,248.594 187,249.5C 187.308,248.692 187.808,248.025 188.5,247.5C 189.577,249.868 191.244,251.535 193.5,252.5C 184.095,251.983 176.595,247.983 171,240.5C 170.217,236.106 172.051,233.439 176.5,232.5C 180.213,234.04 183.547,236.207 186.5,239C 192.3,241.151 198.3,241.984 204.5,241.5 Z"/></g>
<g><path style="opacity:0.897" fill="#686665" d="M 297.5,236.5 C 296.829,237.847 296.829,239.014 297.5,240C 295.97,241.12 294.303,241.954 292.5,242.5C 293.419,239.911 295.086,237.911 297.5,236.5 Z"/></g>
<g><path style="opacity:0.983" fill="#2a2929" d="M 193.5,252.5 C 191.244,251.535 189.577,249.868 188.5,247.5C 187.808,248.025 187.308,248.692 187,249.5C 185.301,248.594 183.467,248.261 181.5,248.5C 180.136,245.396 180.302,242.396 182,239.5C 182.333,240.167 182.667,240.833 183,241.5C 190.111,242.389 197.278,242.389 204.5,241.5C 211.242,239.295 217.575,236.295 223.5,232.5C 229.035,234.933 230.202,238.599 227,243.5C 216.957,251.3 205.79,254.3 193.5,252.5 Z"/></g>
<g><path style="opacity:0.133" fill="#7d7a7a" d="M 138.5,236.5 C 139.404,237.209 139.737,238.209 139.5,239.5C 143.367,239.474 144.034,240.641 141.5,243C 143.298,246.412 144.632,249.912 145.5,253.5C 141.812,248.445 139.478,242.779 138.5,236.5 Z"/></g>
<g><path style="opacity:0.475" fill="#797776" d="M 342.5,233.5 C 351.318,232.507 360.318,232.173 369.5,232.5C 369.807,238.093 369.473,243.593 368.5,249C 357.509,248.992 346.509,248.825 335.5,248.5C 335.182,243.968 335.515,239.634 336.5,235.5C 336.5,239.5 336.5,243.5 336.5,247.5C 347.167,247.5 357.833,247.5 368.5,247.5C 368.5,242.833 368.5,238.167 368.5,233.5C 359.833,233.5 351.167,233.5 342.5,233.5 Z"/></g>
<g><path style="opacity:0.224" fill="#9e9c82" d="M 228.5,260.5 C 228.027,261.906 227.027,262.573 225.5,262.5C 225.973,261.094 226.973,260.427 228.5,260.5 Z"/></g>
<g><path style="opacity:1" fill="#242423" d="M 287.5,275.5 C 322.168,275.333 356.835,275.5 391.5,276C 397.035,278.537 400.868,282.704 403,288.5C 403.667,318.5 403.667,348.5 403,378.5C 401.564,384.87 397.731,389.037 391.5,391C 356.5,391.667 321.5,391.667 286.5,391C 278.195,387.233 274.361,380.733 275,371.5C 274.333,344.5 274.333,317.5 275,290.5C 277.202,283.804 281.368,278.804 287.5,275.5 Z M 375.5,305.5 C 375.833,305.5 376.167,305.5 376.5,305.5C 378.309,306.481 379.643,307.981 380.5,310C 379.833,310.667 379.167,311.333 378.5,312C 372.829,312.531 367.162,313.031 361.5,313.5C 363.114,305.829 367.781,303.162 375.5,305.5 Z M 321.5,333.5 C 321.5,334.5 321.5,335.5 321.5,336.5C 321.8,343.896 321.3,351.229 320,358.5C 318.604,360.527 316.938,360.86 315,359.5C 313.993,356.425 313.493,353.258 313.5,350C 314.649,342.191 315.649,334.358 316.5,326.5C 317.612,324.369 319.112,324.369 321,326.5C 321.497,328.81 321.663,331.143 321.5,333.5 Z M 350.5,352.5 C 351.122,354.335 352.456,355.502 354.5,356C 359.167,357.333 363.833,358.667 368.5,360C 368.957,360.414 369.291,360.914 369.5,361.5C 368.757,362.182 368.091,362.849 367.5,363.5C 360.457,363.72 353.457,363.386 346.5,362.5C 346.371,360.784 346.038,359.117 345.5,357.5C 346.451,356.081 346.784,354.415 346.5,352.5C 347.833,352.5 349.167,352.5 350.5,352.5 Z"/></g>
<g><path style="opacity:0.031" fill="#b6b5b6" d="M 225.5,279.5 C 224.22,280.931 222.553,281.598 220.5,281.5C 221.78,280.069 223.447,279.402 225.5,279.5 Z"/></g>
<g><path style="opacity:1" fill="#929291" d="M 293.5,305.5 C 308.658,304.504 323.991,304.17 339.5,304.5C 339.817,308.702 339.483,312.702 338.5,316.5C 338.5,312.833 338.5,309.167 338.5,305.5C 323.5,305.5 308.5,305.5 293.5,305.5 Z"/></g>
<g><path style="opacity:0.984" fill="#f9f8f7" d="M 293.5,305.5 C 308.5,305.5 323.5,305.5 338.5,305.5C 338.5,309.167 338.5,312.833 338.5,316.5C 334.833,316.5 331.167,316.5 327.5,316.5C 325.833,316.5 324.167,316.5 322.5,316.5C 322.822,322.358 322.489,328.025 321.5,333.5C 321.663,331.143 321.497,328.81 321,326.5C 319.112,324.369 317.612,324.369 316.5,326.5C 315.649,334.358 314.649,342.191 313.5,350C 313.493,353.258 313.993,356.425 315,359.5C 316.938,360.86 318.604,360.527 320,358.5C 321.3,351.229 321.8,343.896 321.5,336.5C 322.494,345.652 322.827,354.985 322.5,364.5C 318.167,364.5 313.833,364.5 309.5,364.5C 309.5,348.5 309.5,332.5 309.5,316.5C 304.5,316.5 299.5,316.5 294.5,316.5C 294.5,315.5 294.5,314.5 294.5,313.5C 295.338,313.158 295.672,312.492 295.5,311.5C 295.167,310.5 294.5,309.833 293.5,309.5C 293.5,308.167 293.5,306.833 293.5,305.5 Z"/></g>
<g><path style="opacity:0.97" fill="#f3f2f1" d="M 375.5,305.5 C 367.781,303.162 363.114,305.829 361.5,313.5C 367.162,313.031 372.829,312.531 378.5,312C 379.167,311.333 379.833,310.667 380.5,310C 379.643,307.981 378.309,306.481 376.5,305.5C 378.467,305.261 380.301,305.594 382,306.5C 382.279,310.17 382.112,313.837 381.5,317.5C 376.841,316.836 372.174,316.169 367.5,315.5C 360.229,314.765 357.895,317.765 360.5,324.5C 366.632,328.44 372.965,331.94 379.5,335C 385.576,342.382 386.076,350.215 381,358.5C 378.643,361.091 375.809,362.758 372.5,363.5C 370.833,363.5 369.167,363.5 367.5,363.5C 368.091,362.849 368.757,362.182 369.5,361.5C 369.291,360.914 368.957,360.414 368.5,360C 363.833,358.667 359.167,357.333 354.5,356C 352.456,355.502 351.122,354.335 350.5,352.5C 356.138,353.459 361.805,353.626 367.5,353C 370.524,350.525 371.19,347.525 369.5,344C 362.294,340.814 355.461,336.981 349,332.5C 341.756,319.628 344.923,310.461 358.5,305C 361.785,304.176 365.118,303.676 368.5,303.5C 371.205,303.316 373.538,303.983 375.5,305.5 Z M 375.5,305.5 C 375.833,305.5 376.167,305.5 376.5,305.5C 378.309,306.481 379.643,307.981 380.5,310C 379.833,310.667 379.167,311.333 378.5,312C 372.829,312.531 367.162,313.031 361.5,313.5C 363.114,305.829 367.781,303.162 375.5,305.5 Z"/></g>
<g><path style="opacity:0.004" fill="#d0cfcf" d="M 127.5,320.5 C 128.71,320.932 129.71,321.599 130.5,322.5C 128.821,322.715 127.821,322.048 127.5,320.5 Z"/></g>
<g><path style="opacity:0.958" fill="#696867" d="M 135.5,323.5 C 176.835,323.333 218.168,323.5 259.5,324C 260.423,326.041 260.756,328.208 260.5,330.5C 259.609,329.739 258.942,328.739 258.5,327.5C 235.841,326.667 213.174,326.167 190.5,326C 203.167,325.667 215.833,325.333 228.5,325C 197.331,324.832 166.331,324.332 135.5,323.5 Z"/></g>
<g><path style="opacity:0.991" fill="#4e4b49" d="M 327.5,316.5 C 326.432,317.434 325.099,317.768 323.5,317.5C 323.335,320.85 323.502,324.183 324,327.5C 324.669,324.972 325.502,324.972 326.5,327.5C 325.817,330.461 324.984,330.795 324,328.5C 323.831,340.674 323.331,352.674 322.5,364.5C 322.827,354.985 322.494,345.652 321.5,336.5C 321.5,335.5 321.5,334.5 321.5,333.5C 322.489,328.025 322.822,322.358 322.5,316.5C 324.167,316.5 325.833,316.5 327.5,316.5 Z"/></g>
<g><path style="opacity:1" fill="#656564" d="M 293.5,309.5 C 294.5,309.833 295.167,310.5 295.5,311.5C 294.662,311.842 294.328,312.508 294.5,313.5C 294.5,314.5 294.5,315.5 294.5,316.5C 299.5,316.5 304.5,316.5 309.5,316.5C 309.5,332.5 309.5,348.5 309.5,364.5C 308.504,349.009 308.17,333.342 308.5,317.5C 303.5,317.5 298.5,317.5 293.5,317.5C 293.5,314.833 293.5,312.167 293.5,309.5 Z"/></g>
<g><path style="opacity:0.086" fill="#827e7c" d="M 201.5,340.5 C 200.791,341.404 199.791,341.737 198.5,341.5C 198.5,349.5 198.5,357.5 198.5,365.5C 197.507,357.35 197.174,349.017 197.5,340.5C 198.833,340.5 200.167,340.5 201.5,340.5 Z"/></g>
<g><path style="opacity:0.271" fill="#aba4a5" d="M 345.5,357.5 C 346.038,359.117 346.371,360.784 346.5,362.5C 353.457,363.386 360.457,363.72 367.5,363.5C 369.167,363.5 370.833,363.5 372.5,363.5C 363.311,366.052 353.977,366.052 344.5,363.5C 344.205,361.265 344.539,359.265 345.5,357.5 Z"/></g>
<g><path style="opacity:0.165" fill="#909090" d="M 260.5,377.5 C 261.458,379.302 262.125,381.302 262.5,383.5C 260.72,382.01 260.054,380.01 260.5,377.5 Z"/></g>
</svg>
