<?xml version="1.0" encoding="UTF-8"?>
<!DOCTYPE svg PUBLIC "-//W3C//DTD SVG 1.1//EN" "http://www.w3.org/Graphics/SVG/1.1/DTD/svg11.dtd">
<svg xmlns="http://www.w3.org/2000/svg" version="1.1" width="1024px" height="1024px" style="shape-rendering:geometricPrecision; text-rendering:geometricPrecision; image-rendering:optimizeQuality; fill-rule:evenodd; clip-rule:evenodd" xmlns:xlink="http://www.w3.org/1999/xlink">
<g><path style="opacity:1" fill="#f4f4f4" d="M -0.5,-0.5 C 340.833,-0.5 682.167,-0.5 1023.5,-0.5C 1023.5,340.833 1023.5,682.167 1023.5,1023.5C 682.167,1023.5 340.833,1023.5 -0.5,1023.5C -0.5,682.167 -0.5,340.833 -0.5,-0.5 Z"/></g>
<g><path style="opacity:1" fill="#121211" d="M 270.5,218.5 C 372.845,218.185 475.178,218.518 577.5,219.5C 561.337,220.167 545.003,220.5 528.5,220.5C 442.333,219.989 356.333,219.323 270.5,218.5 Z"/></g>
<g><path style="opacity:1" fill="#262625" d="M 270.5,218.5 C 356.333,219.323 442.333,219.989 528.5,220.5C 545.003,220.5 561.337,220.167 577.5,219.5C 600.42,223.254 616.92,235.588 627,256.5C 628.797,261.023 629.964,265.69 630.5,270.5C 630.275,280.046 630.942,289.379 632.5,298.5C 662.5,298.5 692.5,298.5 722.5,298.5C 733.672,299.337 745.005,300.003 756.5,300.5C 758.833,300.5 761.167,300.5 763.5,300.5C 774.854,303.317 784.688,308.984 793,317.5C 795.942,322.406 799.109,327.072 802.5,331.5C 804.438,335.981 805.771,340.648 806.5,345.5C 806.264,348.609 806.597,351.609 807.5,354.5C 806.501,414.998 806.168,475.664 806.5,536.5C 805.209,536.263 804.209,536.596 803.5,537.5C 801.374,536.952 799.374,536.285 797.5,535.5C 792.903,534.486 786.903,534.153 779.5,534.5C 779.667,473.832 779.5,413.166 779,352.5C 778.667,351.167 778.333,349.833 778,348.5C 777.536,349.094 777.369,349.761 777.5,350.5C 776.26,346.474 774.26,342.808 771.5,339.5C 770.409,336.572 768.409,334.406 765.5,333C 760.675,331.105 755.675,330.272 750.5,330.5C 711.167,330.5 671.833,330.5 632.5,330.5C 632.829,343.677 632.495,356.677 631.5,369.5C 631.667,356.496 631.5,343.496 631,330.5C 630.5,343.162 630.333,355.829 630.5,368.5C 621.5,368.5 612.5,368.5 603.5,368.5C 603.667,342.831 603.5,317.165 603,291.5C 602.667,288.833 602.333,286.167 602,283.5C 602.208,289.671 602.041,295.671 601.5,301.5C 600.834,291.516 600.334,281.516 600,271.5C 595.078,259.583 586.244,252.417 573.5,250C 473.167,249.333 372.833,249.333 272.5,250C 260.896,251.604 253.729,258.104 251,269.5C 250.333,393.167 250.333,516.833 251,640.5C 251.878,651.379 257.378,658.879 267.5,663C 274.314,664.136 280.981,665.302 287.5,666.5C 363.483,668.174 444.817,668.84 531.5,668.5C 531.5,677.833 531.5,687.167 531.5,696.5C 489.33,696.168 447.33,696.501 405.5,697.5C 405.333,714.503 405.5,731.503 406,748.5C 406.198,750.382 406.698,752.048 407.5,753.5C 409.518,761.02 414.185,766.187 421.5,769C 424.893,769.798 428.226,770.798 431.5,772C 465.539,772.035 499.539,772.701 533.5,774C 534.601,778.57 535.934,783.07 537.5,787.5C 536.402,788.601 536.235,789.934 537,791.5C 538.371,795.073 539.871,798.573 541.5,802C 502.68,801.233 464.013,801.4 425.5,802.5C 419.586,801.92 413.92,800.586 408.5,798.5C 405.48,795.484 402.146,792.817 398.5,790.5C 396.5,788.833 394.5,787.167 392.5,785.5C 390.167,782.5 387.5,779.833 384.5,777.5C 378.435,767.039 375.768,755.706 376.5,743.5C 376.261,739.158 375.927,734.824 375.5,730.5C 376.829,719.098 376.829,707.598 375.5,696C 343.331,695.169 311.331,695.336 279.5,696.5C 272.375,695.675 265.375,694.341 258.5,692.5C 251.744,689.62 245.41,685.953 239.5,681.5C 225.321,668.792 218.488,652.792 219,633.5C 218.333,512.833 218.333,392.167 219,271.5C 219.719,266.342 221.052,261.342 223,256.5C 230.061,242.105 240.561,230.939 254.5,223C 259.732,221.055 265.066,219.555 270.5,218.5 Z"/></g>
<g><path style="opacity:1" fill="#979694" d="M 630.5,270.5 C 631.909,279.631 632.576,288.965 632.5,298.5C 630.942,289.379 630.275,280.046 630.5,270.5 Z"/></g>
<g><path style="opacity:1" fill="#979695" d="M 722.5,298.5 C 733.172,298.333 743.839,298.5 754.5,299C 755.416,299.278 756.082,299.778 756.5,300.5C 745.005,300.003 733.672,299.337 722.5,298.5 Z"/></g>
<g><path style="opacity:1" fill="#959491" d="M 763.5,300.5 C 775.786,301.727 785.953,307.06 794,316.5C 797.364,321.23 800.197,326.23 802.5,331.5C 799.109,327.072 795.942,322.406 793,317.5C 784.688,308.984 774.854,303.317 763.5,300.5 Z"/></g>
<g><path style="opacity:1" fill="#141413" d="M 631.5,369.5 C 621.5,369.5 611.5,369.5 601.5,369.5C 601.5,346.833 601.5,324.167 601.5,301.5C 602.041,295.671 602.208,289.671 602,283.5C 602.333,286.167 602.667,288.833 603,291.5C 603.5,317.165 603.667,342.831 603.5,368.5C 612.5,368.5 621.5,368.5 630.5,368.5C 630.333,355.829 630.5,343.162 631,330.5C 631.5,343.496 631.667,356.496 631.5,369.5 Z"/></g>
<g><path style="opacity:1" fill="#757371" d="M 362.5,325.5 C 357.07,328.539 351.403,331.206 345.5,333.5C 350.553,329.696 356.22,327.029 362.5,325.5 Z"/></g>
<g><path style="opacity:1" fill="#706e6c" d="M 750.5,330.5 C 755.675,330.272 760.675,331.105 765.5,333C 768.409,334.406 770.409,336.572 771.5,339.5C 765.196,334.737 758.196,331.737 750.5,330.5 Z"/></g>
<g><path style="opacity:1" fill="#7a7976" d="M 479.5,335.5 C 482.311,335.826 484.978,336.659 487.5,338C 499.732,346.065 509.732,356.231 517.5,368.5C 507.16,354.687 494.494,343.687 479.5,335.5 Z"/></g>
<g><path style="opacity:1" fill="#807f7c" d="M 337.5,337.5 C 327.86,344.809 318.86,352.809 310.5,361.5C 317.659,351.336 326.659,343.336 337.5,337.5 Z"/></g>
<g><path style="opacity:1" fill="#6c6a67" d="M 528.5,388.5 C 532.745,396.237 535.411,404.571 536.5,413.5C 533.012,405.501 530.345,397.168 528.5,388.5 Z"/></g>
<g><path style="opacity:1" fill="#939291" d="M 677.5,391.5 C 675.823,393.54 674.156,395.54 672.5,397.5C 672.772,394.268 674.438,392.268 677.5,391.5 Z"/></g>
<g><path style="opacity:1" fill="#888683" d="M 619.5,398.5 C 621.749,399.08 623.415,400.413 624.5,402.5C 622.251,401.92 620.585,400.587 619.5,398.5 Z"/></g>
<g><path style="opacity:1" fill="#262625" d="M 683.5,388.5 C 707.328,389.498 731.328,389.831 755.5,389.5C 755.5,398.5 755.5,407.5 755.5,416.5C 732.661,416.169 709.994,416.503 687.5,417.5C 677.19,414.852 672.19,408.186 672.5,397.5C 674.156,395.54 675.823,393.54 677.5,391.5C 679.033,389.755 681.033,388.755 683.5,388.5 Z"/></g>
<g><path style="opacity:1" fill="#636260" d="M 624.5,402.5 C 635.781,412.113 646.447,422.446 656.5,433.5C 645.219,423.887 634.553,413.554 624.5,402.5 Z"/></g>
<g><path style="opacity:1" fill="#171616" d="M 683.5,388.5 C 707.833,388.5 732.167,388.5 756.5,388.5C 756.5,398.5 756.5,408.5 756.5,418.5C 733.496,418.378 710.496,418.045 687.5,417.5C 709.994,416.503 732.661,416.169 755.5,416.5C 755.5,407.5 755.5,398.5 755.5,389.5C 731.328,389.831 707.328,389.498 683.5,388.5 Z"/></g>
<g><path style="opacity:1" fill="#040404" d="M 807.5,354.5 C 807.168,415.669 807.501,476.669 808.5,537.5C 807.001,538.494 805.334,538.494 803.5,537.5C 804.209,536.596 805.209,536.263 806.5,536.5C 806.168,475.664 806.501,414.998 807.5,354.5 Z"/></g>
<g><path style="opacity:1" fill="#7d7c79" d="M 536.5,415.5 C 537.268,416.263 537.768,417.263 538,418.5C 538.499,422.821 538.666,427.154 538.5,431.5C 537.542,426.342 536.875,421.009 536.5,415.5 Z"/></g>
<g><path style="opacity:1" fill="#252524" d="M 619.5,398.5 C 620.585,400.587 622.251,401.92 624.5,402.5C 634.553,413.554 645.219,423.887 656.5,433.5C 671.291,445.815 673.457,460.149 663,476.5C 661.629,478.041 660.129,479.375 658.5,480.5C 647.253,490.243 636.42,500.576 626,511.5C 625.536,512.094 625.369,512.761 625.5,513.5C 620.121,517.198 614.121,518.365 607.5,517C 599.122,512 597.288,505.167 602,496.5C 606.031,491.304 610.531,486.637 615.5,482.5C 618.5,479.833 621.5,477.167 624.5,474.5C 626.963,472.539 629.297,470.372 631.5,468C 631.167,467.667 630.833,467.333 630.5,467C 611.836,466.5 593.17,466.333 574.5,466.5C 571.772,466.829 569.438,466.163 567.5,464.5C 565.079,461.756 562.745,459.09 560.5,456.5C 560.335,453.482 560.502,450.482 561,447.5C 561.377,446.058 562.21,445.058 563.5,444.5C 565.909,443.299 567.909,441.633 569.5,439.5C 587.142,438.721 604.809,438.221 622.5,438C 615.382,430.552 607.882,423.385 600,416.5C 595.289,407.74 597.122,400.907 605.5,396C 610.499,395.253 615.165,396.086 619.5,398.5 Z"/></g>
<g><path style="opacity:1" fill="#7c7b78" d="M 569.5,439.5 C 567.909,441.633 565.909,443.299 563.5,444.5C 564.268,441.438 566.268,439.772 569.5,439.5 Z"/></g>
<g><path style="opacity:1" fill="#918f8c" d="M 281.5,429.5 C 281.158,444.888 281.824,460.221 283.5,475.5C 281.982,472.466 281.149,469.133 281,465.5C 280.174,453.326 280.34,441.326 281.5,429.5 Z"/></g>
<g><path style="opacity:1" fill="#181818" d="M 797.5,535.5 C 790.833,535.5 784.167,535.5 777.5,535.5C 777.5,473.833 777.5,412.167 777.5,350.5C 777.369,349.761 777.536,349.094 778,348.5C 778.333,349.833 778.667,351.167 779,352.5C 779.5,413.166 779.667,473.832 779.5,534.5C 786.903,534.153 792.903,534.486 797.5,535.5 Z"/></g>
<g><path style="opacity:1" fill="#8a8986" d="M 560.5,456.5 C 562.745,459.09 565.079,461.756 567.5,464.5C 563.764,463.095 561.431,460.429 560.5,456.5 Z"/></g>
<g><path style="opacity:1" fill="#5e5e5c" d="M 574.5,466.5 C 593.17,466.333 611.836,466.5 630.5,467C 630.833,467.333 631.167,467.667 631.5,468C 629.297,470.372 626.963,472.539 624.5,474.5C 624.5,474.167 624.5,473.833 624.5,473.5C 625.96,471.537 627.627,469.704 629.5,468C 610.995,467.832 592.662,467.332 574.5,466.5 Z"/></g>
<g><path style="opacity:1" fill="#b4b4b3" d="M 757.5,479.5 C 757.167,479.5 756.833,479.5 756.5,479.5C 740.833,479.5 725.167,479.5 709.5,479.5C 705.96,479.753 702.627,480.419 699.5,481.5C 697.5,481.5 695.5,481.5 693.5,481.5C 694.842,480.207 696.509,479.374 698.5,479C 718.338,478.171 738.004,478.338 757.5,479.5 Z"/></g>
<g><path style="opacity:1" fill="#afaeab" d="M 624.5,473.5 C 624.5,473.833 624.5,474.167 624.5,474.5C 621.5,477.167 618.5,479.833 615.5,482.5C 617.5,478.5 620.5,475.5 624.5,473.5 Z"/></g>
<g><path style="opacity:1" fill="#262625" d="M 709.5,479.5 C 724.658,480.496 739.991,480.83 755.5,480.5C 755.5,489.5 755.5,498.5 755.5,507.5C 734.167,507.5 712.833,507.5 691.5,507.5C 691.334,499.826 691.5,492.159 692,484.5C 695.096,483.262 697.596,482.262 699.5,481.5C 702.627,480.419 705.96,479.753 709.5,479.5 Z"/></g>
<g><path style="opacity:1" fill="#63625f" d="M 658.5,480.5 C 647.779,491.887 636.779,502.887 625.5,513.5C 625.369,512.761 625.536,512.094 626,511.5C 636.42,500.576 647.253,490.243 658.5,480.5 Z"/></g>
<g><path style="opacity:1" fill="#0b0b0a" d="M 709.5,479.5 C 725.167,479.5 740.833,479.5 756.5,479.5C 756.5,489.167 756.5,498.833 756.5,508.5C 734.167,508.5 711.833,508.5 689.5,508.5C 689.334,500.493 689.5,492.493 690,484.5C 691.039,483.29 692.206,482.29 693.5,481.5C 695.5,481.5 697.5,481.5 699.5,481.5C 697.596,482.262 695.096,483.262 692,484.5C 691.5,492.159 691.334,499.826 691.5,507.5C 712.833,507.5 734.167,507.5 755.5,507.5C 755.5,498.5 755.5,489.5 755.5,480.5C 739.991,480.83 724.658,480.496 709.5,479.5 Z"/></g>
<g><path style="opacity:1" fill="#5c5b5b" d="M 756.5,479.5 C 756.833,479.5 757.167,479.5 757.5,479.5C 757.5,489.5 757.5,499.5 757.5,509.5C 734.661,509.831 711.994,509.497 689.5,508.5C 711.833,508.5 734.167,508.5 756.5,508.5C 756.5,498.833 756.5,489.167 756.5,479.5 Z"/></g>
<g><path style="opacity:1" fill="#4b4b4b" d="M 806.5,345.5 C 807.268,346.263 807.768,347.263 808,348.5C 808.5,411.499 808.667,474.499 808.5,537.5C 807.501,476.669 807.168,415.669 807.5,354.5C 806.597,351.609 806.264,348.609 806.5,345.5 Z"/></g>
<g><path style="opacity:1" fill="#676562" d="M 287.5,493.5 C 291.924,501.669 296.424,510.002 301,518.5C 306.69,526.346 312.523,534.013 318.5,541.5C 303.63,528.426 293.297,512.426 287.5,493.5 Z"/></g>
<g><path style="opacity:1" fill="#262625" d="M 479.5,335.5 C 494.494,343.687 507.16,354.687 517.5,368.5C 522.193,374.548 525.859,381.215 528.5,388.5C 530.345,397.168 533.012,405.501 536.5,413.5C 536.5,414.167 536.5,414.833 536.5,415.5C 536.875,421.009 537.542,426.342 538.5,431.5C 538.982,448.017 537.482,464.35 534,480.5C 528.188,501.451 519.188,520.784 507,538.5C 494.926,552.07 481.093,563.07 465.5,571.5C 460.868,572.596 456.534,574.263 452.5,576.5C 442.864,578.659 433.197,580.659 423.5,582.5C 411.485,582.576 399.485,582.243 387.5,581.5C 360.04,575.675 337.04,562.341 318.5,541.5C 312.523,534.013 306.69,526.346 301,518.5C 296.424,510.002 291.924,501.669 287.5,493.5C 285.534,487.635 284.2,481.635 283.5,475.5C 281.824,460.221 281.158,444.888 281.5,429.5C 284.619,403.941 294.285,381.274 310.5,361.5C 318.86,352.809 327.86,344.809 337.5,337.5C 339.883,335.642 342.55,334.308 345.5,333.5C 351.403,331.206 357.07,328.539 362.5,325.5C 379.937,317.873 398.271,314.706 417.5,316C 440.204,316.664 460.871,323.164 479.5,335.5 Z"/></g>
<g><path style="opacity:1" fill="#63625f" d="M 490.5,511.5 C 488.938,516.907 486.271,521.741 482.5,526C 481.552,526.483 480.552,526.649 479.5,526.5C 483.585,521.757 487.251,516.757 490.5,511.5 Z"/></g>
<g><path style="opacity:1" fill="#787672" d="M 499.5,389.5 C 508.783,403.292 512.783,418.625 511.5,435.5C 511.38,444.189 510.88,452.856 510,461.5C 507.662,469.506 505.329,477.506 503,485.5C 502.303,487.584 501.136,489.251 499.5,490.5C 505.856,473.408 509.522,455.741 510.5,437.5C 510.319,427.386 509.152,417.386 507,407.5C 504.211,401.593 501.711,395.593 499.5,389.5 Z"/></g>
<g><path style="opacity:1" fill="#f3f3f4" d="M 428.5,345.5 C 458.631,349.732 482.298,364.399 499.5,389.5C 501.711,395.593 504.211,401.593 507,407.5C 509.152,417.386 510.319,427.386 510.5,437.5C 509.522,455.741 505.856,473.408 499.5,490.5C 496.264,497.316 493.264,504.316 490.5,511.5C 487.251,516.757 483.585,521.757 479.5,526.5C 457.822,547.326 431.822,556.993 401.5,555.5C 390.807,553.571 380.474,550.237 370.5,545.5C 363.81,542.321 357.477,538.488 351.5,534C 339.543,523.381 329.043,511.548 320,498.5C 313.713,487.306 310.047,475.306 309,462.5C 307.033,443.108 308.7,424.108 314,405.5C 325.723,378.11 345.557,359.276 373.5,349C 377.145,348.005 380.812,347.172 384.5,346.5C 399.106,344.221 413.773,343.887 428.5,345.5 Z"/></g>
<g><path style="opacity:1" fill="#706e6b" d="M 374.5,510.5 C 381.724,513.075 389.057,515.575 396.5,518C 409.135,519.417 421.468,518.251 433.5,514.5C 434.107,514.624 434.44,514.957 434.5,515.5C 431.021,517.122 427.355,518.289 423.5,519C 411.364,520.139 399.364,519.472 387.5,517C 382.808,515.287 378.475,513.12 374.5,510.5 Z"/></g>
<g><path style="opacity:1" fill="#252524" d="M 379.5,489.5 C 385.082,493.702 391.415,496.368 398.5,497.5C 409.683,500.748 420.683,499.915 431.5,495C 432.942,494.623 433.942,493.79 434.5,492.5C 440.739,490.041 446.406,486.541 451.5,482C 460.864,477.057 466.531,479.723 468.5,490C 467.497,495.022 464.83,499.022 460.5,502C 452.184,507.324 443.517,511.824 434.5,515.5C 434.44,514.957 434.107,514.624 433.5,514.5C 421.468,518.251 409.135,519.417 396.5,518C 389.057,515.575 381.724,513.075 374.5,510.5C 366.029,506.534 358.862,500.867 353,493.5C 351.094,487.065 353.261,482.565 359.5,480C 362.167,479.333 364.833,479.333 367.5,480C 371.394,483.404 375.394,486.571 379.5,489.5 Z"/></g>
<g><path style="opacity:1" fill="#4c4a47" d="M 434.5,492.5 C 433.942,493.79 432.942,494.623 431.5,495C 420.683,499.915 409.683,500.748 398.5,497.5C 399.833,497.5 401.167,497.5 402.5,497.5C 413.565,498.211 424.231,496.545 434.5,492.5 Z"/></g>
<g><path style="opacity:1" fill="#888784" d="M 379.5,489.5 C 387.312,492.213 394.979,494.88 402.5,497.5C 401.167,497.5 399.833,497.5 398.5,497.5C 391.415,496.368 385.082,493.702 379.5,489.5 Z"/></g>
<g><path style="opacity:1" fill="#999896" d="M 433.5,430.5 C 436.139,435.247 439.806,439.08 444.5,442C 448.554,442.694 452.554,442.527 456.5,441.5C 455.319,443.067 453.653,443.901 451.5,444C 442.033,444.102 436.033,439.602 433.5,430.5 Z"/></g>
<g><path style="opacity:1" fill="#9f9e9c" d="M 352.5,430.5 C 354.969,433.144 357.302,435.977 359.5,439C 364.112,442.223 369.112,443.056 374.5,441.5C 372.034,444.031 369.034,444.864 365.5,444C 358.948,441.615 354.615,437.115 352.5,430.5 Z"/></g>
<g><path style="opacity:1" fill="#8f8d8a" d="M 385.5,418.5 C 386.997,420.29 387.664,422.456 387.5,425C 387.492,426.707 387.158,428.207 386.5,429.5C 386.448,425.802 386.114,422.135 385.5,418.5 Z"/></g>
<g><path style="opacity:1" fill="#262625" d="M 456.5,441.5 C 452.554,442.527 448.554,442.694 444.5,442C 439.806,439.08 436.139,435.247 433.5,430.5C 431.175,413.324 438.508,406.157 455.5,409C 467.148,414.271 470.314,422.771 465,434.5C 462.584,437.423 459.75,439.757 456.5,441.5 Z"/></g>
<g><path style="opacity:1" fill="#252524" d="M 385.5,418.5 C 386.114,422.135 386.448,425.802 386.5,429.5C 384.837,435.829 380.837,439.829 374.5,441.5C 369.112,443.056 364.112,442.223 359.5,439C 357.302,435.977 354.969,433.144 352.5,430.5C 352.597,413.567 360.931,406.733 377.5,410C 381.048,412.047 383.715,414.88 385.5,418.5 Z"/></g>
<g><path style="opacity:1" fill="#817f7c" d="M 428.5,345.5 C 413.773,343.887 399.106,344.221 384.5,346.5C 387.258,345.239 390.258,344.406 393.5,344C 398.5,343.833 403.5,343.667 408.5,343.5C 415.411,343.276 422.078,343.942 428.5,345.5 Z"/></g>
<g><path style="opacity:1" fill="#5a5854" d="M 370.5,545.5 C 380.474,550.237 390.807,553.571 401.5,555.5C 395.419,555.274 389.419,554.441 383.5,553C 379.791,550.57 375.791,548.736 371.5,547.5C 370.702,547.043 370.369,546.376 370.5,545.5 Z"/></g>
<g><path style="opacity:1" fill="#010001" d="M 595.5,566.5 C 663.196,566.177 730.862,566.51 798.5,567.5C 797.903,568.139 797.07,568.472 796,568.5C 729.016,567.842 662.183,567.175 595.5,566.5 Z"/></g>
<g><path style="opacity:1" fill="#9e9d9b" d="M 465.5,571.5 C 461.605,574.134 457.272,575.801 452.5,576.5C 456.534,574.263 460.868,572.596 465.5,571.5 Z"/></g>
<g><path style="opacity:1" fill="#949390" d="M 387.5,581.5 C 399.485,582.243 411.485,582.576 423.5,582.5C 422.737,583.268 421.737,583.768 420.5,584C 409.206,585.109 398.206,584.276 387.5,581.5 Z"/></g>
<g><path style="opacity:1" fill="#000000" d="M 564.5,597.5 C 565.178,655.347 565.845,713.347 566.5,771.5C 566.48,772.726 566.147,773.726 565.5,774.5C 564.516,715.523 564.182,656.523 564.5,597.5 Z"/></g>
<g><path style="opacity:1" fill="#181817" d="M 818.5,580.5 C 822.44,585.473 824.94,591.139 826,597.5C 826.667,655.167 826.667,712.833 826,770.5C 825.697,774.004 824.863,777.338 823.5,780.5C 823.729,776.43 823.063,772.264 821.5,768C 821.833,767.833 822.167,767.667 822.5,767.5C 823.298,769.078 823.798,770.744 824,772.5C 824.667,713.167 824.667,653.833 824,594.5C 822.684,589.702 820.517,585.369 817.5,581.5C 817.624,580.893 817.957,580.56 818.5,580.5 Z"/></g>
<g><path style="opacity:1" fill="#151514" d="M 287.5,666.5 C 359.167,666.5 430.833,666.5 502.5,666.5C 512.319,667.494 522.319,667.827 532.5,667.5C 532.5,677.5 532.5,687.5 532.5,697.5C 490.833,697.5 449.167,697.5 407.5,697.5C 406.833,697.5 406.167,697.5 405.5,697.5C 447.33,696.501 489.33,696.168 531.5,696.5C 531.5,687.167 531.5,677.833 531.5,668.5C 444.817,668.84 363.483,668.174 287.5,666.5 Z"/></g>
<g><path style="opacity:1" fill="#7e7d7c" d="M 502.5,666.5 C 512.833,666.5 523.167,666.5 533.5,666.5C 533.828,677.014 533.494,687.347 532.5,697.5C 532.5,687.5 532.5,677.5 532.5,667.5C 522.319,667.827 512.319,667.494 502.5,666.5 Z"/></g>
<g><path style="opacity:1" fill="#b4b4b2" d="M 239.5,681.5 C 245.41,685.953 251.744,689.62 258.5,692.5C 253.808,692.159 249.474,690.659 245.5,688C 242.591,686.594 240.591,684.428 239.5,681.5 Z"/></g>
<g><path style="opacity:1" fill="#191817" d="M 279.5,696.5 C 311.331,695.336 343.331,695.169 375.5,696C 376.829,707.598 376.829,719.098 375.5,730.5C 375.828,719.321 375.495,708.321 374.5,697.5C 342.813,697.796 311.146,697.463 279.5,696.5 Z"/></g>
<g><path style="opacity:1" fill="#72716f" d="M 374.5,697.5 C 375.495,708.321 375.828,719.321 375.5,730.5C 375.927,734.824 376.261,739.158 376.5,743.5C 375.778,743.082 375.278,742.416 375,741.5C 374.5,726.837 374.333,712.17 374.5,697.5 Z"/></g>
<g><path style="opacity:1" fill="#9e9e9b" d="M 405.5,697.5 C 406.167,697.5 406.833,697.5 407.5,697.5C 407.5,716.167 407.5,734.833 407.5,753.5C 406.698,752.048 406.198,750.382 406,748.5C 405.5,731.503 405.333,714.503 405.5,697.5 Z"/></g>
<g><path style="opacity:1" fill="#252525" d="M 595.5,566.5 C 662.183,567.175 729.016,567.842 796,568.5C 797.07,568.472 797.903,568.139 798.5,567.5C 806.535,569.843 813.202,574.177 818.5,580.5C 817.957,580.56 817.624,580.893 817.5,581.5C 820.517,585.369 822.684,589.702 824,594.5C 824.667,653.833 824.667,713.167 824,772.5C 823.798,770.744 823.298,769.078 822.5,767.5C 822.167,767.667 821.833,767.833 821.5,768C 823.063,772.264 823.729,776.43 823.5,780.5C 820.675,786.998 816.342,792.331 810.5,796.5C 810.44,795.957 810.107,795.624 809.5,795.5C 804.894,798.402 799.894,800.235 794.5,801C 728.665,801.167 662.999,801.667 597.5,802.5C 581.155,799.66 570.488,790.327 565.5,774.5C 566.147,773.726 566.48,772.726 566.5,771.5C 565.845,713.347 565.178,655.347 564.5,597.5C 569.14,581.526 579.474,571.193 595.5,566.5 Z"/></g>
<g><path style="opacity:1" fill="#91908e" d="M 633.5,649.5 C 635.493,681.816 636.16,714.483 635.5,747.5C 644.5,747.5 653.5,747.5 662.5,747.5C 662.5,747.833 662.5,748.167 662.5,748.5C 652.833,748.5 643.167,748.5 633.5,748.5C 633.5,715.5 633.5,682.5 633.5,649.5 Z"/></g>
<g><path style="opacity:1" fill="#53524f" d="M 730.5,724.5 C 729.5,724.5 728.5,724.5 727.5,724.5C 721.652,723.439 715.985,721.773 710.5,719.5C 710.369,718.624 710.702,717.957 711.5,717.5C 717.964,719.713 724.298,722.047 730.5,724.5 Z"/></g>
<g><path style="opacity:1" fill="#040404" d="M 662.5,650.5 C 673.505,650.333 684.505,650.5 695.5,651C 684.839,651.5 674.172,651.667 663.5,651.5C 663.832,684.004 663.498,716.338 662.5,748.5C 662.5,748.167 662.5,747.833 662.5,747.5C 662.5,715.167 662.5,682.833 662.5,650.5 Z"/></g>
<g><path style="opacity:1" fill="#81807d" d="M 742.5,667.5 C 751.263,671.047 759.929,674.88 768.5,679C 767.944,679.383 767.611,679.883 767.5,680.5C 758.66,676.915 750.327,672.582 742.5,667.5 Z"/></g>
<g><path style="opacity:1" fill="#605f5c" d="M 783.5,639.5 C 783.416,643.837 782.416,647.837 780.5,651.5C 780.719,647.2 781.719,643.2 783.5,639.5 Z"/></g>
<g><path style="opacity:1" fill="#646461" d="M 763.5,623.5 C 770.562,623.675 777.395,625.009 784,627.5C 785.03,627.836 785.53,628.503 785.5,629.5C 778.047,627.59 770.714,625.59 763.5,623.5 Z"/></g>
<g><path style="opacity:1" fill="#fdfdfd" d="M 662.5,650.5 C 662.5,682.833 662.5,715.167 662.5,747.5C 653.5,747.5 644.5,747.5 635.5,747.5C 636.16,714.483 635.493,681.816 633.5,649.5C 623.167,649.5 612.833,649.5 602.5,649.5C 602.5,641.5 602.5,633.5 602.5,625.5C 633.5,625.5 664.5,625.5 695.5,625.5C 695.5,633.5 695.5,641.5 695.5,649.5C 684.321,649.172 673.321,649.505 662.5,650.5 Z"/></g>
<g><path style="opacity:1" fill="#fcfcfc" d="M 763.5,623.5 C 770.714,625.59 778.047,627.59 785.5,629.5C 784.626,632.789 783.959,636.123 783.5,639.5C 781.719,643.2 780.719,647.2 780.5,651.5C 780.565,651.938 780.399,652.272 780,652.5C 768.658,647.038 756.824,645.538 744.5,648C 736.186,651.293 734.02,656.793 738,664.5C 739.129,666.141 740.629,667.141 742.5,667.5C 750.327,672.582 758.66,676.915 767.5,680.5C 785.541,689.089 792.207,703.256 787.5,723C 783.913,734.253 776.58,741.92 765.5,746C 748.908,750.197 732.241,750.53 715.5,747C 712.792,745.931 710.125,744.764 707.5,743.5C 707.167,742.5 706.833,741.5 706.5,740.5C 707.835,733.48 709.169,726.48 710.5,719.5C 715.985,721.773 721.652,723.439 727.5,724.5C 731.854,726.343 736.52,727.343 741.5,727.5C 744.486,727.618 747.152,726.952 749.5,725.5C 759.52,723.333 762.687,717.333 759,707.5C 756.408,704.238 753.241,701.738 749.5,700C 737.004,696.072 725.837,689.905 716,681.5C 702.85,662.264 705.35,645.431 723.5,631C 736.04,624.52 749.374,622.02 763.5,623.5 Z"/></g>
<g><path style="opacity:1" fill="#868583" d="M 727.5,724.5 C 728.5,724.5 729.5,724.5 730.5,724.5C 736.851,724.557 743.185,724.89 749.5,725.5C 747.152,726.952 744.486,727.618 741.5,727.5C 736.52,727.343 731.854,726.343 727.5,724.5 Z"/></g>
<g><path style="opacity:1" fill="#9d9d9b" d="M 384.5,777.5 C 387.5,779.833 390.167,782.5 392.5,785.5C 388.833,783.833 386.167,781.167 384.5,777.5 Z"/></g>
<g><path style="opacity:1" fill="#acaca9" d="M 398.5,790.5 C 402.146,792.817 405.48,795.484 408.5,798.5C 403.951,797.241 400.618,794.574 398.5,790.5 Z"/></g>
<g><path style="opacity:1" fill="#191818" d="M 537.5,787.5 C 538.812,792.935 540.812,798.101 543.5,803C 504.096,803.827 464.762,803.66 425.5,802.5C 464.013,801.4 502.68,801.233 541.5,802C 539.871,798.573 538.371,795.073 537,791.5C 536.235,789.934 536.402,788.601 537.5,787.5 Z"/></g>
<g><path style="opacity:1" fill="#010101" d="M 810.5,796.5 C 805.924,799.415 800.924,801.248 795.5,802C 729.501,802.5 663.501,802.667 597.5,802.5C 662.999,801.667 728.665,801.167 794.5,801C 799.894,800.235 804.894,798.402 809.5,795.5C 810.107,795.624 810.44,795.957 810.5,796.5 Z"/></g>
</svg>
